<?xml version="1.0" encoding="utf-8"?>
<!-- Generator: Adobe Illustrator 21.1.0, SVG Export Plug-In . SVG Version: 6.00 Build 0)  -->
<svg version="1.1" id="Capa_1" xmlns="http://www.w3.org/2000/svg" xmlns:xlink="http://www.w3.org/1999/xlink" x="0px" y="0px"
	 viewBox="0 0 601 170.8" style="enable-background:new 0 0 601 170.8;" xml:space="preserve">
<style type="text/css">
	.st0{fill:#B2B2B2;}
</style>
<g>
	<path class="st0" d="M600.6,135.6C604,111,583,101.9,576.1,99c-11.2-4.8-21.8-10.3-31.6-16.4c2.3-2.5,2.3-6.4-0.2-8.9
		c-2.4-2.4-6.4-2.4-9-0.2l-2.1,1.7c-2.5-1.7-4.9-3.5-7.3-5.3l-4.7-3.7c2.4-2.5,2.6-6.5,0.1-9.1c-2.4-2.5-6.4-2.6-9.1-0.3l-1.5,1.3
		l-11.2-8.7c2.3-2.5,2.3-6.4-0.2-8.9c-2.4-2.4-6.4-2.4-9-0.2l-1.3,1.1l-11.6-9c1.6-2.5,1.3-5.9-1-8.2c-2.4-2.3-6.3-2.3-8.9-0.1
		l-0.4,0.3l-15.1-11.7c-1.6-1.2-3.7-1.4-5.4-0.6l-31.9,15.4c-9.4,4.6-20.2,5.7-30.3,3.3c-13.5-3.2-24.6-12.2-30.6-24.7
		c-1.4-3-4-5.1-7.2-5.8c-5.6-1.3-11.3,2-12.9,7.5l-21.1,57c-3.1,8.4-2,17.6,2.8,24.8c3.9,5.8,9.7,9.8,16.4,11.4l5.6,1.3l-2.7,11.4
		c-0.8,3.5,1.1,7.1,4.6,8c3.6,1,7.2-1.2,8-4.8l2.8-11.7l28.5,6.8l-2.7,11.4c-0.8,3.5,1.1,7.1,4.6,8c3.6,1,7.2-1.2,8-4.8l2.8-11.7
		l28.5,6.8l-2.7,11.4c-0.8,3.5,1.1,7.1,4.6,8c3.6,1,7.2-1.2,8-4.8l2.8-11.7l28.5,6.8l-2.7,11.4c-0.8,3.5,1.1,7.1,4.6,8
		c3.6,1,7.2-1.2,8-4.8l2.8-11.7l28.5,6.8l-2.7,11.4c-0.8,3.5,1.1,7.1,4.6,8c3.6,1,7.2-1.2,8-4.8l2.8-11.7l28.5,6.8l-2.7,11.4
		c-0.8,3.5,1.1,7.1,4.6,8c3.6,1,7.2-1.2,8-4.8l2.8-11.7l11.1,2.6c14.9,3.5,29.8-5.7,33.4-20.6L600.6,135.6z M570.1,144.2L335,88.4
		c-3.5-0.8-6.6-3-8.6-6c-2.5-3.7-3-8.6-1.4-13.1l19.6-53.1c8.1,13.7,21.3,23.5,36.9,27.2c13,3.1,26.9,1.6,39-4.3L448,25.8l9,7
		l-8.3,7c-2.7,2.3-3.1,6.4-0.8,9.2c0.9,1.1,2.2,1.8,3.5,2.1c1.9,0.5,4.1,0,5.7-1.4l10.4-8.8l11.4,8.8l-7.4,6.2
		c-2.7,2.3-3.1,6.4-0.8,9.2c0.9,1.1,2.2,1.8,3.5,2.1c1.9,0.5,4.1,0,5.7-1.4l9.5-8l11.2,8.6l-7.1,6c-2.7,2.3-3.1,6.4-0.8,9.2
		c0.9,1.1,2.2,1.8,3.5,2.1c1.9,0.5,4.1,0,5.7-1.4l9.3-7.8L518,80c1.6,1.3,3.3,2.5,5,3.7l-6.5,5.5c-2.7,2.3-3.1,6.4-0.8,9.2
		c0.9,1.1,2.2,1.8,3.5,2.1c1.9,0.5,4.1,0,5.7-1.4l9.3-7.8c11.4,7.3,23.7,13.9,36.8,19.5c13.2,5.7,18.1,12.3,16.9,22.6
		C585.8,141.2,577.9,146,570.1,144.2z"/>
	<path class="st0" d="M0.5,136.2C4,151.1,19,160.3,33.8,156.8l11.1-2.6l2.8,11.7c0.8,3.6,4.5,5.7,8,4.8c3.4-0.9,5.4-4.6,4.6-8
		l-2.7-11.4l28.5-6.8l2.8,11.7c0.8,3.6,4.5,5.7,8,4.8c3.4-0.9,5.4-4.6,4.6-8l-2.7-11.4l28.5-6.8l2.8,11.7c0.8,3.6,4.5,5.7,8,4.8
		c3.4-0.9,5.4-4.6,4.6-8l-2.7-11.4l28.5-6.8l2.8,11.7c0.8,3.6,4.5,5.7,8,4.8c3.4-0.9,5.4-4.6,4.6-8l-2.7-11.4l28.5-6.8l2.8,11.7
		c0.8,3.6,4.5,5.7,8,4.8c3.4-0.9,5.4-4.6,4.6-8l-2.7-11.4l28.5-6.8l2.8,11.7c0.8,3.6,4.5,5.7,8,4.8c3.4-0.9,5.4-4.6,4.6-8l-2.7-11.4
		l5.6-1.3c6.7-1.6,12.6-5.6,16.4-11.4c4.8-7.2,5.9-16.5,2.8-24.8l-21.1-57c-1.6-5.5-7.2-8.9-12.9-7.5c-3.1,0.7-5.8,2.9-7.2,5.8
		c-6,12.5-17.1,21.5-30.6,24.7c-10.1,2.4-20.9,1.2-30.3-3.3L154.3,12c-1.8-0.9-3.9-0.6-5.4,0.6l-15.1,11.7l-0.4-0.3
		c-2.6-2.2-6.4-2.2-8.9,0.1c-2.3,2.2-2.6,5.7-1,8.2l-11.6,9l-1.3-1.1c-2.6-2.2-6.6-2.2-9,0.2c-2.5,2.5-2.5,6.4-0.2,8.9L90.3,58
		l-1.5-1.3c-2.7-2.2-6.7-2.2-9.1,0.3c-2.5,2.6-2.4,6.6,0.1,9.1L75,69.8c-2.4,1.8-4.8,3.6-7.3,5.3l-2.1-1.7c-2.6-2.2-6.6-2.2-9,0.2
		c-2.5,2.5-2.5,6.4-0.2,8.9C46.7,88.6,36.1,94.1,24.9,99c-6.9,3-27.9,12-24.5,36.7L0.5,136.2z M13.2,133.5
		c-1.3-10.3,3.6-16.9,16.9-22.6c13.2-5.7,25.5-12.2,36.8-19.5l9.3,7.8c1.6,1.4,3.8,1.8,5.7,1.4c1.3-0.3,2.5-1,3.5-2.1
		c2.3-2.7,2-6.8-0.8-9.2L78,83.8c1.7-1.2,3.3-2.4,5-3.7l6.9-5.4l9.3,7.8c1.6,1.4,3.8,1.8,5.7,1.4c1.3-0.3,2.5-1,3.5-2.1
		c2.3-2.7,2-6.8-0.8-9.2l-7.1-6l11.2-8.6l9.5,8c1.6,1.4,3.8,1.8,5.7,1.4c1.3-0.3,2.5-1,3.5-2.1c2.3-2.7,2-6.8-0.8-9.2l-7.4-6.2
		l11.4-8.8l10.4,8.8c1.6,1.4,3.8,1.8,5.7,1.4c1.3-0.3,2.5-1,3.5-2.1c2.3-2.7,2-6.8-0.8-9.2l-8.3-7l9-7l27.5,13.3
		c12.1,5.8,25.9,7.4,39,4.3c15.6-3.7,28.8-13.5,36.9-27.2L276,69.3c1.6,4.4,1.1,9.3-1.4,13.1c-2,3-5.1,5.1-8.6,6L30.8,144.2
		C23,146,15.2,141.2,13.2,133.5z"/>
</g>
</svg>
