<?xml version="1.0" encoding="utf-8"?>
<!-- Generator: Adobe Illustrator 21.1.0, SVG Export Plug-In . SVG Version: 6.00 Build 0)  -->
<svg version="1.1" id="Слой_1" xmlns="http://www.w3.org/2000/svg" xmlns:xlink="http://www.w3.org/1999/xlink" x="0px" y="0px"
	 viewBox="0 0 197 82.8" style="enable-background:new 0 0 197 82.8;" xml:space="preserve">
<style type="text/css">
	.st0{fill:#FFFFFF;}
</style>
<g>
	<g>
		<path class="st0" d="M13.1,82.8C9.3,82.7,6.3,81.4,4,79c-2.3-2.4-3.6-5.7-3.9-9.8c-0.2-2,0-4.4,0.5-7.1c0.5-2.7,1.3-5.2,2.6-7.5
			s2.8-4.2,4.7-5.7c3.1-2.6,6.7-3.8,10.8-3.7c2.5,0.1,4.7,0.6,6.6,1.7c1.9,1.1,3.4,2.7,4.5,4.7c1.1,2.1,1.8,4.4,2,7
			c0.1,1.9,0,4-0.3,6.4c-0.4,2.4-1,4.6-2,6.8c-1,2.2-2.2,4.1-3.7,5.7c-1.5,1.6-3.3,2.9-5.4,3.9S15.7,82.8,13.1,82.8z M22.9,58.6
			c-0.2-4.2-1.8-6.4-4.9-6.5c-2.4-0.1-4.4,0.8-5.9,2.8c-1.6,2-2.6,5-3.1,8.9c-0.3,2.4-0.4,4.3-0.4,5.6c0.2,4.3,1.8,6.4,4.9,6.6
			c2,0.1,3.8-0.6,5.3-2.2c1.5-1.6,2.5-3.8,3.2-6.8C22.8,63.9,23,61.1,22.9,58.6z"/>
		<path class="st0" d="M57.7,67.7H43.9l-2.5,14.6h-8.6l6.3-36.6h23.8l-1.2,6.8H46.5l-1.5,8.4h13.8L57.7,67.7z"/>
		<path class="st0" d="M98,67.7H84.2l-2.5,14.6H73l6.3-36.6h23.8l-1.2,6.8H86.8l-1.5,8.4h13.8L98,67.7z"/>
		<path class="st0" d="M117.3,75.4h-11.7l-3.2,6.9h-9.5l19.4-36.6h8.1l6.8,36.6h-9L117.3,75.4z M108.8,68.6h7.6L114.8,56L108.8,68.6
			z"/>
		<path class="st0" d="M159.8,82.3h-8.3l-8.8-23.1l-4,23.1h-8.6l6.3-36.6h8.4l8.7,23.1l4-23.1h8.6L159.8,82.3z"/>
		<path class="st0" d="M185.5,72.4c0.4-1.9-0.7-3.4-3.1-4.4l-4.1-1.7c-5.8-2.6-8.5-6.1-8.3-10.6c0.1-2,0.8-3.9,2.1-5.5
			c1.3-1.6,3.1-2.8,5.4-3.7c2.3-0.9,4.8-1.3,7.5-1.3c3.6,0.1,6.5,1.1,8.7,3.2c2.2,2,3.3,4.8,3.3,8.2h-8.6c0.1-1.4-0.2-2.5-0.9-3.4
			c-0.6-0.8-1.7-1.3-3.2-1.3c-1.4,0-2.7,0.3-3.8,1c-1.1,0.7-1.8,1.7-2,2.8c-0.3,1.7,0.9,3.1,3.7,4.1c2.8,1.1,4.9,2,6.1,2.8
			c4,2.4,5.9,5.6,5.6,9.7c-0.1,2.1-0.8,4-2,5.6c-1.2,1.6-2.9,2.8-5.1,3.7c-2.2,0.9-4.6,1.3-7.3,1.3c-2,0-3.8-0.3-5.5-0.9
			c-1.7-0.6-3.1-1.4-4.4-2.6c-2.4-2.3-3.6-5.2-3.5-8.9l8.6,0c-0.1,1.9,0.3,3.3,1.1,4.3c0.8,1,2.2,1.4,4.2,1.4c1.4,0,2.6-0.3,3.6-1
			C184.7,74.4,185.3,73.5,185.5,72.4z"/>
	</g>
	<g>
		<path class="st0" d="M11.3,36.6L17.6,0l11.6,0c4.6,0,8,0.9,10.3,2.6s3.3,4.1,3.1,7.3c-0.3,3.9-2.4,6.6-6.3,8.2
			c1.4,0.5,2.5,1.4,3.3,2.7c0.8,1.3,1.1,2.9,1,4.7c-0.2,3.5-1.6,6.3-4.2,8.2c-2.6,1.9-6.1,2.9-10.5,2.9H11.3z M22.6,21l-1.5,8.7
			l5.2,0c1.6,0,2.9-0.4,4-1.2c1.1-0.8,1.7-1.9,1.9-3.2c0.5-2.8-0.6-4.3-3.2-4.4L22.6,21z M23.6,15.3l4,0c3.7-0.1,5.8-1.5,6.3-4.3
			c0.4-2.8-1-4.1-4.3-4.2l-4.6,0L23.6,15.3z"/>
		<path class="st0" d="M65.2,29.7H53.6l-3.2,6.9h-9.5L60.2,0h8.1l6.8,36.6h-8.9L65.2,29.7z M56.8,22.9h7.6l-1.6-12.6L56.8,22.9z"/>
		<path class="st0" d="M108.1,6.8H97.4l-5.2,29.8h-8.6l5.2-29.8H78.3L79.5,0h29.7L108.1,6.8z"/>
		<path class="st0" d="M140.2,6.8h-10.7l-5.2,29.8h-8.6l5.2-29.8h-10.5l1.2-6.8h29.7L140.2,6.8z"/>
		<path class="st0" d="M148.6,29.8h14.9l-1.2,6.8h-23.5L145.2,0h8.6L148.6,29.8z"/>
		<path class="st0" d="M190.9,21.1h-13.4l-1.5,8.7h15.9l-1.2,6.8h-24.5L172.5,0H197l-1.2,6.8h-15.9l-1.4,7.7H192L190.9,21.1z"/>
	</g>
</g>
</svg>
