<?xml version="1.0" encoding="utf-8"?>
<!-- Generator: Adobe Illustrator 21.1.0, SVG Export Plug-In . SVG Version: 6.00 Build 0)  -->
<svg version="1.1" id="Слой_1" xmlns="http://www.w3.org/2000/svg" xmlns:xlink="http://www.w3.org/1999/xlink" x="0px" y="0px"
	 viewBox="0 0 250.3 71.4" style="enable-background:new 0 0 250.3 71.4;" xml:space="preserve">
<style type="text/css">
	.st0{fill:#FFFFFF;}
</style>
<g>
	<g>
		<path class="st0" d="M29.8,52.8l8.1-13.8h8.4L32.5,59.8l-1.9,11.1H23L25,59L18.7,39l7.8,0L29.8,52.8z"/>
		<path class="st0" d="M55.6,71.3c-3.3-0.1-6-1.2-8-3.3c-2-2.1-3.1-5-3.4-8.5c-0.1-1.8,0-3.8,0.4-6.2c0.4-2.4,1.2-4.6,2.3-6.6
			s2.4-3.7,4.1-5c2.7-2.2,5.8-3.3,9.4-3.2c2.2,0,4.1,0.5,5.7,1.5c1.6,1,2.9,2.3,3.9,4.1c1,1.8,1.6,3.8,1.7,6.1
			c0.1,1.6,0,3.5-0.3,5.5c-0.3,2.1-0.9,4-1.7,5.9c-0.8,1.9-1.9,3.5-3.3,5c-1.3,1.4-2.9,2.6-4.7,3.4C59.8,71,57.8,71.4,55.6,71.3z
			 M64.1,50.2c-0.1-3.7-1.6-5.6-4.3-5.7c-2.1-0.1-3.8,0.7-5.2,2.5s-2.3,4.3-2.7,7.7c-0.3,2.1-0.4,3.7-0.3,4.9
			c0.1,3.7,1.6,5.6,4.3,5.7c1.8,0.1,3.3-0.6,4.6-1.9s2.2-3.4,2.8-6C64,54.8,64.2,52.4,64.1,50.2z"/>
		<path class="st0" d="M102.7,38.9l-3.6,20.8c-0.5,3.6-2,6.5-4.5,8.5c-2.5,2.1-5.6,3.1-9.3,3c-2.3,0-4.3-0.5-6.1-1.5
			c-1.7-1-3-2.3-3.8-4.1c-0.8-1.7-1.1-3.7-0.8-6l3.6-20.9h7.5l-3.5,20.9c-0.1,0.7-0.1,1.4,0,2.1c0.1,1.1,0.4,1.9,1,2.5
			c0.6,0.6,1.5,0.9,2.6,1c3.2,0.1,5.2-1.8,5.8-5.6l3.6-20.9H102.7z"/>
		<path class="st0" d="M115.5,59.6h-4.2l-2,11.3h-7.5l5.5-31.9l11.3,0c3.6,0,6.4,0.8,8.3,2.5c2,1.7,2.8,4,2.6,6.9
			c-0.2,2.3-0.8,4.2-2,5.7c-1.2,1.5-2.8,2.7-4.9,3.6l4.3,12.8v0.4h-8L115.5,59.6z M112.3,53.7l4.4,0c1.2,0,2.2-0.3,3.1-0.9
			c0.9-0.6,1.5-1.4,1.9-2.4c0.4-1,0.5-2,0.3-3c-0.3-1.6-1.3-2.5-3.1-2.6l-5.1,0L112.3,53.7z"/>
		<path class="st0" d="M168.4,60c-0.2,2.2-0.9,4.2-2.2,6s-3,3.1-5,4s-4.3,1.4-6.8,1.3c-3.3-0.1-6-1.1-7.9-3.2
			c-1.9-2.1-3-4.9-3.1-8.4c-0.1-2.4,0.1-5,0.8-7.7s1.7-5.2,3.2-7.3c1.5-2.1,3.2-3.6,5.2-4.7c2-1,4.2-1.5,6.5-1.5
			c3.5,0.1,6.2,1.1,8.3,3.1c2,2,3.1,4.8,3.3,8.4l-7.5,0c0-1.9-0.3-3.3-1.1-4.2s-1.9-1.3-3.5-1.3c-3.9-0.1-6.4,2.9-7.2,9.2
			c-0.4,2.8-0.6,4.9-0.6,6.1c-0.1,3.6,1.3,5.4,4,5.5c1.8,0.1,3.2-0.4,4.2-1.3c1.1-0.9,1.7-2.2,2-3.9L168.4,60z"/>
		<path class="st0" d="M178.9,65h13l-1,5.9h-20.5l5.5-31.9h7.5L178.9,65z"/>
		<path class="st0" d="M223.7,38.9l-3.6,20.8c-0.5,3.6-2,6.5-4.5,8.5s-5.6,3.1-9.3,3c-2.3,0-4.3-0.5-6.1-1.5c-1.7-1-3-2.3-3.8-4.1
			c-0.8-1.7-1.1-3.7-0.8-6l3.6-20.9h7.5l-3.5,20.9c-0.1,0.7-0.1,1.4,0,2.1c0.1,1.1,0.4,1.9,1,2.5c0.6,0.6,1.5,0.9,2.6,1
			c3.2,0.1,5.2-1.8,5.8-5.6l3.6-20.9H223.7z"/>
		<path class="st0" d="M222.9,70.9l5.5-31.9l10.2,0c4,0,7,0.8,9,2.3c2,1.5,2.9,3.6,2.7,6.3c-0.2,3.4-2.1,5.7-5.5,7.2
			c1.2,0.4,2.2,1.2,2.9,2.4s1,2.5,0.9,4.1c-0.2,3.1-1.4,5.5-3.7,7.1s-5.3,2.5-9.2,2.5H222.9z M232.8,57.3l-1.3,7.6l4.5,0
			c1.4,0,2.6-0.3,3.5-1c0.9-0.7,1.5-1.6,1.7-2.8c0.4-2.4-0.5-3.7-2.8-3.8L232.8,57.3z M233.6,52.3l3.5,0c3.3-0.1,5.1-1.3,5.5-3.8
			c0.4-2.4-0.9-3.6-3.7-3.6l-4,0L233.6,52.3z"/>
	</g>
	<g>
		<path class="st0" d="M16.7,23.6c0.3-1.6-0.6-2.9-2.7-3.8l-3.6-1.5C5.4,16,3,13,3.3,9.1C3.4,7.3,4,5.7,5.1,4.3s2.7-2.5,4.6-3.2
			S13.9,0,16.2,0c3.1,0.1,5.7,1,7.6,2.7s2.8,4.1,2.8,7.1h-7.4c0-1.2-0.2-2.2-0.8-2.9S17,5.8,15.7,5.8c-1.2,0-2.4,0.3-3.3,0.9
			s-1.5,1.4-1.7,2.5c-0.3,1.5,0.8,2.6,3.2,3.6c2.4,0.9,4.2,1.7,5.3,2.4c3.5,2.1,5.1,4.9,4.9,8.4c-0.1,1.8-0.7,3.4-1.8,4.8
			c-1.1,1.4-2.5,2.4-4.4,3.2c-1.9,0.8-4,1.1-6.3,1.1c-1.7,0-3.3-0.3-4.8-0.8c-1.5-0.5-2.7-1.2-3.8-2.2c-2.1-2-3.1-4.5-3-7.7l7.5,0
			c-0.1,1.6,0.2,2.9,0.9,3.7c0.7,0.8,1.9,1.3,3.6,1.3c1.2,0,2.3-0.3,3.1-0.9C16,25.4,16.5,24.6,16.7,23.6z"/>
		<path class="st0" d="M56.3,0.4l-3.5,20.7c-0.5,3.6-2,6.4-4.4,8.5c-2.4,2.1-5.5,3.1-9.2,3c-2.3,0-4.3-0.5-6-1.5
			c-1.7-1-2.9-2.3-3.8-4c-0.8-1.7-1.1-3.7-0.8-5.9L32,0.4h7.5L36,21.2c-0.1,0.7-0.1,1.4,0,2.1c0.1,1.1,0.4,1.9,1,2.5
			c0.6,0.6,1.5,0.9,2.6,1c3.2,0.1,5.1-1.8,5.8-5.6l3.5-20.7H56.3z"/>
		<path class="st0" d="M64.8,21.4l-1.9,10.8h-7.4L61,0.4l11.4,0c3.5,0,6.3,1,8.3,2.9c2,2,2.9,4.5,2.7,7.6c-0.2,2.1-0.9,4-2,5.5
			c-1.2,1.6-2.8,2.8-4.7,3.6c-2,0.8-4.1,1.2-6.6,1.2L64.8,21.4z M65.8,15.5l4.5,0c1.9,0,3.3-0.7,4.3-1.8c1-1.2,1.4-2.6,1.2-4.4
			c-0.1-0.9-0.5-1.6-1-2.1c-0.6-0.5-1.3-0.8-2.2-0.9l-5.2,0L65.8,15.5z"/>
		<path class="st0" d="M93.2,21.4l-1.9,10.8h-7.4l5.5-31.7l11.4,0c3.5,0,6.3,1,8.3,2.9c2,2,2.9,4.5,2.7,7.6c-0.2,2.1-0.9,4-2,5.5
			c-1.2,1.6-2.8,2.8-4.7,3.6c-2,0.8-4.1,1.2-6.6,1.2L93.2,21.4z M94.2,15.5l4.5,0c1.9,0,3.3-0.7,4.3-1.8c1-1.2,1.4-2.6,1.2-4.4
			c-0.1-0.9-0.5-1.6-1-2.1c-0.6-0.5-1.3-0.8-2.2-0.9l-5.2,0L94.2,15.5z"/>
		<path class="st0" d="M125.3,32.6c-3.3-0.1-5.9-1.2-7.9-3.3s-3.1-4.9-3.4-8.4c-0.1-1.7,0-3.8,0.4-6.1c0.4-2.4,1.2-4.5,2.2-6.5
			c1.1-2,2.4-3.6,4-5c2.7-2.2,5.8-3.3,9.3-3.2c2.2,0,4.1,0.5,5.7,1.5s2.9,2.3,3.9,4.1s1.5,3.8,1.7,6.1c0.1,1.6,0,3.4-0.3,5.5
			s-0.9,4-1.7,5.9s-1.9,3.5-3.2,4.9s-2.9,2.6-4.7,3.4C129.5,32.2,127.5,32.6,125.3,32.6z M133.8,11.6c-0.1-3.6-1.6-5.5-4.2-5.7
			c-2.1-0.1-3.8,0.7-5.1,2.4s-2.2,4.3-2.7,7.7c-0.3,2.1-0.4,3.7-0.3,4.9c0.1,3.7,1.6,5.6,4.3,5.7c1.8,0.1,3.3-0.5,4.6-1.9
			s2.2-3.3,2.8-5.9S133.9,13.8,133.8,11.6z"/>
		<path class="st0" d="M155.8,20.9h-4.1l-2,11.2h-7.4l5.5-31.7l11.2,0c3.6,0,6.3,0.8,8.3,2.5c1.9,1.7,2.8,4,2.6,6.9
			c-0.2,2.3-0.8,4.2-2,5.7c-1.2,1.5-2.8,2.7-4.9,3.6l4.3,12.7v0.4h-7.9L155.8,20.9z M152.7,15l4.4,0c1.2,0,2.2-0.3,3.1-0.9
			c0.9-0.6,1.5-1.4,1.9-2.4c0.4-1,0.5-2,0.3-2.9c-0.3-1.6-1.3-2.5-3.1-2.6l-5,0L152.7,15z"/>
		<path class="st0" d="M198.3,6.3H189l-4.5,25.8h-7.5l4.5-25.8h-9.1l1-5.9h25.7L198.3,6.3z"/>
	</g>
</g>
</svg>
