<?xml version="1.0" encoding="utf-8"?>
<!-- Generator: Adobe Illustrator 21.1.0, SVG Export Plug-In . SVG Version: 6.00 Build 0)  -->
<svg version="1.1" id="Capa_1" xmlns="http://www.w3.org/2000/svg" xmlns:xlink="http://www.w3.org/1999/xlink" x="0px" y="0px"
	 viewBox="0 0 296.4 352.2" style="enable-background:new 0 0 296.4 352.2;" xml:space="preserve">
<style type="text/css">
	.st0{fill:#3A3A3A;}
</style>
<g>
	<path class="st0" d="M278.9,134.1c3.3-1.2,6.2-3.1,8.6-5.8l0.4-0.4c7.5-8.6,6.7-21.6-1.8-29.2l-45.6-40.3
		c-3.8-3.3-8.6-5.2-13.7-5.2c-5.9,0-11.6,2.6-15.5,7l-0.4,0.4c-1.9,2.1-3.2,4.5-4.1,7.1c-10.6-4.6-21.9-7.9-33.6-9.9V42h6.4
		c11.4,0,20.6-9.2,20.6-20.6v-0.8c0-11.4-9.2-20.6-20.6-20.6h-62.8c-11.4,0-20.6,9.2-20.6,20.6v0.8c0,11.4,9.2,20.6,20.6,20.6h7.4
		v15.8C53.8,69.3,0,130.5,0,204c0,81.7,66.5,148.2,148.2,148.2c81.7,0,148.2-66.5,148.2-148.2C296.4,178.7,290.1,155,278.9,134.1z
		 M148.2,316.2C86.3,316.2,36,265.9,36,204S86.3,91.8,148.2,91.8c61.9,0,112.2,50.3,112.2,112.2S210.1,316.2,148.2,316.2z"/>
	<path class="st0" d="M127.7,254.4H89.1c-6.6,0-12-5.4-12-12v-75.2c0-6.6,5.4-12,12-12h38.7c6.6,0,12,5.4,12,12v75.2
		C139.7,249,134.3,254.4,127.7,254.4z"/>
	<path class="st0" d="M207.4,254.4h-38.7c-6.6,0-12-5.4-12-12v-75.2c0-6.6,5.4-12,12-12h38.7c6.6,0,12,5.4,12,12v75.2
		C219.4,249,214,254.4,207.4,254.4z"/>
</g>
</svg>
