<?xml version="1.0" encoding="utf-8"?>
<!-- Generator: Adobe Illustrator 21.1.0, SVG Export Plug-In . SVG Version: 6.00 Build 0)  -->
<svg version="1.1" id="Слой_1" xmlns="http://www.w3.org/2000/svg" xmlns:xlink="http://www.w3.org/1999/xlink" x="0px" y="0px"
	 viewBox="0 0 431.3 871.6" style="enable-background:new 0 0 431.3 871.6;" xml:space="preserve">
<style type="text/css">
	.st0{fill:none;}
	.st1{fill:#B2B2B2;}
</style>
<g>
	<path class="st0" d="M199.3,277l52.6-59.3l70.3,8.7L310.7,289l-40.5,17.3h25.9c42.4-27.1,71-74,72.6-127.6l-16.2-4.1l-25.3-71.4
		l6.4-27.9c-16.6-20.3-38.2-36.5-62.9-46.5l-38.5-4.9l-17.5-6.5c-0.9,0-1.7-0.1-2.6-0.1c-36.1,0-69.3,12.3-95.8,32.9l-10.1,16.3
		L66.9,115c-7.5,18.3-11.6,38.2-11.6,59.1c0,10.1,1,19.9,2.8,29.3l1.1-33.3l45.4,15.7l29.1,74.8l-30.4,26.1
		c7.6,7.3,15.9,13.9,24.8,19.6h99.3L199.3,277z M143.1,61.9l75.3-27.1l53.9,50.3L228,148.5l-82.4-15.7L143.1,61.9z"/>
	<path class="st0" d="M82.2,426.9c-0.9-11.4-1.9-23.3-3.2-35.3l-0.3-3.1h-62l0.1,3.6C18.1,437.6,27,473.8,45,505.9
		c16.9,30.2,28,48,60.2,63.2l8.4,4l-3.7-8.5C89.7,517.7,86.1,473.6,82.2,426.9z"/>
	<path class="st0" d="M355.3,388.4h-2.8l-0.3,3.1c-1.2,12-2.2,23.9-3.2,35.3c-3.9,46.7-7.5,90.8-27.7,137.6l-3.7,8.5l8.4-4
		c32.2-15.2,43.3-33,60.2-63.2c18-32.1,26.9-68.3,28.2-113.9l0.1-3.6h-3.7H355.3z"/>
	<rect x="119.9" y="794.2" class="st0" width="191.4" height="60.1"/>
	<polygon class="st1" points="272.3,85.1 218.4,34.8 143.1,61.9 145.6,132.8 228,148.5 	"/>
	<path class="st1" d="M419.3,372c-17.4,0.2-30.1,0.2-44.8,0.2c-6.2,0-12.7,0-20.3,0h-3.5v-3.5c0-2.5,0-6.3,0-10.7
		c-0.1-13.3-0.2-31.5,0.1-38.8c0.3-7.4-1.7-11.1-7.2-12.8h-18.3c3.4-2.9,6.7-5.9,9.8-9.1c16-16,28.5-34.6,37.3-55.3
		c9.1-21.5,13.7-44.3,13.7-67.8c0-23.5-4.6-46.3-13.7-67.8C363.7,85.6,351.1,67,335.2,51c-16-16-34.6-28.5-55.3-37.3
		C258.4,4.6,235.5,0,212.1,0c-23.5,0-46.3,4.6-67.8,13.7C123.5,22.5,104.9,35,88.9,51c-16,16-28.5,34.6-37.3,55.3
		C42.6,127.8,38,150.6,38,174.1c0,23.5,4.6,46.3,13.7,67.8c8.8,20.7,21.3,39.4,37.3,55.3c3.2,3.2,6.4,6.2,9.8,9.1H87.7
		c-5.5,1.7-7.5,5.4-7.2,12.8c0.3,7.3,0.2,25.5,0.1,38.8c0,4.4,0,8.2,0,10.7v3.5h-3.5c-7.5,0-14.1,0-20.3,0
		c-14.7,0-27.4,0.1-44.8-0.2c-5.8-0.1-9.4,1.4-12,5.1v20.1c0.1,0.3,0.2,0.6,0.3,0.9c0.3,1.1,0.7,2.4,0.9,3.7
		c0.7,5.2,1.2,10.5,1.7,15.6c1.1,10.5,2.2,21.4,4.5,31.7c19,84.7,52.9,128.4,116.8,150.8c4,1.4,7.2,4.7,8.7,6.5
		c11.7,14,23.4,28.3,34.7,42.1l5.4,6.6c1.6,1.9,3.3,3.8,4.9,5.7c4.1,4.6,8.4,9.4,11.3,15c7.5,14.2,3,28.4-3,41.7
		c-8,17.8-21.3,31.3-35.2,44.7c-12.7,12.2-25.4,17.2-40,15.7c-4-0.4-6.7,0.6-7.5,7c-0.3,2.6-0.5,5.1-0.5,7.4c0,6.3,0,13.7,0,21.5
		c0,14.6,0,31.1-0.1,43c-0.1,6.7,1.7,11.2,5.7,14.5h214.2c4-3.3,5.8-7.9,5.7-14.5c-0.2-12-0.1-28.5-0.1-43.1c0-7.8,0-15.2,0-21.5
		c0-2.3-0.2-4.8-0.5-7.4c-0.8-6.4-3.5-7.5-7.5-7c-14.6,1.5-27.3-3.5-40-15.7c-14-13.4-27.2-27-35.2-44.7c-6-13.3-10.5-27.5-3-41.7
		c3-5.6,7.2-10.4,11.3-15c1.7-1.9,3.4-3.8,4.9-5.7l5.4-6.6c11.3-13.8,23.1-28.2,34.7-42.1c1.5-1.8,4.7-5.1,8.7-6.5
		c63.9-22.4,97.7-66.1,116.8-150.8c2.3-10.3,3.4-21.2,4.5-31.7c0.5-5.1,1.1-10.4,1.7-15.6c0.2-1.4,0.5-2.6,0.9-3.7
		c0.1-0.3,0.2-0.6,0.3-0.9v-20.1C428.7,373.4,425.1,371.9,419.3,372z M103.3,286.7l30.4-26.1l-29.1-74.8l-45.4-15.7l-1.1,33.3
		c-1.8-9.5-2.8-19.3-2.8-29.3c0-20.9,4.1-40.8,11.6-59.1l39.1-48.5l10.1-16.3c26.5-20.6,59.8-32.9,95.8-32.9c0.9,0,1.7,0.1,2.6,0.1
		l17.5,6.5l38.5,4.9c24.7,10,46.3,26.1,62.9,46.5l-6.4,27.9l25.3,71.4l16.2,4.1c-1.6,53.6-30.1,100.5-72.6,127.6h-25.9l40.5-17.3
		l11.5-62.6l-70.3-8.7L199.3,277l28.1,29.3h-99.3C119.2,300.6,110.9,294,103.3,286.7z M105.2,569.1c-32.2-15.2-43.3-33-60.2-63.2
		C27,473.8,18.1,437.6,16.9,392l-0.1-3.6h62l0.3,3.1c1.2,12.1,2.2,23.9,3.2,35.3c3.9,46.7,7.5,90.8,27.7,137.6l3.7,8.5L105.2,569.1z
		 M311.4,794.2v60.1H119.9v-60.1H311.4z M262.6,625.5L262.6,625.5c-2.7,3-5.3,6-8,9c-6,6.7-12.1,13.7-18.3,20.5
		c-13.9,15.3-17.5,33.3-11.2,55c6.2,21.1,18.8,39.8,40.9,60.7l6.4,6H158.8l6.4-6c22.1-20.9,34.8-39.6,40.9-60.7
		c6.3-21.7,2.7-39.7-11.2-55c-6.1-6.8-12.3-13.8-18.3-20.5c-2.7-3-5.3-6-8-9c-26-29.3-44.5-62.6-54.9-99.1
		C97.5,469.1,96,390.7,96.6,328.7c0-1.5,0.8-2.6,1.2-3.2l0.1-0.2l1-1.9l2.1,0.1h21.8H165h46.4l3.5-0.1h7v0.1h37.3h42.3h31.1l1.1,1.9
		c0.4,0.6,1.2,1.7,1.2,3.2c0.6,62-0.9,140.5-17.2,197.7C307.1,562.9,288.6,596.2,262.6,625.5z M414.5,392
		c-1.2,45.6-10.2,81.8-28.2,113.9c-16.9,30.2-28,48-60.2,63.2l-8.4,4l3.7-8.5c20.2-46.9,23.8-91,27.7-137.6
		c0.9-11.4,1.9-23.3,3.2-35.3l0.3-3.1h2.8h55.5h3.7L414.5,392z"/>
</g>
</svg>
