<?xml version="1.0" encoding="utf-8"?>
<!-- Generator: Adobe Illustrator 21.1.0, SVG Export Plug-In . SVG Version: 6.00 Build 0)  -->
<svg version="1.1" id="Слой_1" xmlns="http://www.w3.org/2000/svg" xmlns:xlink="http://www.w3.org/1999/xlink" x="0px" y="0px"
	 viewBox="0 0 226.4 81.9" style="enable-background:new 0 0 226.4 81.9;" xml:space="preserve">
<style type="text/css">
	.st0{fill:#FFFFFF;}
</style>
<g>
	<path class="st0" d="M49,6.8H33.6l-1,5.8l4,0c2.5,0.1,4.8,0.6,6.8,1.6c2,1,3.5,2.3,4.5,4.1c1,1.7,1.4,3.7,1.2,6
		c-0.3,3.7-1.9,6.7-4.9,9c-3,2.2-6.7,3.4-11.1,3.4H19.8L26.1,0h24L49,6.8z M31.4,19.3l-1.8,10.4l3.9,0c1.8,0,3.3-0.5,4.6-1.5
		c1.3-1,2.1-2.4,2.3-4.1c0.2-1.4-0.1-2.5-0.9-3.4c-0.8-0.9-1.9-1.3-3.4-1.4L31.4,19.3z"/>
	<path class="st0" d="M77.5,0h8.8L80,36.5h-8.6L75.3,14L59,36.5h-8.8L56.5,0h8.6l-3.9,22.6L77.5,0z"/>
	<path class="st0" d="M117.7,6.8h-10.6l-5.1,29.7h-8.6l5.2-29.7H88L89.2,0h29.7L117.7,6.8z"/>
	<path class="st0" d="M115.8,36.5L122.1,0l11.6,0c4.6,0,8,0.9,10.3,2.6c2.3,1.7,3.3,4.1,3.1,7.3c-0.3,3.8-2.4,6.6-6.3,8.2
		c1.4,0.5,2.5,1.4,3.3,2.7c0.8,1.3,1.1,2.9,1,4.7c-0.2,3.5-1.6,6.2-4.2,8.2c-2.6,1.9-6,2.9-10.5,2.9H115.8z M127.1,21l-1.5,8.7
		l5.1,0c1.6,0,2.9-0.4,4-1.2c1.1-0.8,1.7-1.8,1.9-3.2c0.5-2.8-0.6-4.2-3.2-4.4L127.1,21z M128,15.2l4,0c3.7-0.1,5.8-1.5,6.3-4.3
		c0.4-2.8-1-4.1-4.3-4.2l-4.6,0L128,15.2z"/>
	<path class="st0" d="M167.3,29.7h-11.7l-3.2,6.8h-9.5L162.3,0h8.1l6.7,36.5h-8.9L167.3,29.7z M158.8,22.9h7.6l-1.6-12.6L158.8,22.9
		z"/>
	<path class="st0" d="M26,47.1l0.2,0c2.7-0.1,5.1,0.6,7.2,2.1c2,1.4,3.5,3.4,4.5,5.9c0.8,2.2,1.1,4.6,0.9,7.2
		c-0.3,2.9-1.2,5.5-2.8,7.9c-1.6,2.4-3.6,4.2-6.1,5.4c-2.5,1.3-5.2,1.9-8.1,1.8h-0.5l-1,4.6h-8.3l1-4.7h-0.1c-2.6,0.1-5-0.6-7-1.8
		c-2-1.3-3.6-3.1-4.6-5.3c-1-2.3-1.4-4.8-1.1-7.5c0.3-3,1.2-5.6,2.8-8.1c1.6-2.4,3.6-4.3,6.2-5.6c2.5-1.3,5.3-2,8.2-1.9h0.5l1-4.6
		l8.1,0L26,47.1z M8.2,65.4c0.2,1.4,0.7,2.5,1.5,3.3c0.8,0.8,1.9,1.3,3.3,1.5l0.7,0.1L16.9,54c-2.1,0-3.8,0.6-5.3,1.8
		c-1.5,1.2-2.5,2.9-3.1,5.2C8.1,62.5,8,64,8.2,65.4z M25.2,54l-3.1,16.3c1.8,0,3.4-0.5,4.8-1.4c1.4-0.9,2.4-2.3,3.1-4
		c0.7-1.7,0.9-3.6,0.8-5.6c-0.1-1.5-0.6-2.7-1.5-3.7c-0.9-0.9-2-1.5-3.5-1.6L25.2,54z"/>
	<path class="st0" d="M57.9,73.6H46.2L43,80.4h-9.5l19.3-36.5h8.1l6.7,36.5h-8.9L57.9,73.6z M49.4,66.8H57l-1.6-12.6L49.4,66.8z"/>
	<path class="st0" d="M99.7,80.4h-8.5l2.6-15.3H81.3l-2.7,15.3H70l6.3-36.5H85l-2.5,14.5H95l2.5-14.5h8.6L99.7,80.4z"/>
	<path class="st0" d="M126.1,73.6h-11.7l-3.2,6.8h-9.5L121,43.9h8.1l6.7,36.5h-8.9L126.1,73.6z M117.6,66.8h7.6l-1.6-12.6
		L117.6,66.8z"/>
	<path class="st0" d="M166.5,50.7h-10.6l-5.1,29.7h-8.6l5.2-29.7h-10.5l1.2-6.8h29.7L166.5,50.7z"/>
	<path class="st0" d="M177.2,80.9c-3.8-0.1-6.8-1.3-9.1-3.8c-2.3-2.4-3.6-5.7-3.9-9.7c-0.2-2,0-4.4,0.5-7.1c0.5-2.7,1.3-5.2,2.6-7.5
		c1.2-2.3,2.8-4.2,4.6-5.7c3.1-2.6,6.7-3.8,10.7-3.7c2.5,0.1,4.7,0.6,6.5,1.7c1.9,1.1,3.4,2.7,4.5,4.7c1.1,2.1,1.8,4.4,2,7
		c0.1,1.9,0,4-0.3,6.3c-0.4,2.4-1,4.6-2,6.8c-1,2.1-2.2,4-3.7,5.7c-1.5,1.6-3.3,2.9-5.4,3.9C182.1,80.5,179.8,81,177.2,80.9z
		 M187,56.8c-0.2-4.2-1.8-6.4-4.9-6.5c-2.4-0.1-4.3,0.8-5.9,2.8c-1.6,2-2.6,4.9-3.1,8.8c-0.3,2.4-0.4,4.3-0.4,5.6
		c0.2,4.2,1.8,6.4,4.9,6.5c2,0.1,3.8-0.6,5.3-2.2c1.5-1.6,2.5-3.8,3.2-6.8C186.8,62.1,187.1,59.3,187,56.8z"/>
	<path class="st0" d="M195.1,80.4l6.3-36.5l11.6,0c4.6,0,8,0.9,10.3,2.6c2.3,1.7,3.3,4.1,3.1,7.3c-0.3,3.8-2.4,6.6-6.3,8.2
		c1.4,0.5,2.5,1.4,3.3,2.7c0.8,1.3,1.1,2.9,1,4.7c-0.2,3.5-1.6,6.2-4.2,8.2c-2.6,1.9-6,2.9-10.5,2.9H195.1z M206.4,64.9l-1.5,8.7
		l5.1,0c1.6,0,2.9-0.4,4-1.2c1.1-0.8,1.7-1.8,1.9-3.2c0.5-2.8-0.6-4.2-3.2-4.4L206.4,64.9z M207.3,59.1l4,0c3.7-0.1,5.8-1.5,6.3-4.3
		c0.4-2.8-1-4.1-4.3-4.2l-4.6,0L207.3,59.1z"/>
</g>
</svg>
