<?xml version="1.0" encoding="utf-8"?>
<!-- Generator: Adobe Illustrator 21.1.0, SVG Export Plug-In . SVG Version: 6.00 Build 0)  -->
<svg version="1.1" id="Layer_1" xmlns="http://www.w3.org/2000/svg" xmlns:xlink="http://www.w3.org/1999/xlink" x="0px" y="0px"
	 viewBox="0 0 841.4 1145.3" style="enable-background:new 0 0 841.4 1145.3;" xml:space="preserve">
<style type="text/css">
	.st0{fill-rule:evenodd;clip-rule:evenodd;fill:#FFFFFF;}
	.st1{fill-rule:evenodd;clip-rule:evenodd;fill:url(#SVGID_1_);}
	.st2{fill-rule:evenodd;clip-rule:evenodd;fill:url(#SVGID_2_);}
	.st3{fill-rule:evenodd;clip-rule:evenodd;fill:url(#SVGID_3_);}
	.st4{fill-rule:evenodd;clip-rule:evenodd;fill:#D54137;}
	.st5{fill-rule:evenodd;clip-rule:evenodd;fill:url(#SVGID_4_);}
	.st6{fill-rule:evenodd;clip-rule:evenodd;fill:url(#SVGID_5_);}
	.st7{fill-rule:evenodd;clip-rule:evenodd;fill:url(#SVGID_6_);}
	.st8{fill-rule:evenodd;clip-rule:evenodd;fill:url(#SVGID_7_);}
	.st9{fill-rule:evenodd;clip-rule:evenodd;fill:url(#SVGID_8_);}
	.st10{fill-rule:evenodd;clip-rule:evenodd;fill:url(#SVGID_9_);}
	.st11{fill-rule:evenodd;clip-rule:evenodd;fill:url(#SVGID_10_);}
	.st12{fill-rule:evenodd;clip-rule:evenodd;fill:url(#SVGID_11_);}
	.st13{fill-rule:evenodd;clip-rule:evenodd;fill:#00B18E;}
</style>
<g>
	<path class="st0" d="M110.6,356.8l-5.4,85c0,0,5.4,156,21.8,219.4c16.4,63.4,68.8,202.1,76.4,219.5c7.7,17.5,90.8,133.8,90.8,133.8
		s64-15.5,124.1-15.5c68.4,0,129.2,16.7,129.2,16.7l66.4-88.2c0,0,74.2-115.7,98.2-238c24.1-122.3,24.1-318.8,24.1-318.8
		s-105.9,38.3-141.9,38.3c-36,0-170.4-61.2-170.4-61.2s-80.6,57.8-171.3,57.8C161.9,405.9,110.6,356.8,110.6,356.8L110.6,356.8
		L110.6,356.8z"/>
	<linearGradient id="SVGID_1_" gradientUnits="userSpaceOnUse" x1="99.3626" y1="673.8819" x2="745.4287" y2="673.8819">
		<stop  offset="5.618000e-03" style="stop-color:#832221"/>
		<stop  offset="0.1296" style="stop-color:#9C2E2B"/>
		<stop  offset="0.2853" style="stop-color:#BA3A32"/>
		<stop  offset="0.4144" style="stop-color:#CE3F36"/>
		<stop  offset="0.5" style="stop-color:#D54137"/>
		<stop  offset="0.608" style="stop-color:#D14036"/>
		<stop  offset="0.7099" style="stop-color:#C63E34"/>
		<stop  offset="0.8093" style="stop-color:#B53831"/>
		<stop  offset="0.9065" style="stop-color:#9D2F2B"/>
		<stop  offset="1" style="stop-color:#832221"/>
	</linearGradient>
	<path class="st1" d="M103.8,340.9c3.1,0.7,8.3-0.9,12.1,0c3.8,0.9,10.1,8.6,13.3,11.2c13.4,10.6,30,19.5,46.9,26.3
		c23.7,9.5,50.6,15.7,82.2,15c54.5-1,94.6-18.9,128.3-42.2c3.9-2.7,10-8.9,14.2-9.9c5.7-1.3,16,0,22,0c6,0,16.4-0.8,21.1,0.4
		c4.7,1.2,10.2,7.1,14.6,10.3c31.5,22.8,76.8,42.7,128.3,44.3c32.4,1.1,58.1-7.9,82.7-16.4c22.1-7.6,38.1-18.2,54.3-32.3
		c1.9-1.6,5-5.2,6.5-5.6c3.8-1.1,8.7,0.9,12.1,0c4.6,68.6,4.2,140.7-1.7,206.7c-5.7,64.4-18.6,125-35.3,179.1
		c-29.5,95.3-69,180-124.9,250.6c-3.7,4.7-7.1,9.4-11.6,15.1c-3.3,4.2-10.1,12.9-13.3,13.4c-5.9,0.9-15-4.7-21.1-4.7
		c-0.3-2.1,2.8-4.2,4.8-6.5c61.1-71.2,108.3-156.1,140.8-257.1c24.9-77.3,41.2-163,44.4-263.5c1-32.4,2.7-65.9-0.9-99.1
		c-5.6,1.9-10.5,5.6-15.9,8.6c-35.4,20-86.4,37-144.7,28.9c-58.7-8.2-103.7-32.5-140.4-61.6c-18.1,14.6-39.1,27.4-62.9,37.9
		c-23.4,10.4-47.9,20.3-77.9,22.8c-33.4,2.8-64.6,0.6-90.9-7.3c-25.4-7.7-47.5-20-68.4-31.9C108,617.5,168.2,804.3,264.4,944.2
		c12.3,17.9,24.9,34.2,39.2,50.4c1.6,1.8,4.9,4.3,4.3,6.4c-6.2-0.5-14.8,5.3-21.1,4.3c-3.2-0.5-10-9.2-13.3-13.3
		c-59.7-73.3-104.9-163.3-135.2-265.2c-16.2-54.5-28.9-114.8-34.5-179.1c-5.7-66.1-5.9-138-0.4-205.4
		C103.3,341.6,103.3,341,103.8,340.9L103.8,340.9L103.8,340.9z"/>
	<linearGradient id="SVGID_2_" gradientUnits="userSpaceOnUse" x1="130.2888" y1="681.9804" x2="714.6658" y2="681.9804">
		<stop  offset="5.618000e-03" style="stop-color:#832221"/>
		<stop  offset="7.607728e-02" style="stop-color:#9C2E2B"/>
		<stop  offset="0.1645" style="stop-color:#BA3A32"/>
		<stop  offset="0.2379" style="stop-color:#CE3F36"/>
		<stop  offset="0.2865" style="stop-color:#D54137"/>
		<stop  offset="0.4406" style="stop-color:#D14036"/>
		<stop  offset="0.586" style="stop-color:#C63E34"/>
		<stop  offset="0.7278" style="stop-color:#B53831"/>
		<stop  offset="0.8666" style="stop-color:#9D2F2B"/>
		<stop  offset="1" style="stop-color:#832221"/>
	</linearGradient>
	<path class="st2" d="M422.4,364.6c35.4,26.4,78.2,52,133.5,59.4c62.1,8.3,118.3-7.9,158-29.3c7.2,200.2-36.6,362.4-108.1,489.6
		c-20.5,36.5-43.8,71.6-72.3,102.5c-3,3.3-9.2,11.8-12.1,12.5c-1.8,0.4-7.9-1.1-8.6-1.7c-1.6-1.3-0.8-0.6,0.4-2.2
		c4.4-5.6,12.5-13.6,16.4-18.1C621,871.5,677.8,729.2,698.4,552.8c-184.2-0.9-368-0.5-552.4-0.4c18.8,164.2,69.6,298.2,149.4,402.2
		c9.9,12.9,19.9,26.3,31.9,37.5c1.1,1,3.6,2.7,3,4.7c-3.3-0.1-5.8,1.6-8.6,1.3c-2.9-0.3-8.4-7.9-12.1-12
		c-58.3-66.3-103-148.3-132.6-242c-15.8-50.1-29.4-103.8-37.5-162.3c-8.1-58.9-11-122.9-8.2-189c40,20.7,95.8,39.7,155.9,30.6
		C342.9,414.7,386.8,392,422.4,364.6L422.4,364.6L422.4,364.6z"/>
	<linearGradient id="SVGID_3_" gradientUnits="userSpaceOnUse" x1="0" y1="1006.8237" x2="841.3694" y2="1006.8237">
		<stop  offset="0" style="stop-color:#005B54"/>
		<stop  offset="6.607613e-02" style="stop-color:#006B61"/>
		<stop  offset="0.2023" style="stop-color:#008976"/>
		<stop  offset="0.3257" style="stop-color:#009E83"/>
		<stop  offset="0.431" style="stop-color:#00AB8A"/>
		<stop  offset="0.5056" style="stop-color:#00B18E"/>
		<stop  offset="0.6042" style="stop-color:#00AD8C"/>
		<stop  offset="0.6934" style="stop-color:#00A587"/>
		<stop  offset="0.779" style="stop-color:#009980"/>
		<stop  offset="0.8623" style="stop-color:#008774"/>
		<stop  offset="0.9433" style="stop-color:#006F63"/>
		<stop  offset="1" style="stop-color:#005B54"/>
	</linearGradient>
	<path class="st3" d="M781.9,924.4c18.3,0.8,33.3-4,47.4-9.9c1-3.9,4.5-7.5,3.9-11.6c-23.1,18-66.7,12.8-94.3,3.9
		c-29.2-9.4-55.8-22.6-79.2-36.2c-1.7,2.6-3.1,5.5-4.3,8.6c23.8,13.2,49,26.8,78.8,35.7C747.9,919,765.2,923.7,781.9,924.4
		L781.9,924.4L781.9,924.4z M20.2,924.4C30.4,944.9,46,960.1,65,971.7c-12.8,15-28.9,26.8-45.2,38.3c21,11.8,56.3,10.9,83.1,6
		c27.2-5,51.1-14.7,71.5-25c10.6-22.4,33-33,54.3-44.8c-12.6-20.1-25.2-40.2-37-61.1c-17.1,10.2-36.6,20.1-58.1,28.8
		C101.3,927.2,57.7,940.5,20.2,924.4L20.2,924.4L20.2,924.4z M667.8,993.3c32.4,16.3,73.4,32,124,28.8c12.2-0.8,20.7-4.8,29.7-9.5
		c-15.6-12.3-32.7-23-44.4-39.2c19.8-10.5,34.4-26.1,44.8-46.1c-29.1,12.5-68,5.2-94.7-3.5c-28-9-52.7-23.7-75.8-36.2
		c0-0.3-0.1-0.5-0.4-0.4c-11.7,20.9-24.6,40.6-37,60.7C635.4,959.7,657.5,970.6,667.8,993.3L667.8,993.3L667.8,993.3z M190.3,982.5
		c-3.8,4.4-9.1,11.8-8.2,19.8c1.3,11.5,15.9,14.7,27.1,15.5c23.6,1.6,46.4-6.7,65-9.9c-12.9-16.6-27.4-35.4-40.5-53.4
		C219.4,962.4,200.8,970.5,190.3,982.5L190.3,982.5L190.3,982.5z M632.1,1019.9c12.4-0.8,27.8-5,28-17.6c0.1-13-11.6-21.1-20.7-28
		c-8.8-6.6-21.3-14-31.4-17.7c-12.4,18.6-26.9,35.1-40,53c8.8,2,19.5,4.4,30.6,6.5C609.4,1018.1,621.5,1020.6,632.1,1019.9
		L632.1,1019.9L632.1,1019.9z M831,1018.2c-20.9,12.4-54.9,15.3-85.3,10.3c-27.8-4.6-54.4-14.5-75.8-24.1
		c-7.3,36.3-58.9,23.3-90.8,16.8c-17.8-3.7-35.5-9.3-53-12.9c-35.6-7.4-77-14.9-119.7-12.9c-35,1.6-69.3,6.8-103.3,14.6
		c-15.3,3.5-31.5,7.6-47.8,11.2c-30.3,6.7-77.7,11.5-83.1-18.5c-39.3,19.3-115.7,39.3-162.3,12.9c-3.4,1.7-7.2,2.8-9.9,5.2
		c11.1,6.8,23.9,11.5,38.3,14.6c15.3,3.4,31.8,2.8,49.5,1.3c32.9-2.8,58.5-13.5,82.7-23.7c7.9,23.6,40.4,24.6,69.3,20.7
		c18.6-2.5,36.6-8,52.5-11.6c35.8-8.2,72.4-14.5,112-16.3c65.4-3.1,116.3,11.3,167.5,24.1c35.3,8.8,86.8,17.7,99.9-15.1
		c22.7,10.5,51,20.6,81.8,24.1c34,3.8,67.1-0.9,87.8-15.9C838.2,1021.1,835.1,1019.2,831,1018.2L831,1018.2L831,1018.2z
		 M595.1,1044.9c-61.4-11.7-116.5-32.8-191.2-29.3c-33.3,1.6-64.4,6.6-95.2,13.4c-30.4,6.7-60.5,16.6-91.7,16.8
		c-16.4,0.1-31.7-3.9-39.6-11.2c-1.4-1.3-2.3-4.6-5.2-4.3c14.7,25.4,32.8,51.3,52.1,73.6c6.4,7.4,14.1,16.2,22.4,19.8
		c19.2,8.5,43.6,0,61.2-4.3c34.3-8.5,69-14.6,111.5-14.6c41.1,0,77.4,7.7,110.2,15.9c11.6,2.9,23.2,7.4,34,8.2
		c22.5,1.7,36.1-6.5,46.9-16.8c10.9-10.4,20.7-24.1,31-37c10.7-13.3,21-27.5,27.1-41.3c-5,2.4-7.2,6.1-11.2,8.2
		C639.6,1051.6,615.4,1048.8,595.1,1044.9L595.1,1044.9L595.1,1044.9z M523.2,1129.3c-36.8-8.6-75.3-16.8-121.4-14.7
		c-23,1.1-46,4.8-66.7,9c-24.2,5-52.4,16.1-77.5,10.3c1.5,3,6,3.9,9.5,5.1c18.6,6.7,39.4,0.4,56.8-3.4c30.3-6.7,65-12.7,101.6-11.2
		c35.6,1.5,68.8,7.2,98.6,14.6c11.1,2.8,21.6,6.1,31.9,6.1c12,0,25.1-3.6,29.3-9.9C564,1142.3,541.6,1133.6,523.2,1129.3
		L523.2,1129.3L523.2,1129.3z M125.7,907.1c23-8.4,43.6-19.9,61.6-31c-2.1-2.1-2.1-6.2-4.7-7.8c-23,14.2-50.3,26.5-80.5,36.2
		c-14.2,4.6-32,8.9-49.1,8.2c-17.4-0.7-32.1-5.2-44.8-12c1.5,3.7,3.2,7.2,4.7,10.7C44.7,930.2,94,918.7,125.7,907.1L125.7,907.1
		L125.7,907.1z"/>
	<path class="st4" d="M229.9,562.9c-6.9,0-13,3-17.3,8.4c-3.3,4.2-5,9.2-5,15.1c0,7.7,2.7,14.2,7.6,18.5c4.1,3.6,8.9,5.4,14.1,5.4
		c5.6,0,10.7-2.1,14.7-6.1c4.5-4.4,6.9-10.7,6.9-17.9c0-6.9-2.3-12.8-6.6-17.3C240.6,565.1,235.7,562.9,229.9,562.9L229.9,562.9
		L229.9,562.9z M230.1,604.8c-4.7,0-8.9-2.5-11.6-6.8c-2.3-3.6-3.4-7.8-3.4-12.4c0-10.1,5.8-17,13.8-17c5,0,9.3,2.7,12.2,7.8
		c1.9,3.2,2.9,7.3,2.9,11.9C243.9,598.1,238,604.8,230.1,604.8L230.1,604.8L230.1,604.8z M279.9,562.9c-6.9,0-13.1,3-17.3,8.4
		c-3.3,4.2-5,9.2-5,15.1c0,7.7,2.7,14.2,7.6,18.5c4.1,3.6,8.9,5.4,14.1,5.4c5.6,0,10.7-2.1,14.7-6.1c4.5-4.4,6.9-10.7,6.9-17.9
		c0-6.9-2.3-12.8-6.6-17.3C290.6,565.1,285.6,562.9,279.9,562.9L279.9,562.9L279.9,562.9z M280.1,604.8c-4.7,0-8.9-2.5-11.6-6.8
		c-2.3-3.6-3.4-7.8-3.4-12.4c0-10.1,5.8-17,13.8-17c5,0,9.3,2.7,12.2,7.8c1.9,3.2,2.9,7.3,2.9,11.9
		C293.9,598.1,288,604.8,280.1,604.8L280.1,604.8L280.1,604.8z M303.2,571.3c4-1.9,8.9-2.6,14.9-2.8v29.3c0,4.4-0.6,8.4-2.1,12.1
		h11.4c-1.5-3.8-2.1-7.7-2.1-12.1v-29.3c5.3,0,9.5,0.7,12.8,2.7l3.1-7.8h-35.9L303.2,571.3L303.2,571.3z M367.1,585.2
		c4.4-2.2,6.8-5.7,6.8-10c0-3.9-2.3-7.5-6.4-9.8c-2.5-1.4-6.5-2-12-2l-8,0c1.5,3.8,2.1,7.7,2.1,12.1v22.3c0,4.4-0.6,8.4-2.1,12.1
		h9.8c12.1,0,18.6-5.2,18.6-12.8C375.8,592.4,372.9,588.4,367.1,585.2L367.1,585.2L367.1,585.2z M356.7,567.8c5.6,0,9.2,3.4,9.2,7.7
		c0,4.8-3.5,8.5-9.2,9.3V567.8L356.7,567.8z M358.3,605.7c-0.5,0-1,0-1.5-0.1v-19.6c6.8,1,11.1,5.7,11.1,10.8
		C367.8,602.1,364.1,605.7,358.3,605.7L358.3,605.7L358.3,605.7z M403.6,562.4l-18.3,36.2c-2.3,4.6-4.6,8.3-7.1,11.4h11.3
		c-0.1-0.4-0.1-0.9-0.1-1.4c0-2.1,0.7-4.3,1.9-6.9l3-6.1h17l3.2,7.3c0.7,1.6,1.3,3,1.3,4.9c0,0.6-0.1,1.3-0.2,2.2h12.1
		c-2.9-3.8-5.1-7.1-6.5-10L403.6,562.4L403.6,562.4z M396.9,590.1l6.2-13.2l5.7,13.2H396.9L396.9,590.1z M442.7,575.5
		c0-4.4,0.6-8.4,2.1-12.1l-11.4,0c1.5,3.8,2.1,7.7,2.1,12.1v22.3c0,4.4-0.6,8.4-2.1,12.1h23.8c1-2.7,2.3-5.5,3.8-8.6
		c-5.1,2.3-11.1,3.6-18.3,4.2V575.5L442.7,575.5z M476.7,575.5c0-4.4,0.6-8.4,2.1-12.1l-11.3,0c1.5,3.8,2.1,7.7,2.1,12.1v22.3
		c0,4.4-0.6,8.4-2.1,12.1h23.8c1-2.7,2.3-5.5,3.8-8.6c-5.1,2.3-11.1,3.6-18.3,4.2V575.5L476.7,575.5z M524.1,587.1
		c0-11.5,6.8-18.6,17.2-18.6c4.9,0,9.5,1.3,13.2,4l0.1-8.2c-4.3-1-8.1-1.5-11.5-1.5c-7.5,0-13.7,2-18.6,5.9
		c-5.7,4.5-8.8,11.1-8.8,18.7c0,7.4,3.1,13.8,8.7,18.1c4.3,3.3,9.4,4.9,15.2,4.9c4.8,0,10.2-1.1,16-3.4l0.2-7.9
		c-4.9,3.7-9.7,5.5-14.8,5.5C530.8,604.6,524.1,597.8,524.1,587.1L524.1,587.1L524.1,587.1z M574.2,575.5c0-4.4,0.6-8.4,2.1-12.1
		l-11.3,0c1.5,3.8,2.1,7.7,2.1,12.1v22.3c0,4.4-0.6,8.4-2.1,12.1h23.8c1-2.7,2.3-5.5,3.8-8.6c-5.1,2.3-11.1,3.6-18.3,4.2V575.5
		L574.2,575.5z M636.2,563.3h-11.3c1.5,3.8,2,7.7,2,12.1v16.2c0,4.3,0,7.4-2.9,10.2c-2.3,2.1-5.2,3.3-8.3,3.3c-4,0-7.5-1.7-9.3-4.6
		c-1.2-1.7-1.3-4.4-1.3-8.2v-16.8c0-4.4,0.5-8.4,2-12.1l-11.3,0c1.5,3.8,2,7.7,2,12.1V593c0,0.4,0,0.9,0,1.4c0,3.2,0.1,6,1.7,8.9
		c1,1.7,2.3,3.1,4.1,4.2c3.1,2,6.5,3,9.8,3c4.5,0,9.3-1.9,14.3-5.7v5.2h8.5c-1.5-3.8-2-7.7-2-12.1v-22.3
		C634.2,571,634.7,567.1,636.2,563.3L636.2,563.3L636.2,563.3z M664.7,585.2c4.4-2.2,6.8-5.7,6.8-10c0-3.9-2.3-7.5-6.4-9.8
		c-2.5-1.4-6.5-2-12-2l-8,0c1.5,3.8,2.1,7.7,2.1,12.1v22.3c0,4.4-0.6,8.4-2.1,12.1h9.8c12.1,0,18.7-5.2,18.7-12.8
		C673.5,592.4,670.6,588.4,664.7,585.2L664.7,585.2L664.7,585.2z M654.4,567.8c5.6,0,9.2,3.4,9.2,7.7c0,4.8-3.5,8.5-9.2,9.3V567.8
		L654.4,567.8z M656,605.7c-0.5,0-1,0-1.6-0.1v-19.6c6.8,1,11.1,5.7,11.1,10.8C665.5,602.1,661.8,605.7,656,605.7L656,605.7
		L656,605.7z M185.7,568c5.3,0,9.4,0.9,12.6,2.8l3.7-7.5h-27.1c1.5,3.8,2.1,7.7,2.1,12.1v22.3c0,4.4-0.6,8.4-2.1,12.1h11.4
		c-1.5-3.8-2.1-7.7-2.1-12.1l0-9.2c4.8,0.2,8.6,0.8,11.5,2.3l4.3-6.8h-15.7V568C184.7,568,185.3,568,185.7,568L185.7,568L185.7,568z
		"/>
	<g>
		<linearGradient id="SVGID_4_" gradientUnits="userSpaceOnUse" x1="32.5368" y1="639.4366" x2="45.118" y2="639.4366">
			<stop  offset="0" style="stop-color:#FFCF89"/>
			<stop  offset="0.8427" style="stop-color:#FFF45A"/>
		</linearGradient>
		<path class="st5" d="M45.1,647.2c0,0-0.7,3.1-3.5,8c-2.9,4.9-3.7,8.5-3.7,8.5l-3.4-7.8l-2-18.4l6.5-22.2l6.1,6.4V647.2L45.1,647.2
			z"/>
		<linearGradient id="SVGID_5_" gradientUnits="userSpaceOnUse" x1="36.6496" y1="770.5146" x2="98.3868" y2="770.5146">
			<stop  offset="0" style="stop-color:#FFCF89"/>
			<stop  offset="0.8427" style="stop-color:#FFF45A"/>
		</linearGradient>
		<path class="st6" d="M58.1,822.9c0,0-11.3,0.1-15.1-0.9c-3.8-1.1-6.4-25.3-6.4-25.3l10.8-38.4l18.4-40.2l12.1,21.8L93,760.8
			l5.4,23.2l-4.9,21.9l-7.3,16.5c0,0-10-0.5-13.5-0.5C69.2,822,58.1,822.9,58.1,822.9L58.1,822.9L58.1,822.9z"/>
		<path class="st4" d="M88.9,595.4c-0.1,9.4-3.1,14.4-3.7,23.8c-0.1,1.5-0.4,2.4-0.2,3.8c-0.2,0.2-0.5,0.5-0.7,0.2
			c-0.8-1.6-1.7-2.3-2.6-3.9c-1.1-1.9-1.6-3-2.3-5.1c-0.7-2-0.9-3.3-1.3-5.4c-0.6-3.2-0.8-6-0.7-8.4c0,0,0.1,0,0.1,0
			c-0.7-3.2,0.1-7.4-0.2-11.1c-0.3-4.6,0.1-8.7-1.2-14c-0.9-3.5-1.7-5.4-3.2-8.6c-0.5-1-1.9-2.8-1.5-3.1c0.6-0.7,1.9,0.3,2.5,0.7
			c10.8,6.1,14.9,16.9,15.2,29.9C89,594.7,88.9,594.9,88.9,595.4L88.9,595.4L88.9,595.4z"/>
		<path class="st4" d="M34.6,587.5c9.7,7.7,14.1,17.9,15.5,31.5c0.6,6.4,0.3,10.2-1.1,16.4c-0.3,1.5-0.5,2.4-1,3.9
			c-0.9,3.1-1.4,5.5-2.7,7.8c-0.3,0.5-0.7,0.7-0.7,0.1c0.1-5.1,0.6-9.4-0.4-15.3c-0.8-4.6-2-7.8-3.4-11.4c-0.2,0.2-0.5,0.6-0.8,1.2
			c-2,5.1-3.2,9.5-3.9,15.8c-1.2,9.9-0.5,17.5,1.9,25.5c0.1,0.8-0.5,1.1-1.3,0.3c-4.7-5.5-7.3-11-9-19c-1.7-7.6-1.5-12.4-0.1-20.1
			c1.6-8.5,4.9-12.7,5.4-21.3c0.4-6.2,0.4-10.7-1.2-15.8c-0.1-0.4,0-0.5,0.3-0.7C33,586.2,34.3,587.3,34.6,587.5L34.6,587.5
			L34.6,587.5z"/>
		<path class="st4" d="M68.8,614.9c16.5,17.6,15.9,35,19.1,58.9c0.5,3.9,0.5,6.8,1.1,10.1c4.3-4.1,9.6-6.9,15.8-6.4
			c0.1,0.5-0.2,0.9-0.5,1.4c-5.8,9.5-5.8,22.1-2.6,32.8c1.5,6,3.9,11.6,6,17.3c1.5,3.9,3.2,7.6,4.4,11.5c3.2,8.7,4.2,18.5,4.6,27.9
			c0,12.8-2.7,26.3-10.4,37c-1.9,2.9-4.1,5.5-6.3,8.3c-3.2,2.7-6,5.5-10,7.2c-1.7,0.8-3.6,2-5.4,1.8c3.2-6.9,7.3-14.5,8.1-22.5
			c0.6-5.2,1.3-9.8,0.6-15c-0.6-11-5.1-21.1-11-30.4c-5.8-7.2-11-14.7-14.4-22.9C65.5,742,62,752.2,56,760.8
			c-1.6,3.3-4.1,5.9-5.5,9.2c-4.7,7.7-8.4,15.7-10.2,24.7c-1.3,9.5-0.4,19.1,4.5,26.9c0.1,0.4-0.4,0.3-0.6,0.5l-0.3-0.2l-0.2,0.3
			c-8.8-1.3-16.1-7.6-21.9-14.5c-10.3-13.4-13.5-30.2-12.3-47C9.4,754,9.9,747.5,9.4,741c-0.7-8.6-2-17.1-5.4-24.8
			c0-0.3,0.4-0.6,0.6-0.6c4.6,1,8.7,3.3,12.6,6.2c4.1,3.1,7.4,6.4,10.2,10.4c-0.4-19.4,6.9-38.3,14.9-55.9
			c3.1-7.2,6.6-14.2,9.8-21.2c6.4-13.9,11.6-28.4,11.4-44.4c0-0.5-0.2-0.7-0.1-1.2C65.6,610.6,66.8,612.7,68.8,614.9L68.8,614.9
			L68.8,614.9z"/>
		<linearGradient id="SVGID_6_" gradientUnits="userSpaceOnUse" x1="19.7649" y1="728.989" x2="107.0626" y2="728.989">
			<stop  offset="0" style="stop-color:#FFCF89"/>
			<stop  offset="0.8427" style="stop-color:#FFF45A"/>
		</linearGradient>
		<path class="st7" d="M70.1,649.3c3.1,17.4,6.5,35,11.9,51.4c2.2,8,5.5,15.7,8.8,23.4c4.4,10.5,9.4,20.3,13.2,31.4
			c4.5,13.4,3.8,29-1.3,42.3c-1.6,3.3-3,6.6-5.1,9.5c-0.1-1.9,0.9-3.4,1.4-5.6c3.5-16.3,2.6-26.8-2.5-42.6
			c-1.9-5.8-3.4-8.8-6.2-14.3c-2.6-5.2-4.3-8.1-7.5-12.9c-0.5-0.8-0.8-1.2-1.3-2c-1.8-2.6-2.9-4.1-4.4-6.9c-1.8-3.2-2.6-5.1-3.9-8.4
			c-3-7.6-4.9-13.3-4.7-20.3c-0.1-0.3-0.6-0.2-0.8-0.1c-5.8,5.9-8.7,13.4-10.8,21c-1.3,6.2-3,12.3-4.6,18.5
			c-2.9,9.7-7.5,18.9-11.9,28c-6.5,14.2-10.4,30.6-7.4,46.9c-0.1-0.1-0.1-0.3-0.2-0.4c-0.1,0-0.3,0-0.4,0c-3.4-3.9-6-8.3-7.8-12.9
			c-2.2-5.2-3.3-10.8-4.1-16.6c-1.5-11.1-0.2-22.4,2.2-33.4c2.7,1.9,4.4,4.6,6.4,6.9c1.2,1.6,1.8,3.4,3,4.9c0.3,0,0.6,0,0.8-0.3
			c0.9-14.4,5.6-26.9,10.4-39.7c2.5-5.6,4.7-11.7,7.6-17.3c2.8-6.4,5.9-12.1,8.9-18.2C64.2,671.3,68.5,660.4,70.1,649.3L70.1,649.3
			L70.1,649.3z"/>
		<path class="st4" d="M69.4,759.2c11.8,10,15.7,26.6,13.8,41.4c-1.1,4.8-2.3,9.2-4.4,13.6c-1.6,3.4-3.6,6.2-6.8,8.3
			c-0.2-0.5-1-0.8-0.4-1.4c2-4.1,2.8-9,3.3-13.7c-0.1-6.9-1.5-13.3-5.3-18.6c-0.4-0.6-0.8-1.1-1.4-1.4c-0.8,5-3.9,9.5-6,14.1
			c-1.1,2.6-2.3,5.1-2.9,7.9c-0.9,3-0.5,6.6-0.4,9.7c0.5,1.1,0.6,2.2,0.6,3.2c-1.7,0.3-2.5-1.4-3.8-2.7c-1.3-1.3-1.9-2.2-2.8-3.9
			c-3.2-5.5-3.2-9.8-2.6-16.2c0.2-2.4,0.5-3.8,1.1-6.1c1.7-6.8,4.4-10.1,8-16.1c3.6-6.1,7.2-8.5,8.6-15.1c0.3-1.3,0.5-3.4,0.5-3.4
			C69,758.3,69.1,759,69.4,759.2L69.4,759.2L69.4,759.2z"/>
	</g>
	<linearGradient id="SVGID_7_" gradientUnits="userSpaceOnUse" x1="44.3614" y1="167.8767" x2="803.4732" y2="167.8767">
		<stop  offset="0" style="stop-color:#005B54"/>
		<stop  offset="6.607613e-02" style="stop-color:#006B61"/>
		<stop  offset="0.2023" style="stop-color:#008976"/>
		<stop  offset="0.3257" style="stop-color:#009E83"/>
		<stop  offset="0.431" style="stop-color:#00AB8A"/>
		<stop  offset="0.5056" style="stop-color:#00B18E"/>
		<stop  offset="0.6042" style="stop-color:#00AD8C"/>
		<stop  offset="0.6934" style="stop-color:#00A587"/>
		<stop  offset="0.779" style="stop-color:#009980"/>
		<stop  offset="0.8623" style="stop-color:#008774"/>
		<stop  offset="0.9433" style="stop-color:#006F63"/>
		<stop  offset="1" style="stop-color:#005B54"/>
	</linearGradient>
	<path class="st8" d="M425.9,121.9c-0.9-1.4-1.4-4.2-1.5-6.1c0.8,0.2,1.6,0.3,2.4,0.4c0.7,1.7,0.9,3.7,0.3,5.5
		c0,0.1-0.1,0.2-0.1,0.3c0.4-0.2,0.9-0.4,1.1-0.8c0.3-0.2,0.4-0.4,0.7-0.6c0.5,3.2,1.3,6.4,2.7,9.3c0.1,0.4,0.6,0.8,0.4,1.3
		c-0.1,0.1-0.2,0.2-0.4,0.2c-0.2,0-0.4,0-0.6-0.1c-0.5-0.1-1-0.3-1.5-0.5c-0.7-0.1-1.8-0.5-2.4,0.2c-0.1,0.2-0.1,0.4,0,0.6
		c-0.2,0-0.5,0-0.7,0c-0.6,0-1,0.3-1.2,0.8c-0.1,0.2-0.1,0.6,0,0.8c0.1,0.1,0.3,0.2,0.4,0.2c0,0,0.1-0.1,0.1-0.2
		c0.3-0.7,1-0.7,1.7-0.8c0,0,0.1,0.1,0.1,0.1c-0.2,0.2-0.4,0.3-0.6,0.4c-0.2,0.3-0.3,0.6-0.1,0.9c0.1,0.3,0.4,0.5,0.7,0.5
		c0.1,0,0.1,0.1,0.2,0c0-0.2,0.1-0.5,0.3-0.7c0.8-0.7,1.8-0.8,2.8-0.9c1.9-0.2,4.1-0.2,5.9,0.2c0.4,0.1,0.4,0.1,0.6,0.2
		c0.3,0.1,0.5,0.3,0.6,0.6c0.2,0,0.3,0,0.4-0.1c0.4-0.3,0.8-0.8,0.7-1.3c-0.1-0.1-0.1-0.2-0.3-0.4c-0.7-0.5-1.6-0.5-2.5-0.4
		c-0.6,0-1.3,0-1.8-0.3c-0.7-0.5-0.7-1.4-1.1-2.1c-0.8-2.7-1.3-5.4-1.5-8.3c0.6,0.5,1.3,0.7,2,0.8c0.4,0.1,0.8,0.1,1-0.2
		c-0.3-0.3-0.8-0.6-1.1-0.9c-1.7-1.9-2.4-4.6-1.9-7.2c0.9-0.2,0.9-0.5,1.9,0.7c0.5,0.7,0.8,1.4,1.1,2.1c0.4,1.2,0.6,2.6,0.5,3.9
		c0,0,0.1,0.1,0.2,0.1c0.2-0.1,0.2-0.4,0.3-0.6c0.7-2.7,0-5.6-1.5-7.8c-1.3-1.7-3-2.9-4.5-4.2c3,2,6.6,4.3,8,6.4
		c0.9,1.3,1.4,2.1,1.9,3.6c1,2.8,1.1,5.1,0.4,7.6c0,0.2-0.1,0.3-0.1,0.5c0.3,0.1,0.4-0.3,0.5-0.4c0.7-1.1,1.4-2.3,1.8-3.6
		c1.1-3.3,0.5-7.1-1.8-9.6c-1.7-2-4.2-3.5-6.7-4.7c0.4,0,0.7,0,1.1,0c1.4-0.2,2.6-0.8,3.6-1.8c1-0.8,0.7-1.8,1.4-2.9
		c1.1-1.8,2.1-2.6,3.1-4.5c0.9-1.7,1.1-2.7,1.8-4.5c0.9-2.3,1.7-3.4,2.3-5.8c0.3-1.3,0.1-2,0.5-3.3c0.6-1.5,1.6-2,2.3-3.5
		c1.1-2.4,1.5-4.1,1.1-6.8c-0.1-1.1-0.6-2.7-0.9-3.4c-0.1-0.9-0.5-1.9-1.1-2.6c-0.1-0.1-0.2-0.2-0.4-0.2c-0.1,0-0.1,0.1-0.1,0.2
		c0.1,0.7-0.1,1.3-0.2,1.9c-0.1,0.8-0.4,1.6-0.6,2.4c-0.8,2.6-1.9,5-3.4,7.3c0-0.5,0-1.2,0-1.7c-0.1-0.9-0.3-1.4-0.5-2.4
		c-0.2-0.7-0.2-1.1-0.5-1.8c-0.7-1.4-2.7-2.8-2.7-2.7c-0.2-0.2-0.5-0.3-0.8-0.2c-0.1,0-0.1,0.1-0.1,0.2c0.6,0.9,0.7,2.2,0.5,3.2
		c-0.7,2.6-2.2,4.9-4,7c-2.3,2.9-5.3,5-8,7.5c-0.4,0.4-0.8,0.7-1.1,1.1c-1.1,1.1-1.8,2.5-2.2,3.9c-0.5,1.5-0.8,3.1-1.2,4.6
		c-0.1,0.4-0.3,0.7-0.4,1c-0.2,0.3-0.4,0.6-0.8,0.6c-0.4-0.1-0.6-0.5-0.6-0.9c-0.7-3,0.8-5.7,2.6-7.9c1.2-1.5,2.7-2.9,3.7-4.5
		c0.6-1,0.8-2.6,0.2-3.6c-0.2-0.5-0.7-0.9-1.1-1.1c-0.1,0-0.1-0.1,0-0.1c0.4-0.1,0.7,0.1,1.1,0.1c0.9,0.1,1.9,0,2.7-0.4
		c0.5-0.3,1.1-0.6,1.3-1.2c0.1-0.2,0.1-0.5-0.1-0.7c-0.2-0.1-0.1,0.2-0.2,0.3c-0.4,0.4-1,0.6-1.7,0.6c-1.5-0.1-2.8-0.6-4.2-1.1
		c-1-0.3-1.9-0.6-3-0.8c-1.1-0.1-2.5-0.4-3.2,0.6c-0.2,0.3-0.1,0.5,0,0.8c-0.6,0.1-1.2,0.1-1.9,0.1c-0.1-0.4-0.3-0.9-0.5-1.3
		c-0.4,0.1-0.7,0.2-1.1,0.2c0.3,0.4,0.5,0.8,0.6,1.3c-0.9,0.3-1.8,0.6-2.3,1.4c-0.1,0.2-0.3,0.5-0.3,0.8c0.8-0.4,1.7-0.6,2.7-0.7
		c0,0.5-0.1,1-0.3,1.4c-0.4,0.1-0.8,0-1.2,0.1c0,0.1,0,0.1,0,0.2c0,0.5,0.6,0.4,0.9,0.6c-0.2,0.5-0.5,1-0.9,1.4
		c-0.4-0.3-0.8-0.6-1.3-0.6c-1-0.1-1.7,0.7-2.6,0.9c-0.2,0.1-0.4-0.1-0.6-0.1c0,0.2,0.1,0.5,0.3,0.6c0.2,0.1,0.3,0.2,0.5,0.2
		c0.2,0.1,0.6,0.1,0.9,0.1c0.7,0,1.1-0.5,1.8-0.7c0.3-0.1,0.5-0.2,0.8-0.1c0,0.2-0.2,0.3-0.4,0.4c-0.9,0.6-1.9,0.9-2.4,1.8
		c-0.1,0.4-0.2,0.8,0,1.2c0.3,0.4,0.8,0.7,1.3,0.6c0-0.1,0-0.1-0.1-0.2c-0.2-0.7,0.5-1.1,1-1.5c0.3-0.3,0.5-0.8,0.3-1.3
		c0.3-0.2,0.6-0.4,0.9-0.6c0.2,0.4,0.4,0.9,0.8,1.2c0.4,0.4,1.1,0.5,1.7,0.3c0.6-0.3,1.4-1,1.3-1.8c-0.3,0.3-0.8,0.6-1.2,0.6
		c-0.2-0.2-0.4-0.4-0.6-0.6c-0.4-0.3-1-0.4-1.5-0.3c0.4-0.5,0.8-1.1,1.1-1.7c0.8-0.1,1.5-0.2,2.4-0.4c1-0.2,2.2-0.2,2.8,0.7
		c0.1,0.1,0.2,0.4,0.3,0.6c0.4,1.2-0.3,2.3-1.1,3.2c-2.9,2.9-6.7,4.9-9.1,8.5c-0.4,0.5-0.8,1.1-1,1.8c-1.5,2.8-1.6,6.7-0.1,9.5
		c1.4,2.9,4.4,4.9,7.2,6c0.3,0.1,0.6,0.2,0.8,0.3c-0.1,2-0.6,4.9-1.4,6.6c1.1,0,2-0.8,2.8-1.4c-0.3,1.3-0.7,2.2-1.3,3.6
		c-1.2,2.8-2.4,4.6-3.7,6.8c-0.2,0.4-0.5,0.8-1,1c-1.3,0.4-2.2-0.7-3.5-0.6c-0.6,0.1-0.8,0.2-1,0.4c-0.1,0.2-0.1,0.4,0,0.6
		c-0.7-0.1-1.5-0.1-2,0.4c-0.2,0.2-0.4,0.6-0.3,0.9c0.1,0.2,0.2,0.4,0.5,0.5c0.3-0.6,0.9-0.8,1.5-1c0.3,0,0.5-0.1,0.8,0
		c0,0,0,0.1,0,0.1c-0.3,0.1-0.5,0.3-0.7,0.5c-0.2,0.2-0.4,0.6-0.3,0.9c0.2,0.4,0.6,0.6,1.1,0.5c0,0,0-0.1,0-0.1
		c-0.1-0.5,0.4-0.7,0.8-0.9c1.2-0.4,2.6-0.4,3.9-0.4c1.1,0,2.2,0,3.3,0.1c0.7,0.1,1.3,0.2,1.8,0.6c0.1,0.1,0.1,0.3,0,0.4
		c0.1,0.1,0.3,0,0.5-0.2c0.4-0.3,0.5-0.7,0.5-1.1c0-0.4-0.4-0.7-0.8-0.8c-0.1,0-0.1,0-0.2-0.1c-0.8-0.3-1.7-0.1-2.6-0.1
		c-0.3,0-0.6,0-0.7-0.3c-0.1-0.2,0-0.3,0.1-0.5c1.5-2.2,3.2-4.3,4.7-6.5c0.7-1.1,1.2-2.4,1.2-3.6c0.5,0.5,1.1,0.9,1.7,1.2
		C425.5,121.9,425.7,122,425.9,121.9L425.9,121.9L425.9,121.9z M430.6,254.5v-38.3c0.1-0.1,0.3-0.1,0.5,0.1
		c2.7,11.4,9.3,23.6,20.6,29.1c1.6,0.8,3.2,1.1,4.8,1.8c2.1,0.3,4.4,0.8,6.6,0.6c11.8,0,21.6-10.5,26.2-20.6
		c1.6-3.6,2.9-7.4,3.8-11.4h0c1.4-6.2,1.8-12.7,1.5-19.3c-0.4-3-0.9-6-1.6-8.9c-1.9-6.8-4.3-13.3-8.8-19.1c-0.5-0.8-1.3-1.3-1.6-2.2
		c-2.6-2.4-5.7-5.3-8.9-6.8c-6-3-13.2-3.9-19.6-1.4c-4.8,1.8-9.2,5.2-12.8,9.3c-3.2,4-5.5,8.5-7.5,12.9c-0.7,2.8-2.1,5.4-2.7,8.3
		c-0.2,0.1-0.6,0-0.8-0.1c-0.1-10.2,0-17.8,0-30.2c3.1-2.5,6.1-4.8,9.5-7.7c11.9-9.7,21.6-21.7,29.6-34.8c0.4,0,0.6,0.3,0.7,0.5
		c0,0,0,1.6,0,2.6c0.2,2,0.4,3.1,1.1,5c0.4,1.1,1.2,2.8,1.2,2.8s2.1,3.6,3.9,5.7c1.4,1.7,2.4,2.5,3.9,4c2.4,2.3,4.2,3.2,6.6,5.5
		c1.7,1.6,2.7,2.4,4.1,4.3c2,2.7,3,4.4,3.7,7.7c0.2,1,0.3,1.5,0.3,2.5c-0.1,1.4-0.4,2.3-0.8,3.5c0.4,0.3,3.4,0.6,4.3,0.2
		c0,0,1.1-0.5,1.8-1c0.6-0.4,0.8-0.7,1.3-1.2c0.7-0.8,1.1-1.4,1.5-2.4c0.3-0.8,0.5-1.2,0.5-2.1c0.1-0.9,0.1-1.4,0-2.3
		c-0.1-0.6-0.4-1.1-0.5-1.6c2.2,0.9,3.9,1.5,6.6,2.1c3.2,0.7,5.7,0.7,8.5,0.7c-2.3,2.8-4.6,5.1-7.1,8.6c-1.2,1.7-1.9,2.7-3,4.6
		c-1.5,2.6-2.1,4.2-3.1,7c-0.7,1.8-1,2.8-1.5,4.6c-0.8,3.2-1.2,5-1.6,8.3c-0.2,2.1-0.3,3.3-0.4,5.4c0,2,0,3.1,0.1,5.1
		c0.2,2.3,0.4,3.5,0.8,5.7c0.6,3.4,1.1,5.3,2.3,8.6c0.5,1.5,0.9,2.3,1.5,3.7c0.9,2.1,1.4,3.3,2.6,5.3c0.9,1.5,1.4,2.3,2.4,3.7
		c2,2.9,3.2,4.4,5.6,6.9c1.3,1.4,2.1,2.1,3.5,3.4c1.6,1.4,2.5,2.3,4.3,3.5c1.9,1.4,3.1,2,5.2,3.2c1.3,0.7,2.1,1.1,3.5,1.8
		c2,0.9,3.2,1.4,5.3,2.1c3.1,1.1,4.8,1.6,8,2.2c3.5,0.7,5.5,0.7,9.1,0.8c2.6,0.1,4.1,0.1,6.6-0.1c2.9-0.1,4.6-0.2,7.5-0.7
		c2.2-0.4,3.3-0.6,5.5-1.1c4.5-1,7.1-1.8,11.5-3.2c7.2-2.4,9.5-3.6,16.6-5.8c4.9-1.6,7.7-2.2,12.8-3c2.3-0.4,3.6-0.6,5.9-0.8
		c4-0.3,6.3-0.5,10.3-0.1c4.2,0.3,6.6,0.7,10.6,1.9c4.4,1.4,9.4,4.3,10.7,4.9c0.1-1.5,0-2.9-0.5-4.6c-0.3-1-0.5-1.6-1-2.5
		c-0.5-0.9-0.8-1.4-1.5-2.2c-0.7-0.9-1.2-1.4-2-2.2c-0.9-0.8-1.5-1.2-2.5-1.8c-1.2-0.7-1.9-1-3.1-1.6c-2.4-1.1-4.1-1.5-6.4-2.1
		c2-1.5,3.7-2.4,6.2-3.8c5.5-3,8.5-4.3,14.2-6.5c3.5-1.4,5.5-2,9-3.1c3.4-1.1,5.3-1.8,8.8-2.6c2.9-0.7,4.5-1.1,7.4-1.5
		c2.2-0.3,3.4-0.4,5.5-0.5c2.8-0.2,4.4-0.3,7.1,0c2.9,0.3,4.4,0.6,7.2,1.4c2,0.6,3.1,1,5,1.9c2.2,1,3.4,1.8,5.4,3.3
		c0.9,0.7,1.5,1.1,2.3,1.9c1.1,1.1,1.5,1.8,2.3,3.1c0.6,0.9,0.9,1.4,1.3,2.4c0.5,0.9,0.7,1.5,1,2.5c0.5,1.8,0.7,2.9,0.7,4.8
		c0,1.2,0,1.9-0.3,3.1c-0.3,1.5-0.7,2.4-1.5,3.7c-0.9,1.5-1.6,2.2-2.8,3.3c-1.2,1.1-2,1.7-3.4,2.4c-1,0.5-1.6,0.8-2.7,1.2
		c-2,0.7-3.2,0.9-5.2,1c-2,0-3.2-0.2-5-0.8c-1.2-0.3-1.9-0.6-3-1.2c-0.7-0.4-1.1-0.7-1.7-1.1c0.8-0.6,1.5-1.1,2.3-1.9
		c0.6-0.7,0.9-1.1,1.3-1.9c0.4-0.9,0.6-1.5,0.7-2.4c0.1-0.8,0.1-1.2,0-1.9c-0.1-0.8-0.2-1.3-0.5-2.1c-0.4-0.9-0.7-1.3-1.3-2
		c-0.8-1.1-1.3-1.8-2.6-2.4c-0.9-0.5-1.5-0.5-2.5-0.6c-1-0.1-1.6-0.1-2.7,0c-0.9,0.1-1.4,0.2-2.2,0.6c-0.6,0.2-0.9,0.4-1.5,0.8
		c-0.9,0.6-1.4,0.9-2.1,1.7c-0.5,0.6-0.8,1-1.1,1.8c-0.3,0.7-0.3,1.1-0.5,1.8c-0.3,1.7-0.4,2.7-0.1,4.4c0.2,1.2,0.4,1.9,0.9,3
		c0.4,0.8,0.6,1.3,1.1,2.1c0.7,1,1.1,1.6,1.9,2.5c0.9,1,1.4,1.5,2.4,2.3c1,0.8,1.6,1.3,2.7,1.9c2.3,1.4,3.8,1.9,6.4,2.6
		c1.3,0.4,2,0.5,3.3,0.7c1.5,0.2,2.3,0.3,3.8,0.3c1.4,0,2.2-0.1,3.6-0.2c1.6-0.2,2.6-0.2,4.1-0.7c1.4-0.4,2.2-0.8,3.5-1.4
		c1.2-0.6,1.9-0.9,3.1-1.6c1.2-0.7,1.9-1.2,3-2.1c1.2-1,1.8-1.6,2.8-2.8c0.8-1,1.2-1.8,1.8-2.9c0.7-1.4,1.1-2.2,1.6-3.6
		c0.4-1.1,0.6-1.7,0.8-2.8c0.4-1.7,0.5-2.7,0.6-4.5c0-1.3,0-2.1-0.2-3.4c-0.3-2.4-0.6-3.7-1.4-5.9c-0.4-1.1-0.7-1.7-1.3-2.7
		c-1-1.8-1.6-2.8-2.9-4.5c-1-1.3-1.7-2-2.9-3.2c-1.1-1-1.8-1.5-3-2.4c-1.2-0.9-1.9-1.4-3.2-2.1c-2.1-1.3-3.4-1.9-5.8-2.8
		c-1.7-0.6-2.6-0.9-4.4-1.2c-1.8-0.4-2.8-0.5-4.7-0.7c-3.3-0.4-5.2-0.6-8.5-0.6c-3,0-4.6,0.1-7.6,0.3c-2.5,0.2-4,0.5-6.5,0.9
		c-2.5,0.4-3.9,0.7-6.4,1.4c-3.7,1-5.7,1.8-9.3,3.2c-5.9,2.1-9.2,3.4-14.9,6c-4.1,1.8-6.4,2.9-10.4,5.1c-2.5,1.4-4.1,2.4-6.3,3.6
		c0.2-1.3,0.4-1.9,0.4-3.1c0-0.7,0-1.1-0.2-1.8c-0.3-1.2-0.6-1.9-1.3-2.9c-0.5-0.6-0.9-0.9-1.6-1.4c-0.6-0.5-1-0.6-1.8-0.9
		c-1.3-0.4-3.3-0.6-3.3-0.6c0,0,0.2,0.5,0.3,0.8c0.4,1.4,0.1,2.2-0.1,3.6c-0.2,1.1-0.3,1.7-0.7,2.8c-0.3,0.8-0.5,1.3-1,2
		c-0.5,0.9-0.9,1.3-1.6,2c-1.1,1.2-1.9,1.6-3.2,2.5c-1.5,1-2.3,1.6-3.8,2.5c-3.6,2.1-5.8,2.9-9.7,4.5c-5.6,2.4-9.4,3.7-14.6,5.1
		c1.3-2.2,2.5-3.6,3.6-6.2c0.6-1.4,1-2.1,1.4-3.6c0.6-1.9,0.7-3,0.9-5c0.2-2.6,0.2-4.1-0.3-6.6c-0.4-2.4-0.9-3.8-1.9-6
		c-0.5-1.2-0.8-1.8-1.5-2.8c-0.7-1.3-1.1-1.9-2.1-3c-0.8-1.1-1.3-1.6-2.3-2.5c-2.2-2-3.6-2.9-6.2-4.3c-1.1-0.6-1.7-0.8-2.8-1.2
		c-3.1-1.2-5-1.6-8.3-1.7c-1.6-0.1-2.4-0.1-4,0.1c-1.5,0.1-2.4,0.3-3.8,0.6c-1.3,0.3-2.1,0.6-3.4,1.1c-1.6,0.7-2.5,1.1-3.9,2.2
		c-0.7,0.5-1.2,0.8-1.8,1.5c-0.7,0.7-1.1,1.2-1.5,2.1c-0.9,1.4-1.2,2.4-1.4,4c-0.1,0.8-0.1,1.3,0,2.1c0.2,1.6,0.5,2.5,1.3,3.9
		c0.7,1.4,1.2,2.3,2.3,3.3c0.7,0.6,1.1,0.9,1.9,1.4c0.7,0.4,1,0.5,1.7,0.8c1.1,0.4,1.8,0.5,3,0.6c0.9,0.1,1.4,0.1,2.2-0.1
		c1-0.2,1.6-0.4,2.5-0.8c0.8-0.4,1.2-0.7,1.9-1.3c0.7-0.6,1-1,1.5-1.8c0.4-0.7,0.6-1.1,0.9-1.9c0.2-0.7,0.2-1.2,0.3-1.9
		c0-0.8,0-1.3-0.2-2.1c-0.2-0.7-0.3-1.1-0.7-1.8c-0.4-0.7-0.7-1-1.3-1.5c-0.9-0.9-1.7-1.5-2.8-1.8c-0.3-0.3,0.3-0.4,0.5-0.5
		c0.6-0.5,1.3-0.3,2.1-0.4c1.4-0.2,2.3-0.1,3.7,0.1c2.4,0.4,3.7,1,5.9,2.3c1.2,0.7,1.9,1.2,3,2.2c1.2,1.1,1.9,1.8,2.9,3.1
		c0.7,0.9,1,1.4,1.5,2.4c0.6,1.2,0.8,2,1.2,3.3c0.3,1.2,0.4,1.9,0.5,3.1c0.2,1.9,0.1,3.1-0.2,5c-0.2,1.4-0.4,2.1-0.8,3.4
		c-1.2,3.5-2.4,5.5-5.1,8c-0.9,0.8-1.4,1.3-2.4,1.9c-1.2,0.8-1.9,1.2-3.2,1.8c-1.7,0.8-2.7,1.1-4.6,1.5c-1,0.2-1.6,0.2-2.6,0.3
		c-1.8,0.1-2.8,0.1-4.6-0.1c-1.9-0.2-3-0.3-4.8-0.9c-1.7-0.5-2.7-1-4.2-1.9c-1.8-1-2.8-1.6-4.2-3c-1.3-1.4-1.9-2.4-2.7-4.1
		c-0.4-0.8-0.6-1.2-0.8-2.1c-0.4-1.9,0-3.4,0.3-5c-0.7,0.2-1.5,0.3-2.3,0.6c-0.7,0.3-1.1,0.5-1.7,0.9c-1,0.6-1.4,1.1-2.2,2
		c-0.8,0.9-1.2,1.5-1.8,2.6c-0.7,1.4-0.8,2.4-1.3,3.8c-1.5-0.6-3-1.3-4.5-2.6c-1.1-0.9-1.6-1.5-2.5-2.6c-0.8-1-1.3-1.6-1.9-2.6
		c-2.5-3.9-3.3-6.6-4.1-11.1c-0.2-1-0.3-1.6-0.3-2.7c-0.1-2-0.1-3.1,0.1-5c0.2-1.5,0.3-2.4,0.7-3.9c0.5-2.1,0.8-3.3,1.7-5.2
		c0.8-1.5,1.3-2.4,2.4-3.7c0.7-0.9,1.2-1.3,2.1-2.1c0.8-0.7,1.2-1.1,2.1-1.7c0.9-0.5,1.4-0.8,2.4-1.2c1-0.4,1.5-0.5,2.5-0.6
		c0.8-0.1,1.3-0.1,2.2-0.1c1.3,0.1,2.1,0.2,3.4,0.6c2,0.6,3.1,1.4,4.6,2.4c0.1-0.1,0.2-0.3,0.4-0.5c0.9-1.5,0.6-2.6,0.7-4.3
		c0.1-1.3,0.1-2,0-3.3c-0.2-1.8-0.5-2.8-1.2-4.5c-0.4-0.8-0.6-1.3-1.1-2.1c-0.7-1.1-1.2-1.7-2.2-2.6c-0.7-0.7-1.2-1-2-1.5
		c-1.5-0.9-2.8-1.5-4.1-1.9c0.1-0.3,0.3-0.6,0.5-1c0.8-1.4,1.5-1.9,2.6-3c2.2-2.2,3.6-3.2,6.3-4.7c1.9-1.1,3.1-1.7,5.1-2.5
		c1.6-0.6,2.4-0.9,4.1-1.4c2.3-0.7,3.6-1,5.9-1.3c2.8-0.4,4.5-0.5,7.3-0.3c1.7,0.1,2.6,0.2,4.2,0.6c2.5,0.5,3.9,0.9,6.2,1.9
		c2.2,1,3.3,1.7,5.2,3c1,0.8,1.6,1.2,2.6,2.1c1.3,1.2,2,2,3,3.5c1.1,1.6,1.7,2.6,2.5,4.4c0.8,2,1.2,3.2,1.4,5.3
		c0.3,1.8,0.3,2.9,0.1,4.8c-0.1,1.1-0.2,1.6-0.5,2.7c-0.3,1.5-0.7,2.4-1.2,3.6c0,0,2.1,0.5,3.5,0.4c1.1-0.1,1.7-0.3,2.8-0.6
		c1.3-0.4,2-0.7,3.2-1.5c1.3-0.8,2-1.3,3.1-2.4c1.6-1.5,2.3-2.6,3.4-4.5c0.6-1,0.9-1.6,1.3-2.7c0.7-1.6,1-2.9,1.6-4.2
		c1.3,1.1,1.8,2,2.6,3.3c0.7,1.1,1.1,1.8,1.6,3c1,2.1,1.4,3.3,1.9,5.5c0.7,2.7,0.9,4.2,1.1,7c0.1,1.6,0.1,2.5,0.1,4.1
		c0,3.4-0.5,5.9-0.8,8.8l0.4,0.3c1,0.3,2.2,0,3.4-0.5c1.3-0.7,1.6-1,2.6-1.7c1-0.8,1.6-1.4,2.5-2.4c1-1.2,1.4-1.9,2.2-3.2
		c0.6-1,0.9-1.7,1.4-2.8c1.2-2.6,1.7-4.7,2.3-7.1c1.3,1.2,2.2,2.5,3.7,3.9c1.2,1.2,2,1.8,3.3,2.9c2.2,1.7,3.7,2.8,5.9,3.9
		c0.7-1,1-2,1.5-3.3c0.7-2.1,0.9-3.4,1.1-5.7c0.1-1.5,0.3-2.7,0.1-3.9l0.3-0.3c0.9,0.5,1,0.6,1,0.6c1.6,1.1,2.8,2.2,4.8,3.3
		c0.8,0.5,1.3,0.8,2.2,1.2c1.1,0.5,1.7,0.7,2.8,1c3.9,1.1,7,1,10.4,1c25.3,0,50.5,0,75.4,0c-1.4,3.4-2.1,5-2.9,8.4
		c-0.5,2.2-0.7,3.4-1,5.6c-0.3,1.9-0.4,3-0.5,4.9c-0.2,2.9-0.2,4.6,0.1,7.5c0.2,2.4,0.5,3.7,1,6c0.7,3.5,1.3,5.5,2.5,8.8
		c0.5,1.5,0.8,2.3,1.5,3.7c0.7,1.6,1.2,2.4,2.1,3.9c0.7,1.2,1.2,1.9,2,3c0.8,1.1,1.4,1.7,2.3,2.6c1,1,1.6,1.5,2.6,2.3
		c1.1,0.8,1.8,1.3,3,2c1.8,1,2.9,1.5,5,2c1.3,0.3,2,0.3,3.3,0.4c1.6,0.1,2.4,0.2,4-0.1c1.4-0.2,2.2-0.3,3.5-0.8
		c0.9-0.3,1.4-0.6,2.3-1c1.2-0.7,1.9-1.1,2.9-2c0.8-0.7,1.2-1.1,1.8-1.9c0.5-0.7,0.8-1.1,1.2-1.9c0.4-0.9,0.6-1.5,0.8-2.5
		c0.3-1.1,0.4-1.8,0.5-3c0.1-1.7-0.2-2.7-0.6-4.4c-0.3-1.1-0.5-1.7-1-2.8c-0.6-1.2-1.1-1.8-2.1-2.8c-0.7-0.7-1.1-1-1.9-1.6
		c-0.8-0.6-1.3-0.9-2.2-1.2c-1.1-0.4-1.7-0.6-2.9-0.7c-1.6-0.2-2.7-0.3-4.2,0.5c-0.9,0.4-1.5,0.8-2,1.6l0.1,0.5
		c1.3,0.4,2.1,0.6,3.3,1.3c1.1,0.6,1.8,0.9,2.6,1.9c0.8,0.9,1.1,1.5,1.6,2.6c0.3,0.7,0.4,1.1,0.6,1.8c0.1,0.6,0.1,0.9,0.1,1.5
		c0,0.8,0,1.3-0.3,2.2c-0.2,0.7-0.4,1.1-0.8,1.7c-0.4,0.5-0.6,0.9-1.1,1.3c-0.5,0.5-0.9,0.7-1.6,1c-1.2,0.6-2,0.8-3.3,0.9
		c-0.9,0-1.4-0.1-2.2-0.2c-1.1-0.2-1.6-0.4-2.6-0.8c-1.2-0.5-1.9-0.9-2.9-1.6c-1.9-1.5-2.6-2.8-3.9-4.8c-0.7-1.1-1-1.7-1.6-2.8
		c-1-1.9-1.5-3.1-2.2-5.2c-0.5-1.6-0.8-2.5-1.2-4.1c-0.4-1.8-0.7-4.7-0.7-4.7s-0.4-4.5-0.4-7.4c0.1-3.8,0.1-6,1.1-9.7
		c0.4-1.9,0.8-3,1.5-4.9c0.7-1.8,1-2.8,1.9-4.6c1.4-2.7,2.3-4.2,4.4-6.3c1.7-1.8,3.1-2.9,4.8-4.1c0-0.2-0.1-0.2-0.3-0.2
		c-15.3,0.1-30.7,0-46,0c-1-1-1.5-1.9-2.3-3.3c-0.6-1.1-0.8-1.7-1.2-2.8c-0.7-2.1-0.8-3.4-0.8-5.7c-0.1-2.3,0-3.7,0.4-5.9
		c0.3-1.3,0.4-2.1,0.8-3.3c0.6-1.6,0.9-2.5,1.9-3.8c0.7-0.9,1.1-1.5,2-2.2c0.9-0.8,1.6-1.1,2.7-1.5c0.8-0.3,1.3-0.5,2.2-0.6
		c0.8-0.1,1.3-0.1,2.2,0.1c0.7,0.1,1,0.3,1.7,0.6c0.6,0.3,0.8,0.5,1.3,1c0.8,0.7,1.2,1.1,1.5,2.1c0.3,1.1,0.1,1.8-0.2,2.9
		c-0.3,0.7-0.5,1.2-1.1,1.8c-0.7,0.6-1.3,0.9-2.2,1c-1.2,0.1-2.1-0.5-3.1-1c-0.1-0.2-1.1-0.7-1.4-0.3c0.1,1.2,0.4,2.1,1.2,3.3
		c0.6,1,1,1.5,2,2.2c0.7,0.5,1.2,0.6,2,0.9c1,0.3,1.6,0.4,2.7,0.4c1.6,0,2.5-0.2,4-0.9c1.3-0.6,2-1.1,2.9-2.2c0.7-0.7,1-1.2,1.4-2.1
		c0.5-1.2,0.5-2.2,0.7-3.2c0.1-1.4,0.2-2.5-0.1-4c-0.3-1.7-0.7-2.7-1.6-4.2c-0.5-0.9-1-1.3-1.7-2c-0.7-0.8-1.1-1.2-2-1.9
		c-1.2-0.8-2-1.1-3.3-1.6c-1.3-0.5-2.2-0.7-3.6-0.8c-1.9-0.1-3.1,0.1-4.9,0.7c-1.2,0.3-1.8,0.6-2.9,1.1c-1.9,0.9-3.1,1.9-4.4,3
		c0.3-3.2,0.7-5.9,0.6-9.7c-0.1-3.3-0.2-5.3-0.9-8.5c-0.5-2-0.7-3.2-1.5-5c-0.6-1.4-0.9-2.2-1.9-3.2c-0.6-0.7-1.4-1.5-1.7-1.5
		c-1,1-1.6,2.1-2.4,3.6c-1.1,2.1-1.5,3.5-2,5.8c-0.4,1.9-0.6,3-0.8,4.9c-0.2,1.8-0.2,2.7-0.1,4.5c0.1,3.7,0.7,6.3,1.2,9.5
		c-0.6-0.3-1-0.8-1.7-1.3c-1.3-0.8-2-1.3-3.4-1.9c-0.9-0.4-1.5-0.5-2.4-0.8c-1.8-0.4-2.9-0.5-4.7-0.4c-0.7,0-1.1,0.1-1.7,0.2
		c-1.8,0.3-2.7,0.8-4.2,1.7c-0.8,0.5-1.3,0.9-2,1.6c-1.4,1.3-2.1,2.3-2.8,4.1c-0.4,1-0.6,1.7-0.7,2.8c-0.2,2.1-0.1,3.3,0.6,5.3
		c0.7,1.8,1.2,2.9,2.6,4.2c0.6,0.5,0.9,0.8,1.6,1.2c0.6,0.4,1,0.6,1.7,0.8c1.2,0.5,2,0.8,3.3,0.9c1,0.1,1.6,0,2.6-0.3
		c1-0.3,1.6-0.5,2.3-1.2c0.5-0.4,0.8-0.7,1.1-1.2c0.4-0.7,0.6-1.1,0.9-1.8c0.3-1.1,0-2,0-2.9c0-0.1-0.3-0.2-0.5-0.1
		c0,0-0.3,0.7-0.7,1c-0.4,0.4-0.7,0.4-1.2,0.6c-1.2,0.4-2,0.3-3.1-0.2c-0.5-0.2-0.8-0.4-1.2-0.8c-0.5-0.5-0.8-0.8-1-1.4
		c-0.4-0.9-0.5-1.5-0.4-2.5c0.1-1.1,0.4-1.8,1.2-2.6c0.9-0.9,1.8-1.1,3.1-1.3c0.9-0.1,1.4,0,2.3,0.1c1.6,0.3,2.4,0.7,3.7,1.5
		c0.8,0.5,1.2,0.9,1.8,1.6c0.6,0.6,0.9,1,1.4,1.8c0.6,0.9,0.8,1.4,1.2,2.4c0.9,2.2,1.3,3.5,1.5,5.8c0.2,1.6,0.2,2.5,0.1,4.1
		c-0.1,1.4-0.2,2.2-0.4,3.6c-0.3,1.4-0.4,2.1-0.9,3.4c-0.7,1.8-1.2,3.1-2.3,4.3c-11.7,0-19.5,0-32.6,0c0,0,1.5-0.9,2.3-1.7
		c0.8-0.7,1.2-1.1,1.9-1.9c0.6-0.7,1-1.2,1.4-2.1c0.7-1.3,0.9-1.7,1.1-3.6c0-0.3-0.1-0.7-0.1-0.7c0,0-0.7,0.3-1.2,0.5
		c-0.4,0.2-0.7,0.3-1.1,0.5c-1.3,0.5-2.1,0.9-3.4,1.2c-2.6,0.6-4.2,0.5-6.8,0.1c-1.1-0.1-1.7-0.2-2.8-0.6c-1.9-0.5-3-1-4.8-1.9
		c-2.3-1.1-3.4-2.1-5.5-3.5c-7.2-4.9-9.9-9.3-16.9-14.4c-3.8-2.8-5.8-4.5-10-6.8c-2.2-1.2-3.4-1.8-5.7-2.8c-4.1-1.8-7.2-2.8-10.9-4
		c0.6-0.7,1.2-0.8,1.9-1.5c0.6-0.6,0.9-0.9,1.3-1.6c0.6-0.8,0.8-1.3,1.2-2.3c0.3-0.9,0.5-1.4,0.6-2.3c0.1-0.7,0.1-1.1,0.1-1.7
		c-0.1-0.9-0.2-1.4-0.5-2.2c-0.4-1.2-0.8-1.9-1.6-2.8c-0.3-0.4-0.7-0.4-0.9-0.9h-0.3c0,0-0.8,1.6-1.5,2.6c-0.8,1.1-1.3,1.7-2.3,2.5
		c-1.6,1.4-2.8,2-4.8,2.7c-1.2,0.4-1.9,0.5-3,0.7c-3.6,0.6-5.6,0.3-9.2,0.5c-5,0.2-7.9-0.1-12.9,0.1c-3.2,0.2-5,0.3-8.1,0.7
		c-4.3,0.6-7.3,1.1-10.9,2.2c0.7-2,1.1-3.5,1.4-5.8c0.2-2,0.2-3.1-0.1-5.1c-0.2-1-0.3-1.6-0.6-2.5c-0.7-2.2-1.2-3.3-2.4-5.2
		c-1-1.5-1.5-2.3-2.8-3.4c-1.8-1.6-3.1-2.2-5.4-3c-1.5-0.5-2.3-0.7-3.8-0.9c-3-0.3-4.9-0.2-7.6,1c-1.7,0.8-2.7,1.4-3.9,2.8
		c-1.1,1.2-1.6,2-2.1,3.5c-0.4,0.9-0.5,1.4-0.6,2.3c-0.2,1-0.2,1.7,0,2.7c0.3,1.6,0.8,2.6,1.9,3.8c0.5,0.6,0.8,0.9,1.4,1.3
		c0.6,0.4,0.9,0.6,1.5,0.9c0.8,0.3,1.3,0.4,2.1,0.5c0.9,0.1,1.4,0.1,2.3-0.1c0.8-0.1,1.3-0.3,2-0.6c0.6-0.3,0.9-0.5,1.5-0.9
		c0.8-0.6,1.2-1.1,1.8-1.9c0.4-0.6,0.6-1,0.8-1.7c0.4-1.2,0.5-2,0.4-3.3c-0.1-1.2-0.6-2-0.9-3h0.8c0,0,1.6,1.1,2.5,1.9
		c0.5,0.4,0.7,0.7,1.1,1.2c0.7,0.9,0.9,1.6,1.3,2.7c0.5,1.5,0.8,2.4,0.8,3.9c0,0.8,0,1.3-0.1,2.1c-0.2,0.9-0.3,1.4-0.6,2.2
		c-0.3,1-0.6,1.6-1.1,2.6c-0.7,1.2-1.2,1.8-2.1,2.8c-0.6,0.8-1,1.2-1.8,1.9c-1,0.9-1.6,1.4-2.8,2.1c-1.4,0.9-2.2,1.2-3.7,1.9
		c-1.4,0.6-2.2,0.8-3.6,1.2c-2.3,0.6-3.6,0.8-6,1c-3.7,0.2-5.9,0.2-9.4-0.7c-2.6-0.7-4.4-1.3-6.4-2.7v-0.3c0,0,1.2-0.7,1.9-1.3
		c0.6-0.5,0.9-0.9,1.4-1.6c0.7-1,1-1.7,1.2-3c0.2-1.2,0.2-1.9-0.1-3.1c-0.3-1.4-0.6-2.2-1.6-3.3c-0.4-0.4-1-1-1-1
		c-0.4,0.8-0.7,1.4-1.3,2.2c-0.6,0.8-0.9,1.2-1.7,1.9c-0.7,0.7-1.2,1-2.1,1.5c-0.8,0.5-1.4,0.8-2.3,1.1c-1.1,0.4-1.8,0.5-3,0.7
		c-1.3,0.2-2,0.2-3.3,0.2c-1.6,0-2.4-0.1-3.9-0.4c-1.4-0.3-2.2-0.5-3.5-1.1c-0.9-0.4-1.4-0.7-2.3-1.2c-1.3-0.8-2-1.2-3.2-2.1
		c-1.3-1.2-1.9-1.9-2.8-3.4c-0.5-0.9-0.8-1.5-1.1-2.5c-0.4-1-0.6-1.5-0.7-2.5c0-0.8,0-1.4,0.3-2c0.5,0.1,2.2,1.5,4.5,1.5
		c3.3,0,8.3-1.9,8.3-7.5c0-6-6-8.1-10.2-8.1c-4.2,0-7,2-7,2c-0.8,0.8-1.5,1.1-2.6,2.6c-0.1-0.1-0.5-0.3-0.8-0.5
		c0.1-0.3,0.2-0.5,0.2-0.6c2.2-5.1,4.2-10.2,5.9-15.5l1.7-6.3c3.2-14.4,4.1-29.1,2.3-43.6c-0.1-0.1-0.3-0.1-0.4-0.1
		c-2.7,3.3-5.6,5.2-9.7,7.6c-8.3,4.8-14.2,5.8-23.8,6c-0.8,0-1.3,0-2.1,0c-2.2-0.1-3.5-0.2-5.6-0.8c-1.8-0.5-2.8-0.9-4.5-1.8
		c-2.3-1.2-3.7-1.8-5.5-3.7c-3.5-3.9-5.2-9.7-3.4-13.1c1.5-2.8,3.4-4.9,6.6-5c3-0.1,5.3,1.3,6.6,4c1,1.9,0.6,3.4,0.2,5.5
		c-0.2,0.8-1.3,1.2-0.5,1.9c2.5-0.1,4.6-1.2,6.4-3.4c2.6-3.2,2.4-6.8,0.8-10.6c-1.3-2.8-2.8-4.2-5.5-5.6c-4.7-2.3-9.5-0.6-13.2,1.7
		c-0.1-0.1-0.2-0.1-0.3-0.2c0.3-2.1,0.8-3.8,0.9-6.3c0-2-0.1-3.2-0.3-5.2c-0.5-3.5-0.6-5.6-2.3-8.7c-0.9-1.6-1.4-2.9-2.7-3.8
		c-1,1.3-1.4,2.5-2.1,4.1c-1.3,2.9-1.9,4.7-2.4,7.8c-0.3,2.2-0.3,3.4-0.3,5.6c0.1,2.3,0.5,3.9,0.6,5.8c-0.8-0.4-1.5-0.9-2.6-1.3
		c-1.3-0.5-2-0.7-3.4-1c-1.2-0.2-1.9-0.3-3-0.3c-1.7,0-2.6,0.2-4.1,0.8c-0.9,0.3-1.3,0.5-2.2,1c-0.8,0.4-1.2,0.7-1.9,1.3
		c-0.8,0.6-1.3,1.1-1.9,1.9c-1,1.2-1.4,2.1-2,3.5c-0.4,1-0.6,1.6-0.8,2.7c-0.1,0.9-0.1,1.5,0,2.4c0.1,1,0.3,1.6,0.6,2.5
		c0.3,1,0.5,1.6,1.1,2.5c0.5,0.8,0.9,1.2,1.6,1.7c0.8,0.6,1.3,0.8,2.1,1.1c1,0.4,0.3,0.3,2.6,0.6c0.3-0.2,0.4-0.4,0.5-0.7
		c-0.3-0.3-0.6-0.6-0.8-1c-0.3-0.5-0.4-0.8-0.5-1.4c-0.2-0.7-0.2-1.1-0.2-1.9c0.1-0.9,0.3-1.4,0.7-2.3c0.7-1.5,1.4-2.3,2.7-3.1
		c0.7-0.4,1.2-0.6,2-0.8c0.7-0.2,1.1-0.3,1.8-0.3c0.5,0,0.8,0.1,1.3,0.2c1.2,0.3,2,0.6,3,1.4c1.3,1,1.9,1.9,2.4,3.4
		c0.3,0.8,0.4,1.3,0.5,2.2c0.1,1.2,0,1.9-0.2,3.2c-0.3,1.6-0.5,2.5-1.2,3.9c-0.8,1.6-1.4,2.4-2.6,3.7c-0.7,0.8-1.2,1.1-2.1,1.8
		c-1.6,1.1-2.5,1.7-4.3,2.5c-1.9,0.8-3,1-5,1.4c-2.3,0.4-3.7,0.5-6,0.5c-4.6,0.1-7.2-0.1-11.7-1.2c-1.2-0.3-1.9-0.6-3.2-1
		c-3.4-1.1-5.3-1.9-8.4-3.5c-1.7-0.9-2.6-1.4-4.2-2.5c-1.3-0.9-2-1.4-3.1-2.3c-1.3-1.1-3-3.1-3-3.1l-0.2,0c0,0-0.1,0.1-0.1,0.5
		c-0.6,3.2-0.9,5.8-1.1,9.6c-0.3,5.1-0.1,8.1,0.2,13.2c0.2,3.2,0.3,5,0.6,8.1c0.5,4.5,1,7,2,11.4c1.2,5.2,2.2,8.1,4,13.1
		c1.3,3.8,2.1,6,3.8,9.7c-0.1,0.2-0.4,0.3-0.6,0.5c-1.1-1.4-1.8-1.7-2.6-2.6c0,0-2.8-2-7-2c-4.2,0-10.2,2.1-10.2,8.1
		c0,5.6,5.1,7.5,8.3,7.5c2.4,0,4-1.4,4.5-1.5c0.3,0.6,0.3,1.2,0.3,2c0,1-0.3,1.6-0.6,2.5c-0.3,1-0.6,1.6-1.2,2.5
		c-0.9,1.5-1.5,2.2-2.8,3.4c-1.1,1-1.9,1.3-3.2,2.1c-0.9,0.5-1.4,0.8-2.4,1.2c-1.3,0.6-2.1,0.8-3.4,1.1c-1.5,0.3-2.4,0.4-3.9,0.4
		c-1.3,0-2,0-3.3-0.2c-1.2-0.2-1.9-0.3-3-0.7c-1-0.3-1.4-0.6-2.3-1.1c-0.9-0.5-1.3-0.8-2.1-1.5c-0.7-0.7-1.1-1.1-1.7-1.9
		c-0.6-0.8-0.8-1.4-1.3-2.2c0,0-0.6,0.6-1,1c-0.9,1.1-1.3,1.9-1.6,3.3c-0.2,1.2-0.3,1.9-0.1,3.1c0.2,1.2,0.6,1.9,1.2,3
		c0.5,0.7,0.7,1.1,1.4,1.6c0.7,0.6,1.9,1.3,1.9,1.3v0.3c-2,1.4-3.8,2-6.4,2.7c-3.5,0.9-5.7,0.9-9.4,0.7c-2.4-0.2-3.7-0.4-6-1
		c-1.4-0.4-2.2-0.7-3.6-1.2c-1.5-0.6-2.4-1-3.7-1.9c-1.1-0.7-1.8-1.2-2.8-2.1c-0.8-0.7-1.2-1.1-1.8-1.9c-0.9-1-1.4-1.6-2.1-2.8
		c-0.6-1-0.8-1.5-1.2-2.6c-0.3-0.8-0.4-1.3-0.5-2.2c-0.1-0.8-0.2-1.3-0.2-2.1c0-1.6,0.3-2.4,0.8-3.9c0.4-1.1,0.6-1.8,1.3-2.7
		c0.4-0.5,0.6-0.8,1.1-1.2c0.9-0.9,2.5-1.9,2.5-1.9h0.8c-0.4,1-0.8,1.7-0.9,3c-0.1,1.3,0,2.1,0.4,3.3c0.3,0.7,0.4,1.1,0.8,1.7
		c0.6,0.9,1,1.3,1.8,1.9c0.5,0.4,0.8,0.6,1.5,0.9c0.7,0.3,1.2,0.5,2,0.6c0.9,0.2,1.4,0.2,2.3,0.1c0.9-0.1,1.4-0.2,2.1-0.5
		c0.6-0.3,1-0.5,1.5-0.9c0.6-0.4,0.9-0.7,1.4-1.3c1.1-1.3,1.6-2.2,1.9-3.8c0.2-1,0.2-1.7,0-2.7c-0.1-1-0.3-1.5-0.6-2.3
		c-0.6-1.5-1.1-2.3-2.1-3.5c-1.3-1.4-2.2-2-3.9-2.8c-2.7-1.2-4.6-1.4-7.6-1c-1.5,0.2-2.3,0.4-3.8,0.9c-2.3,0.8-3.6,1.4-5.4,3
		c-1.3,1.1-1.9,1.9-2.8,3.4c-1.2,1.8-1.8,3-2.4,5.2c-0.3,1-0.4,1.5-0.6,2.5c-0.3,2-0.2,3.1-0.1,5.1c0.2,2.3,0.6,3.9,1.4,5.8
		c-3.6-1.1-6.6-1.7-10.9-2.2c-3.1-0.4-4.9-0.5-8.1-0.7c-5-0.3-7.8,0-12.8-0.1c-3.6-0.1-5.7,0.2-9.3-0.5c-1.2-0.2-1.9-0.3-3-0.7
		c-2-0.7-3.2-1.3-4.8-2.7c-1-0.9-1.5-1.5-2.3-2.5c-0.7-1-1.5-2.6-1.5-2.6H241c-0.2,0.5-0.6,0.5-0.9,0.9c-0.8,0.9-1.2,1.6-1.6,2.8
		c-0.3,0.8-0.4,1.3-0.5,2.2c0,0.6,0,1,0.1,1.7c0.1,0.9,0.2,1.4,0.6,2.3c0.3,0.9,0.6,1.5,1.2,2.3c0.5,0.7,0.7,1,1.3,1.6
		c0.7,0.7,1.4,0.8,1.9,1.5c-3.7,1.2-6.8,2.2-10.9,4c-2.2,1-3.5,1.6-5.7,2.8c-4.1,2.3-6.2,4-10,6.8c-7,5.2-9.7,9.6-16.8,14.4
		c-2.1,1.4-3.3,2.4-5.5,3.5c-1.8,0.9-2.9,1.4-4.8,1.9c-1.1,0.3-1.7,0.4-2.8,0.6c-2.6,0.3-4.2,0.5-6.8-0.1c-1.4-0.3-2.1-0.7-3.5-1.2
		c-0.5-0.2-0.7-0.3-1.1-0.5c-0.5-0.2-1.1-0.5-1.1-0.5c0,0-0.2,0.3-0.1,0.7c0.2,1.9,0.4,2.3,1.1,3.6c0.4,0.9,0.8,1.3,1.4,2.1
		c0.7,0.8,1.1,1.3,1.9,1.9c0.8,0.7,2.3,1.7,2.3,1.7c-13.1,0-20.9,0-32.6,0c-1.1-1.2-1.7-2.5-2.3-4.3c-0.5-1.3-0.6-2-0.9-3.4
		c-0.3-1.4-0.3-2.2-0.4-3.6c-0.1-1.6-0.1-2.5,0.1-4.1c0.3-2.3,0.6-3.6,1.5-5.8c0.4-1,0.6-1.5,1.2-2.4c0.5-0.7,0.8-1.2,1.4-1.8
		c0.6-0.7,1-1.1,1.9-1.6c1.3-0.9,2.1-1.2,3.7-1.5c0.9-0.1,1.4-0.3,2.3-0.1c1.3,0.2,2.2,0.4,3.1,1.3c0.8,0.8,1.1,1.5,1.2,2.6
		c0.1,1,0,1.6-0.4,2.5c-0.3,0.6-0.5,1-1,1.4c-0.4,0.4-0.7,0.5-1.2,0.8c-1.1,0.5-1.9,0.5-3.1,0.2c-0.5-0.1-0.8-0.2-1.2-0.6
		c-0.3-0.3-0.7-1-0.7-1c-0.2-0.1-0.4,0-0.5,0.1c0,1-0.2,1.8,0.1,2.9c0.2,0.7,0.4,1.1,0.8,1.8c0.4,0.5,0.6,0.8,1.1,1.2
		c0.8,0.7,1.4,0.9,2.4,1.2c0.9,0.3,1.5,0.4,2.6,0.3c1.3,0,2.1-0.4,3.3-0.9c0.7-0.3,1.1-0.5,1.7-0.8c0.7-0.4,1-0.7,1.6-1.2
		c1.4-1.3,1.9-2.4,2.6-4.2c0.7-2,0.9-3.2,0.6-5.3c-0.1-1.1-0.3-1.7-0.7-2.8c-0.7-1.8-1.4-2.7-2.8-4.1c-0.7-0.7-1.2-1.1-2-1.6
		c-1.5-1-2.4-1.4-4.2-1.7c-0.7-0.1-1.1-0.2-1.7-0.2c-1.8-0.1-2.9,0-4.7,0.4c-1,0.2-1.5,0.4-2.4,0.8c-1.4,0.6-2.1,1-3.4,1.9
		c-0.7,0.5-1.1,1.1-1.7,1.3c0.4-3.2,1.1-5.8,1.1-9.5c0.1-1.7,0.1-2.7-0.1-4.5c-0.2-1.9-0.3-3-0.7-4.9c-0.6-2.3-0.9-3.7-2-5.8
		c-0.8-1.5-1.4-2.6-2.4-3.6c-0.3,0.1-1.1,0.8-1.7,1.5c-1,1.1-1.3,1.9-1.9,3.2c-0.9,1.8-1.1,3-1.5,5c-0.7,3.2-0.8,5.1-0.9,8.5
		c-0.1,3.8,0.3,6.4,0.6,9.7c-1.3-1.1-2.5-2.1-4.4-3c-1.1-0.5-1.7-0.8-2.9-1.1c-1.9-0.5-3-0.8-4.9-0.7c-1.4,0.1-2.2,0.3-3.6,0.8
		c-1.4,0.5-2.2,0.8-3.3,1.6c-0.9,0.6-1.3,1.1-2,1.9c-0.7,0.7-1.1,1.1-1.7,2c-1,1.5-1.3,2.5-1.7,4.2c-0.3,1.5-0.3,2.7-0.1,4
		c0.2,1,0.2,2,0.7,3.2c0.4,0.9,0.7,1.4,1.4,2.1c0.9,1.1,1.6,1.6,2.9,2.2c1.4,0.7,2.4,0.9,4,0.9c1,0,1.6-0.1,2.6-0.4
		c0.8-0.2,1.3-0.4,2-0.9c1-0.7,1.4-1.2,2-2.2c0.7-1.2,1.1-2.1,1.2-3.3c-0.2-0.4-1.3,0.1-1.4,0.3c-1,0.5-1.8,1.1-3.1,1
		c-0.9-0.1-1.5-0.4-2.2-1c-0.6-0.6-0.8-1-1.1-1.8c-0.3-1-0.5-1.8-0.2-2.9c0.3-1,0.7-1.4,1.5-2.1c0.4-0.5,0.7-0.7,1.3-1
		c0.6-0.4,1-0.5,1.6-0.6c0.8-0.2,1.3-0.2,2.1-0.1c0.9,0.1,1.4,0.3,2.2,0.6c1.1,0.5,1.7,0.8,2.7,1.5c0.9,0.7,1.3,1.3,2,2.2
		c1,1.3,1.4,2.2,1.9,3.8c0.5,1.2,0.6,2,0.8,3.3c0.4,2.3,0.5,3.6,0.4,5.9c-0.1,2.2-0.1,3.5-0.8,5.7c-0.4,1.2-0.7,1.8-1.2,2.8
		c-0.7,1.4-1.2,2.3-2.3,3.3c-15.3,0-30.7,0.1-46,0c-0.2,0.1-0.3,0-0.3,0.2c1.7,1.2,3.2,2.3,4.8,4.1c2,2.2,3,3.7,4.4,6.3
		c0.9,1.7,1.2,2.8,1.9,4.6c0.7,1.9,1.1,3,1.5,4.9c0.9,3.7,1,5.9,1,9.7c0.1,2.9-0.4,7.4-0.4,7.4s-0.3,2.9-0.8,4.7
		c-0.3,1.6-0.6,2.5-1.1,4.1c-0.7,2.1-1.2,3.2-2.2,5.2c-0.5,1.1-0.9,1.8-1.6,2.8c-1.3,2-2,3.4-3.9,4.8c-1,0.8-1.7,1.1-2.9,1.6
		c-1,0.4-1.6,0.6-2.6,0.8c-0.9,0.2-1.3,0.3-2.2,0.2c-1.3-0.1-2.1-0.3-3.3-0.9c-0.6-0.3-1-0.5-1.6-1c-0.5-0.4-0.7-0.8-1.1-1.3
		c-0.4-0.6-0.6-1-0.8-1.7c-0.2-0.8-0.3-1.3-0.3-2.2c0-0.6,0-0.9,0.1-1.5c0.1-0.7,0.3-1.1,0.6-1.8c0.5-1.1,0.8-1.7,1.6-2.6
		c0.9-0.9,1.5-1.3,2.6-1.9c1.2-0.6,2.1-0.9,3.3-1.3l0.1-0.5c-0.5-0.8-1.1-1.2-2-1.6c-1.5-0.7-2.6-0.7-4.2-0.5
		c-1.2,0.1-1.8,0.3-2.9,0.7c-0.9,0.4-1.4,0.7-2.2,1.2c-0.8,0.5-1.2,0.9-1.9,1.6c-1,1-1.4,1.6-2.1,2.8c-0.5,1-0.7,1.7-1.1,2.8
		c-0.4,1.7-0.7,2.7-0.6,4.4c0,1.2,0.2,1.9,0.5,3c0.3,1,0.4,1.6,0.8,2.5c0.4,0.8,0.7,1.2,1.2,1.9c0.6,0.8,1,1.3,1.8,1.9
		c1,0.9,1.7,1.3,2.9,2c0.9,0.5,1.4,0.7,2.3,1c1.3,0.5,2.1,0.7,3.5,0.8c1.6,0.2,2.4,0.2,4,0.1c1.3-0.1,2-0.1,3.3-0.4c2-0.5,3.1-1,5-2
		c1.2-0.7,1.9-1.2,3-2c1.1-0.8,1.7-1.4,2.6-2.3c0.9-1,1.5-1.5,2.3-2.6c0.9-1.1,1.3-1.8,2-3c0.9-1.5,1.3-2.3,2.1-3.9
		c0.7-1.4,1-2.3,1.5-3.7c1.2-3.4,1.8-5.3,2.5-8.8c0.5-2.3,0.7-3.7,1-6c0.3-2.9,0.2-4.6,0-7.5c-0.1-1.9-0.2-3-0.5-4.9
		c-0.3-2.2-0.5-3.4-1-5.6c-0.8-3.4-1.5-5-2.9-8.4c25,0,50.1,0,75.4,0c3.4,0,6.5,0.1,10.4-1c1.1-0.3,1.8-0.5,2.8-1
		c0.9-0.4,1.4-0.7,2.2-1.2c2-1.1,3.2-2.1,4.8-3.3c0,0,0-0.1,1-0.6l0.3,0.3c-0.2,1.2-0.1,2.4,0.1,3.9c0.2,2.3,0.4,3.5,1.1,5.7
		c0.5,1.3,0.8,2.3,1.5,3.3c2.2-1,3.8-2.2,5.9-3.9c1.4-1.1,2.1-1.7,3.3-2.9c1.5-1.4,2.3-2.7,3.7-3.9c0.6,2.4,1.1,4.4,2.3,7.1
		c0.5,1.1,0.8,1.7,1.4,2.8c0.8,1.3,1.2,2,2.2,3.2c0.9,1,1.4,1.6,2.5,2.4c0.9,0.8,1.3,1.1,2.6,1.7c1.2,0.6,2.4,0.8,3.4,0.5l0.4-0.3
		c-0.3-2.9-0.8-5.3-0.8-8.8c0-1.6,0-2.5,0.1-4.1c0.2-2.7,0.4-4.3,1-7c0.6-2.2,1-3.5,1.9-5.5c0.6-1.2,0.9-1.9,1.7-3
		c0.9-1.4,1.4-2.2,2.6-3.3c0.6,1.2,0.9,2.6,1.6,4.2c0.4,1.1,0.7,1.6,1.3,2.7c1.1,1.9,1.8,2.9,3.4,4.5c1.1,1.1,1.8,1.6,3.1,2.4
		c1.2,0.7,1.9,1.1,3.2,1.5c1.1,0.3,1.7,0.5,2.8,0.6c1.4,0.1,3.5-0.4,3.5-0.4c-0.5-1.2-0.8-2.2-1.2-3.6c-0.3-1-0.4-1.6-0.5-2.7
		c-0.2-1.9-0.2-3,0.1-4.8c0.3-2.1,0.6-3.3,1.4-5.3c0.8-1.8,1.3-2.8,2.5-4.4c1.1-1.5,1.7-2.3,3-3.5c0.9-0.9,1.5-1.3,2.6-2.1
		c1.9-1.4,3.1-2.1,5.2-3c2.3-1,3.7-1.4,6.2-1.9c1.6-0.3,2.5-0.4,4.2-0.6c2.9-0.2,4.5-0.1,7.3,0.3c2.3,0.3,3.7,0.7,6,1.3
		c1.6,0.4,2.5,0.7,4.1,1.4c2.1,0.8,3.2,1.4,5.1,2.5c2.6,1.5,4.1,2.5,6.3,4.7c1.1,1.1,1.8,1.6,2.6,3c0.2,0.4,0.4,0.7,0.5,1
		c-1.4,0.4-2.6,1-4.1,1.9c-0.8,0.5-1.3,0.8-2,1.5c-1,0.9-1.5,1.5-2.2,2.6c-0.5,0.8-0.7,1.2-1.1,2.1c-0.7,1.7-0.9,2.7-1.1,4.5
		c-0.2,1.3-0.2,2-0.1,3.3c0.1,1.7-0.1,2.8,0.7,4.3c0.1,0.2,0.2,0.3,0.4,0.5c1.5-1,2.7-1.8,4.6-2.4c1.3-0.4,2.1-0.5,3.5-0.6
		c0.8,0,1.3,0,2.1,0.1c1,0.1,1.6,0.3,2.5,0.6c1,0.4,1.5,0.6,2.4,1.2c0.9,0.6,1.3,1,2.1,1.7c0.9,0.8,1.3,1.3,2.1,2.1
		c1.1,1.4,1.6,2.2,2.3,3.7c0.9,1.9,1.2,3.1,1.7,5.2c0.4,1.5,0.5,2.3,0.7,3.9c0.2,1.9,0.2,3,0,5c-0.1,1-0.2,1.6-0.3,2.7
		c-0.8,4.5-1.6,7.2-4.1,11.1c-0.7,1.1-1.1,1.6-1.9,2.6c-0.9,1.1-1.4,1.6-2.5,2.6c-1.6,1.3-3.1,2-4.6,2.6c-0.5-1.4-0.5-2.4-1.3-3.8
		c-0.6-1.1-1-1.7-1.8-2.6c-0.7-0.9-1.2-1.4-2.1-2c-0.6-0.4-1-0.6-1.7-0.9c-0.9-0.3-1.6-0.4-2.4-0.6c0.3,1.6,0.8,3.1,0.3,5
		c-0.2,0.9-0.4,1.3-0.7,2.1c-0.8,1.7-1.4,2.7-2.7,4.1c-1.4,1.5-2.4,2-4.2,3c-1.5,0.9-2.5,1.3-4.2,1.9c-1.8,0.6-2.9,0.7-4.8,0.9
		c-1.7,0.2-2.8,0.2-4.5,0.1c-1-0.1-1.6-0.1-2.6-0.3c-1.8-0.3-2.8-0.7-4.5-1.5c-1.3-0.6-2-1-3.2-1.8c-1-0.7-1.5-1.1-2.4-1.9
		c-2.7-2.5-3.9-4.5-5.1-8c-0.4-1.3-0.6-2-0.8-3.4c-0.3-1.9-0.4-3-0.2-5c0.1-1.2,0.2-1.9,0.5-3.1c0.4-1.4,0.6-2.1,1.2-3.3
		c0.5-1,0.9-1.5,1.5-2.4c1-1.3,1.6-2,2.9-3.1c1.1-1,1.8-1.5,3-2.2c2.1-1.3,3.5-1.9,5.9-2.3c1.5-0.2,2.3-0.2,3.7-0.1
		c0.8,0.1,1.5-0.1,2.1,0.4c0.2,0.2,0.8,0.2,0.5,0.5c-1.1,0.3-1.9,0.9-2.8,1.8c-0.6,0.5-0.9,0.9-1.2,1.5c-0.4,0.7-0.5,1.1-0.7,1.8
		c-0.2,0.8-0.2,1.3-0.2,2.1c0,0.7,0,1.2,0.3,1.9c0.2,0.8,0.5,1.2,0.9,1.9c0.5,0.8,0.8,1.2,1.5,1.8c0.7,0.6,1.1,0.9,1.9,1.3
		c0.9,0.4,1.5,0.6,2.5,0.8c0.9,0.1,1.4,0.1,2.2,0.1c1.2-0.1,1.8-0.2,3-0.6c0.7-0.3,1.1-0.4,1.7-0.8c0.8-0.5,1.3-0.8,1.9-1.4
		c1.2-1.1,1.7-1.9,2.4-3.3c0.7-1.4,1.1-2.3,1.2-3.9c0.1-0.8,0.1-1.3,0-2.1c-0.2-1.6-0.5-2.6-1.3-4c-0.5-0.9-0.9-1.4-1.6-2.1
		c-0.6-0.7-1.1-1-1.8-1.5c-1.4-1-2.3-1.5-3.8-2.2c-1.3-0.6-2.1-0.8-3.4-1.1c-1.5-0.3-2.3-0.5-3.8-0.6c-1.6-0.1-2.5-0.1-4-0.1
		c-3.3,0.2-5.2,0.5-8.3,1.7c-1.1,0.4-1.7,0.7-2.8,1.2c-2.6,1.3-4,2.3-6.2,4.3c-1,0.9-1.6,1.4-2.4,2.5c-0.9,1.1-1.3,1.8-2.1,3
		c-0.6,1.1-1,1.7-1.4,2.8c-1,2.2-1.4,3.6-1.9,6c-0.4,2.5-0.5,4.1-0.3,6.6c0.2,2,0.3,3.1,0.9,5c0.4,1.4,0.8,2.2,1.4,3.6
		c1.2,2.6,2.3,4,3.6,6.2c-5.2-1.4-9-2.8-14.6-5.1c-3.8-1.6-6.1-2.4-9.7-4.5c-1.5-0.9-2.4-1.5-3.8-2.5c-1.3-0.9-2-1.4-3.2-2.5
		c-0.7-0.7-1.1-1.1-1.7-2c-0.5-0.7-0.7-1.2-1-2c-0.4-1-0.5-1.7-0.7-2.8c-0.2-1.4-0.5-2.3-0.1-3.6c0.1-0.3,0.3-0.8,0.3-0.8
		c0,0-2.1,0.2-3.3,0.6c-0.7,0.3-1.1,0.5-1.8,0.9c-0.7,0.4-1.1,0.7-1.6,1.4c-0.8,0.9-1,1.7-1.3,2.9c-0.2,0.7-0.2,1.1-0.2,1.8
		c0,1.2,0.2,1.8,0.4,3.1c-2.1-1.2-3.8-2.2-6.3-3.6c-4-2.1-6.3-3.2-10.5-5.1c-5.7-2.6-9-3.9-14.9-6c-3.6-1.3-5.6-2.2-9.3-3.2
		c-2.4-0.7-3.9-1-6.4-1.4c-2.5-0.4-4-0.7-6.6-0.9c-3-0.3-4.6-0.4-7.6-0.3c-3.3,0-5.2,0.2-8.5,0.6c-1.9,0.2-2.9,0.3-4.7,0.7
		c-1.7,0.4-2.7,0.6-4.4,1.2c-2.3,0.9-3.6,1.5-5.8,2.8c-1.3,0.8-2,1.2-3.2,2.1c-1.2,0.9-1.9,1.4-3,2.4c-1.2,1.1-1.9,1.9-2.9,3.2
		c-1.3,1.7-2,2.7-2.9,4.5c-0.5,1-0.8,1.6-1.3,2.7c-0.8,2.2-1.2,3.5-1.5,5.9c-0.2,1.3-0.2,2.1-0.2,3.4c0,1.7,0.2,2.8,0.6,4.5
		c0.3,1.1,0.4,1.7,0.8,2.8c0.5,1.4,0.8,2.2,1.6,3.6c0.6,1.2,1,1.9,1.8,2.9c0.9,1.2,1.6,1.8,2.8,2.8c1.1,0.9,1.8,1.4,3.1,2.1
		c1.1,0.7,1.8,1,3.1,1.6c1.3,0.6,2.1,0.9,3.5,1.4c1.6,0.5,2.5,0.5,4.1,0.7c1.4,0.2,2.2,0.2,3.6,0.2c1.5,0,2.3-0.1,3.8-0.3
		c1.3-0.2,2.1-0.3,3.3-0.7c2.6-0.7,4-1.2,6.3-2.6c1.1-0.7,1.7-1.1,2.7-1.9c1-0.9,1.5-1.4,2.4-2.3c0.8-0.9,1.3-1.5,1.9-2.5
		c0.5-0.8,0.7-1.2,1.1-2.1c0.5-1.1,0.7-1.8,0.9-3c0.3-1.7,0.2-2.7-0.1-4.4c-0.1-0.7-0.2-1.1-0.5-1.8c-0.3-0.7-0.6-1.1-1.1-1.8
		c-0.7-0.8-1.2-1.2-2.1-1.7c-0.6-0.4-0.9-0.5-1.5-0.8c-0.8-0.3-1.3-0.4-2.2-0.6c-1-0.2-1.6-0.2-2.7,0c-1,0.1-1.6,0.2-2.6,0.6
		c-1.2,0.6-1.7,1.3-2.5,2.4c-0.6,0.7-0.9,1.2-1.3,2c-0.3,0.8-0.5,1.3-0.6,2.1c-0.1,0.7-0.1,1.2,0,1.9c0.1,1,0.3,1.5,0.7,2.4
		c0.4,0.8,0.7,1.2,1.3,1.9c0.8,0.9,1.4,1.3,2.2,1.9c-0.6,0.4-1,0.7-1.7,1.1c-1.1,0.6-1.8,0.9-3,1.2c-1.9,0.6-3.1,0.8-5,0.8
		c-2.1,0-3.3-0.3-5.3-1c-1.1-0.4-1.7-0.6-2.7-1.2c-1.4-0.8-2.2-1.3-3.4-2.4c-1.2-1.1-1.9-1.9-2.8-3.3c-0.8-1.3-1.2-2.2-1.5-3.7
		c-0.3-1.2-0.3-1.9-0.3-3.1c0-1.9,0.2-3,0.7-4.8c0.3-1,0.5-1.5,1-2.5c0.4-1,0.7-1.5,1.3-2.4c0.8-1.3,1.3-2,2.4-3.1
		c0.8-0.8,1.4-1.2,2.3-1.9c2-1.5,3.2-2.2,5.5-3.3c1.9-0.9,3-1.3,5-1.9c2.7-0.8,4.3-1.1,7.2-1.4c2.8-0.3,4.3-0.2,7.1,0
		c2.2,0.1,3.4,0.2,5.5,0.5c2.9,0.4,4.5,0.7,7.4,1.5c3.5,0.8,5.4,1.5,8.8,2.6c3.5,1.1,5.5,1.8,9,3.1c5.7,2.2,8.6,3.5,14.2,6.5
		c2.5,1.4,4.2,2.2,6.2,3.8c-2.2,0.6-4,1.1-6.3,2.1c-1.2,0.6-1.9,0.9-3.1,1.6c-1,0.6-1.6,1-2.5,1.8c-0.9,0.8-1.3,1.3-2.1,2.2
		c-0.6,0.8-1,1.3-1.4,2.2c-0.5,0.9-0.7,1.5-1,2.5c-0.5,1.8-0.6,3.1-0.5,4.6c1.3-0.6,6.3-3.5,10.7-4.9c4-1.3,6.4-1.6,10.6-1.9
		c4-0.3,6.3-0.2,10.3,0.1c2.3,0.2,3.6,0.4,6,0.8c5.1,0.8,7.9,1.4,12.8,3c7.1,2.2,9.4,3.4,16.6,5.8c4.4,1.5,7,2.2,11.5,3.2
		c2.1,0.5,3.3,0.8,5.5,1.1c2.9,0.4,4.6,0.5,7.5,0.7c2.6,0.1,4.1,0.2,6.6,0.1c3.5-0.1,5.6-0.2,9-0.8c3.2-0.6,5-1.1,8-2.2
		c2.1-0.7,3.3-1.1,5.3-2.1c1.4-0.6,2.2-1.1,3.5-1.8c2.1-1.2,3.3-1.8,5.2-3.2c1.8-1.3,2.7-2.1,4.3-3.5c1.4-1.3,2.2-2,3.5-3.4
		c2.4-2.5,3.6-4.1,5.6-6.9c1-1.4,1.6-2.2,2.4-3.7c1.1-2,1.6-3.2,2.6-5.3c0.6-1.5,0.9-2.3,1.4-3.7c1.2-3.3,1.7-5.2,2.3-8.6
		c0.4-2.2,0.6-3.5,0.7-5.7c0.2-2,0.2-3.1,0.1-5.1c0-2.1-0.1-3.3-0.3-5.4c-0.4-3.3-0.7-5.1-1.6-8.3c-0.5-1.8-0.8-2.8-1.4-4.6
		c-1-2.8-1.6-4.4-3.1-7c-1-1.9-1.7-2.8-3-4.6c-2.5-3.6-4.8-5.8-7.1-8.6c2.8,0.1,5.3,0,8.5-0.7c2.6-0.6,4.3-1.2,6.6-2.1
		c-0.1,0.5-0.3,1-0.5,1.6c-0.2,0.9-0.2,1.4-0.1,2.3c0.1,0.8,0.2,1.3,0.5,2.1c0.4,1,0.8,1.5,1.5,2.4c0.5,0.5,0.8,0.7,1.3,1.2
		c0.6,0.5,1.8,1,1.8,1c1,0.4,3.9,0.1,4.3-0.2c-0.4-1.2-0.8-2.1-0.8-3.5c0-1,0.1-1.5,0.3-2.5c0.6-3.3,1.7-5,3.6-7.7
		c1.4-1.9,2.4-2.7,4.1-4.3c2.5-2.3,4.2-3.2,6.6-5.5c1.6-1.5,2.5-2.3,3.9-4c1.8-2.1,3.9-5.7,3.9-5.7s0.8-1.7,1.2-2.8
		c0.7-1.9,0.9-3,1-5c0.1-1,0-2.6,0-2.6c0.2-0.3,0.3-0.6,0.8-0.6c1.6,2.9,2.5,4.5,4.3,7.3c1.7,2.6,2.7,4.1,4.6,6.6
		c1.5,2,2.4,3.2,4,5.1c1.9,2.3,3,3.6,5,5.7c2.4,2.6,3.9,4,6.5,6.4c2.7,2.5,4.4,3.9,7.2,6.2c2.6,2.1,4.6,3.3,6.8,5.2v29.6
		c-0.1,0-0.2,0-0.3,0c0,0-0.7-2.7-1.2-4.3c-0.6-1.8-1-2.8-1.7-4.6c-1.1-2.6-1.7-4-3.1-6.4c-1.5-2.6-2.4-4-4.4-6.3
		c-1-1.1-1.7-1.7-2.8-2.8c-1.9-1.8-3-2.9-5.2-4.2c-2.6-1.5-4.2-2.3-7.1-2.8c-1-0.2-1.5-0.2-2.4-0.3c-2.3-0.2-3.6-0.3-5.8,0
		c-0.8,0.1-1.3,0.2-2.1,0.3c-2.4,0.5-3.8,0.9-6.1,2c-2.6,1.3-3.9,2.5-6.2,4.4c-1.4,1.3-2.3,2-3.6,3.4c-1.4,1.5-2.1,2.5-3.2,4.3
		c-0.9,1.4-1.4,2.2-2.2,3.6c-1.1,1.9-1.6,3.1-2.4,5.2c-1.2,3-1.7,4.8-2.5,7.9c-0.7,2.7-1,4.3-1.3,7.1c-0.3,2.5-0.4,3.9-0.5,6.4
		c-0.1,2.8,0.1,4.3,0.3,7.1c0.2,2.1,0.3,3.3,0.7,5.3c0.2,1,0.4,1.8,0.5,2.6c0.2,1,0.5,2,0.9,3.2c0.6,2,1,3.1,1.7,5
		c0.7,1.8,1.2,2.8,2.1,4.6c2.7,5.2,4.5,8.3,9,12.1c1.3,1.1,2.1,1.6,3.4,2.5c2,1.2,3.1,2,5.3,2.8c1.3,0.5,2.1,0.6,3.5,1
		c1.2,0.2,1.8,0.4,3,0.5c2.2,0.2,3.5,0.1,5.8-0.2c1.3-0.2,2-0.4,3.2-0.7c1.5-0.5,2.3-0.8,3.7-1.5c2-0.9,3-1.6,4.8-2.8
		c1.3-1,2-1.6,3.2-2.7c1.6-1.5,2.4-2.4,3.7-4.1c1.7-2.1,2.5-3.4,3.9-5.9c1.3-2.4,1.9-3.9,2.9-6.4c1.1-2.7,1.6-4.8,2.5-7.1
		c0.3-0.3,0,25,0,38.6l-373.5,0v81.3h759.1v-81.3H430.6L430.6,254.5z M458.1,240c-1.3,0-2.3-0.6-3.6-1c-1.8-1.1-3.6-2.7-4.5-4.5
		c-0.5-0.4-0.7-1.1-0.8-1.7c-1.2-1.7-1.5-4.5-0.9-6.6c0.1-0.3,0-0.8,0.3-1c0.1-0.7,0.7-1.2,1.3-1.7c0.9,0.4,0.9-0.7,1.8-0.2
		c0.5-0.2,0.7,0.8,1.2,0.2c0.5,0.5,1.2,0.8,1.6,1.4c0.8,1.1,1.9,2.2,2.1,3.6c0.8,1.9,1.4,4,1.6,6.1
		C458.4,236.3,458.3,238.1,458.1,240L458.1,240L458.1,240z M474.6,232.8c-2,3.8-5.7,6.2-9.6,7.2c-0.3-2.1-0.3-4.3,0-6.4
		c0.1-3.7,1.5-7.5,4.7-9.7c1.5-1,4.1-1,5.1,0.7C476.3,227,475.7,230.4,474.6,232.8L474.6,232.8L474.6,232.8z M484.9,196.2
		c0.5,1.6,0.2,3.5,0.5,5.2v1.1l0.2-0.1l-0.3,0.4c0.2,3.6-0.5,7.4-0.9,10.8c-0.2,0.7-0.3,1.4-0.5,2.1c-0.5,2.4-1.1,4.8-1.9,7l-0.6,1
		c-0.3-0.5,0.3-1-0.1-1.4l-0.2,0.2c-0.6-2.5-2.4-5-4.9-6.1c-2.9-1-6.4-0.2-8.8,1.9c-0.7,1-1.7,1.9-2.5,3c0-2.1,0-3.9,0-5.7l0,0
		c0-4.2,0-8,0-13.2c2.2-0.2,4.1-0.3,6.2-0.6c1,1.4,1.4,4.5,4.1,3.9c0.5-0.3,1-0.6,1.3-1c0.3-0.9,0.6-2.1,0.3-3.2
		c-0.4-1.9,1.9-1.4,2.8-2.3C481.7,198.6,483.3,197.4,484.9,196.2L484.9,196.2L484.9,196.2z M444.8,176c3.7-6.8,10.4-12.5,18.8-11.4
		c4.7,0.3,8.6,3.4,11.9,6.8c0.6,0.9,1.4,1.8,2.1,2.8c0.9,1.3,1.6,2.8,2.5,4.2c0.1,0.9,0.7,1.9,1,2.8c-2.5-0.2-4.9-0.1-6.9,1.1
		c-0.3,1.3,1.4,1.3,2.1,2c1.3,0.8,2.8,2.2,2.9,3.9c-0.1,2-2,3.6-3.5,4.7c-6.7,3.5-15.8,3.9-23.5,2.3c-1.2-0.7-2.6-0.6-3.7-1.5
		c-1.8-0.7-3.3-1.8-4.8-3.2c-0.1-0.9-0.7-1.6-0.3-2.5c0.7-2.9,3.9-4.2,6.4-5c0.3-0.2,0.4-0.6,0.3-0.8c-1.9-1.7-4.5-2.1-6.9-1.7
		C443.2,178.7,444.2,177.4,444.8,176L444.8,176L444.8,176z M414.3,140.3c-4.5-3.7-7-5.9-11-10.2c-3.8-4.1-5.8-6.5-9-11.1
		c-1.7-2.4-3-4.4-4.2-6.4c-2.3-3.9-4-7.5-6.1-12.7c-4.1-9.8-6.5-15.7-7.3-26.3c-0.2-3.7-0.6-6.3,0-9.4c-0.1-0.2-0.1-0.1-0.3,0
		c0.2-0.4,0.5-0.7,0.4-1.2c0.5,0.1,1,0.1,1,0.1c4,1.6,7.6,2.8,12.8,3.6c5.4,0.8,8.6,1.3,14,0.4c8.6-1.4,15.4-3.9,19.9-10.3
		c1.3,1.6,3.5,3.5,5,4.9c10.1,6.6,24.8,6.1,36,2.9c4-1.2,3.9-1.2,6-1.9c1.2,4,0.3,7.7-0.1,12.6c-0.9,8.8-2.5,13.7-5.9,21.9
		c-0.7,1.6-1.1,2.5-1.9,4.2c-2.1,4.4-3.8,7.9-5.7,11.3c-1.9,3.3-4.1,6.5-7.1,10.4c-8.6,11.1-16.8,17.5-26.9,24.2h-0.4
		C420.5,145,417.8,143.1,414.3,140.3L414.3,140.3L414.3,140.3z M388.2,164.4c6.6,0.7,11.9,5.7,15.3,11c-1.5,2.6-13.2,15.7-16.9,20
		c-5.9-6.8-11.8-13.1-17.4-19.9C373.1,168.6,380,163.4,388.2,164.4L388.2,164.4L388.2,164.4z M365.7,219.2c-0.4-1.1-0.7-2.3-0.9-3.5
		l0,0c-1.8-7.9-1.9-16.1-0.8-24.4c0.2-1.1,0.4-2.4,0.9-3.6c5.2,5.1,9.5,10.6,14.6,16c-3.3,4-6.9,8.1-10.5,11.9
		C367.9,217,366.8,218.1,365.7,219.2L365.7,219.2L365.7,219.2z M397.5,235.2c-5.1,4.1-10,5.2-16.3,3.5c-4.1-1.1-6-1.9-9.2-5.9
		c-0.8-1-1.4-2-0.9-3.3c3.1-3.6,8.6-9.9,12.2-13.8h0c1.9-2.1,3.3-3.5,3.4-3.5c1,1.2,2,2.4,3,3.5c4.1,4.7,8.4,9.2,12.5,13.9
		C400.9,231.9,399.8,233.5,397.5,235.2L397.5,235.2L397.5,235.2z M408.5,215.8c-0.2,1.1-0.5,2.2-0.9,3.3c-0.2-0.1-1.5-1.4-3.2-3.3
		l0,0c-3.2-3.5-7.8-8.7-10.4-11.7l-0.1-0.6c4.8-5.5,4.9-5.7,14.5-16.2l0,0.3C410.4,196.8,410.6,206.4,408.5,215.8H440
		c-0.1-0.4-0.2-0.8-0.4-1.2c-0.8-5.9-1.3-11.9-0.5-17.7c0.8,0.4,1.6,0.9,2.4,1.4c1.4,0.7,2.9,1.3,4.3,1.9c0.2,1.9-1.1,4.8,1.3,5.8
		c2.5-0.2,2.9-2.8,4.2-4.3c2.2,0.3,4.5,0.9,6.8,1c0,5.8,0.1,8,0.1,13h3.4l-3.4,0c0,1.1,0,2.5,0,4c-0.8-0.9-1.7-1.6-2.6-2.3
		c-2.4-1.3-6.1-1.7-8.5,0.1c-1.5,1-2.8,2.6-3.4,4.4c0.1,0.9-0.8,1.9-0.5,3c-0.1,0.1-0.3-0.1-0.4-0.1c-1-1.9-1.6-3.9-2.1-6
		c-0.3-1-0.4-2.1-0.7-3H408.5L408.5,215.8z M454.5,186c0.2,1.8,1.3,3.3,2.8,4.4c1.6,1.3,2.6,1.5,4.8,1.5c2.1,0,3.2-0.2,4.8-1.5
		c1.5-1.1,2.6-2.6,2.8-4.4c0.3-3.2-2.7-6.6-1-10c1-1.2,3-3,3-3.3c-0.1-0.3-0.5-0.5-0.5-0.5c-2.9,0.4-6,0.7-9.1,0.7
		c-3,0-6.1-0.3-9-0.7c0,0-0.5,0.2-0.5,0.5c-0.1,0.4,2,2.2,3,3.3C457.2,179.4,454.2,182.8,454.5,186L454.5,186L454.5,186z"/>
	<path class="st0" d="M229,525.8c-1.7-3.3-2.6-6.7-2.9-10.5c-0.2-13.1,0-26.3,0-39.3c0-9.9-0.5-20.3,5.1-28.6l-0.7-1.4
		c-7.7-0.1-15.6-0.1-23.5,0l-0.8,1.6l1.4,1.5c0.5,0.5,0.8,1.3,1.1,1.7c3.6,7.2,1.9,15.8,2.4,24.2c0,10,0,20.1,0,30.3
		c-0.1,4-0.1,9.1-1,13.1c-0.6,4-2,8.2-5.7,10.6c0.1,0.6,0.5,1.4,0.8,1.8c8.5,0,16.3,0,25.4,0c0.8-0.4,1.2-1.2,1.3-1.9
		C230.7,528,229.8,526.7,229,525.8L229,525.8L229,525.8z M290.3,446.1c-0.3,0.6-0.8,1.3-0.9,1.9c1.3,0.6,2.3,1.6,2.8,2.9
		c1.9,5.2-0.2,10.4-1.5,15.1c-5,14.3-9.7,28.2-14.9,42.9c-1.9-4.4-2.9-9-4.6-13.5c-0.1-0.3-6.9-21.2-10.3-31.6
		c-1.5-5.1-2.5-12,2.2-15.8c-0.1-0.7-0.4-1.3-0.9-1.9c-8.7-0.1-17.3-0.1-26-0.1c-0.3,0.2-0.4,0.7-0.6,1c-0.4,1.3,1.3,1.2,1.8,2.1
		c6.1,5.9,7.2,14.4,10.1,21.7c6.6,20.3,13.7,39.6,20.5,59.5c3.4,0.3,6.8-0.1,10.2,0c1.2,0.4,0.8-1.1,1.4-1.5c0,0,1.4-4,1.9-5.7
		c6.5-17.3,12.1-34.8,18.6-52c3.3-8.4,5.7-18,14-23.3c0.3-0.6-0.2-1.4-0.4-2C305.9,446,298.2,445.8,290.3,446.1L290.3,446.1
		L290.3,446.1z M341.2,521c-0.6,0.1-1.4,0.1-1.8-0.4c0.2-5.7,0.3-23.8,0.2-27.4c0.2-0.7-0.3-1.4,0.4-1.9c6.8,0,14,1,18.7,6.2
		c0.5-0.1,1-0.4,1.5-0.6c0-5.2,0.1-10.5,0.2-15.6c-0.6-1.9,1.2-5-1.5-5.3c-1.8,1.9-3.7,3.7-6.2,4.6c-4.1,1.5-8.5,1.8-12.7,1.6
		l-0.3-0.2c-0.4-8.6-0.1-17.4,0-25.9c0.1-0.1,0.2-0.3,0.3-0.3c8.7,0,18,0.6,24.2,7.2c0.6,0.1,1.1-0.3,1.5-0.4
		c-0.4-5.4-0.9-10.7-1.4-16.1c-8.8-0.2-17.8-0.2-26.6-0.2c-5.8-0.1-12.1,0.1-18.2-0.1l-0.7,2c1.3,0.7,2.5,1.7,3.2,3
		c4.1,7.1,2.4,16,2.7,24c-0.1,12.6-0.1,25.3-0.3,37.9c-0.8,5.6-1.7,11.4-6,15.3c-0.2,0.2-0.8,0.3-0.8,0.8c0.5,0.5,0.2,1,0.7,1.4
		c15.3,0.2,30.8,0.4,46.1,0.4c2.1-6.4,4.8-12.8,6.7-19.2c-0.4-0.4-0.7-0.8-1.3-0.7C362.4,518.5,351.9,521.6,341.2,521L341.2,521
		L341.2,521z M698.9,511.4c-0.1,0.1-0.6,0.2-0.4,0.5c-7.3,8.1-18.3,10.5-29.4,9.8c-0.6-2.6-0.1-5.1-0.3-7.9
		c0.1-13.2-0.4-26.7-0.1-39.9c0.1-8.8-0.7-19.3,6.9-25.6c0.3-0.5-0.1-1.2-0.5-1.7c-3.8-0.2-7.5,0-11.4-0.2c-4.8,0-9.6,0.1-14.3,0.1
		c-0.9,0.1-0.9,1-1.4,1.7c0.3,0,0.5,0.2,0.6,0.4c4.3,2.3,4.8,7.5,5.2,11.9c0.6,6.6-0.1,13.2,0.3,19.8c-0.1,10.6-0.1,21.2-0.1,31.9
		c-0.3,4-0.5,8.6-2.3,12.3c-0.6,2.3-2.1,4.1-3.9,5.5c0.2,0.6,0.3,1.1,0.7,1.6c14.9,0.2,30,0.3,45.1,0.1c2.2-5.2,3.7-10.5,5.7-15.6
		c0.3-1.2,0.8-2.4,1-3.6C699.8,512.1,699.6,511.5,698.9,511.4L698.9,511.4L698.9,511.4z M635.5,458.9c-3.9-5-8.9-8.8-14.4-11.3
		c-0.7-0.3-1.4-0.5-2-0.7c-12-3.5-25.2-0.7-33.4,8.3c-1.1,1.1-1.8,2.2-2.8,3.3c-1.7,2.7-2.8,4.9-3.9,7.5c-4.3,10-5.9,22.8-3.5,33.9
		c1.8,7.5,4.4,14.7,9.3,20.8c5.7,7.9,14.6,12.5,24.5,12.6c9.5,0.5,17.6-3.5,24.2-9.7c5-5.4,7.9-12.3,10.1-19.2c2-9.8,2-20-0.6-29.8
		C641.2,468.9,638.7,463.6,635.5,458.9L635.5,458.9L635.5,458.9z M627.4,505.1c-0.5,0.6-0.2,1.3-0.5,2.1c-1.8,7.3-7,15.2-15.2,16
		c-3.9,0.3-7.3-0.8-10.1-3c-3.4-2.4-5.7-5.5-7.4-9.1c-1.8-3-2.4-6.4-3.4-9.6c-0.4-1.9-0.9-3.9-1-6c-1.2-5.6-0.8-11.9-0.1-17.9
		c1-4.8,1.8-10,4.9-14.1c0.3-0.2,0.4,0.3,0.6,0c-0.1-0.2-0.3-0.1-0.3-0.3c1.6-2.4,3.8-4.6,6.5-6c1.9-1,4.7-2.1,7.1-1.6l0.2,0.2
		c0.1-0.5,0.5-0.1,0.8-0.2c0.5,0.2,1.3,0,1.8,0.2c4.9,1.2,9.2,5,11.7,9.3c-0.2,0.5,0.5,0.4,0.5,0.8
		C629.1,477.6,630.2,492,627.4,505.1L627.4,505.1L627.4,505.1z M540.5,447c-4.3-1-8.8-1-13.3-0.7c-2.3,0.6-4.9,1.2-7.3,2.1
		c-5.2,1.9-9.3,5.9-12.8,10c-1.9,2.4-2.9,5-4.4,7.5c-1.8,4.9-3.5,10.1-4.2,15.6c-0.8,5.3-0.4,10.7,0.1,15.8c1,5.6,2.7,11,5,16.2
		c2.5,4.6,5.9,9.5,10.3,13.3c2.9,2.4,6.2,4.2,9.6,5.3c2.2,0.5,4.4,1,6.8,1.3c11.2,1,21.2-3.7,28.4-12.2c12-16.3,12.1-41.5,2-58.5
		C556.3,455,548.5,449.2,540.5,447L540.5,447L540.5,447z M548.3,512.5c-2.8,5.7-8.6,11.6-15.5,11.1c-5.8-0.4-10.9-4.9-13.8-9.7
		c-3.5-5.3-4.7-11.3-5.7-17.6c-1-6.1-0.7-12.6,0.1-18.6c0.3-2.1,1.1-4.4,1.6-6.5c0.1-1.4,0.9-2.7,1.4-4.1
		c2.6-5.7,7.8-10.7,14.2-11.2c5.5-0.5,10.2,2.7,13.4,6.4c6.7,8.6,8,19.6,8.1,30.3C552,499.5,550.9,506.6,548.3,512.5L548.3,512.5
		L548.3,512.5z M422.9,513.6c-4.7-7.7-10.1-15.2-14-23.2c2.4-1.7,5.3-3.2,7.8-4.9c5.2-3.6,8.8-9.6,9.4-15.8
		c-0.1-1.1-0.1-2.6-0.3-3.9c-0.6-7.4-5.9-14-12.8-16.5c-3.7-1.7-8-2.2-12.2-2.6c-8-0.1-16.2-0.1-24.1-0.1c-0.6,0.6-0.9,1.5-1,2.2
		c1,0.3,1.1,1.5,2,1.9c2.2,3.3,2.8,7.3,2.8,11.4c0,15.6,0.1,31.6,0.1,47.3c0,2.9-0.5,5.7-0.8,8.4c-0.4,3.1-1.1,5.9-2.5,8.5
		c-0.6,1.7-2.3,2.7-3,3.9c0.4,0.3,0.5,0.9,1,1l20.1,0.1c1.9-0.4,4.7,1.1,5.3-1.5c-2.8-2.8-4.6-6.3-5.2-10.1c0-0.1-0.3-16.9-0.5-24.8
		c0-0.3,0.3-0.5,0.5-0.4c3,5.5,5.5,10.3,8.7,15.2c4.6,7.7,10.1,16.5,18.5,20.5c0,0.2,0.3,0.4,0.3,0.1c4,1.8,9.3,2.6,13.8,1.3
		c0.2-0.4,0.5-0.9,0.5-1.3C430.8,526.3,427.3,519.4,422.9,513.6L422.9,513.6L422.9,513.6z M401,483.9c-1.9,0.7-3.9,1.7-6,1.5
		c0.1-4.8,0.2-16.9,0.1-16.8c0-4.7,0.1-7.8,0-11.6c0.6-0.2-0.5-0.6,0.3-0.8c1.7,0.1,3.5,0,5,0.6c4.1,0.4,7.5,2.6,10,5.9
		c2.8,3.9,2.5,9.2,0.4,13.3c-0.5,0.8-1.2,1.6-1.7,2.4c-1.4,1.2-2.1,2.2-4.3,3.5C403.3,483,402.2,483.2,401,483.9L401,483.9
		L401,483.9z M493.1,462c-4.4-10-15.1-15.2-25.8-15.4c-7.9-0.1-16-0.1-24.1-0.1c-0.5,0.5-0.8,1.2-1.2,1.9c0.6,0.6,1.2,1.3,1.9,2.1
		c2.5,3.5,3.2,7.7,3.3,12c-0.1,17-0.5,33.9-0.4,51c-0.1,5.5-1.1,11.3-4.1,16c-0.3,0.6,0.4,1.2,0.8,1.8c7.2,0.1,14.6,0.2,21.9,0.1
		c0.3-0.3,0.8-1,0.8-1.4c-2.4-2.5-3.5-5.7-4.2-8.8c-1-8-0.3-14.8-0.6-23c0-0.2,0-0.6,0.3-0.8c11.7-0.9,23.9-3.5,29.8-15.2
		c2.5-5,3.7-8.5,3-14.1C494.4,465.5,493.4,462.7,493.1,462L493.1,462L493.1,462z M480.2,474.7c-0.2,0.7-0.4,1.3-0.6,2
		c-1.2,3.9-4.8,7.4-8.4,9.3c-2.7,1.3-6,1.8-9.3,1.7c-0.1-0.2-0.5-0.1-0.4-0.3c0.3-10.3-0.1-20.6,0.4-30.8c6.7-0.3,13.9,1.2,16.8,7.6
		C480.4,467.3,480.6,471.3,480.2,474.7L480.2,474.7L480.2,474.7z M201.9,510.7c-3,3.5-7,6.2-11.3,7.8c-5.5,2-12.2,2.8-18.4,2.4
		c-0.4-16.6-0.2-33.3-0.2-49.8c0.2-8.4-0.1-17.8,7.1-23.4c-0.1-0.7-0.4-1.2-0.9-1.8c-8.8-0.1-16,0-24.4-0.1c-0.7,0.3-1,1.2-1.3,1.8
		c2,1.7,3.7,3.9,4.1,6.6c1.2,4.8,1.1,10.5,1.1,15.7c-0.1,14.6,0.2,29.4-0.4,44.1c-0.3,5.5-1.4,11.4-5.9,15.1
		c0.1,0.5,0.3,1.1,0.6,1.5c14.7,0,29.6,0.6,44.4,0.3c2.3-6.3,4.9-12.6,6.7-19C202.7,511.2,202.3,510.7,201.9,510.7L201.9,510.7
		L201.9,510.7z"/>
	<path class="st0" d="M441.9,1076.2c0.9-13.8,1.4-27.7,2.1-41.4c-1.6-0.1-3.1-0.5-4.8-0.4c-3.5,3.4-6.9,6.4-10.8,9.1
		c-1.3-0.3-0.6,1.3-0.8,2c0,0.3,0.3,0.2,0.5,0.3c3.5,1.8,5.3,6,5.1,9.9c0.5,4.9-0.7,10.9-0.7,16.4l-0.3,0.3l0.3,0.2
		c-0.3,0.7,0,1.7-0.5,2.3c-0.6,4.2-2.1,8.2-6.1,10c0.1,0.5,0.3,1,0.6,1.4c6,0.3,12,0.8,18,1c0.6-0.2,0.6-0.9,1-1.4
		c-2.3-2.1-3.1-5-3.6-7.7C441.9,1077.7,442.4,1076.8,441.9,1076.2L441.9,1076.2L441.9,1076.2z M339.3,1062.1
		c-4.5-1.3-9.9-1.3-12.6-5.8c-0.8-2.1-0.5-4.7,0.9-6.5c2.1-2.3,5.1-3.4,8.4-3c2.6,0,4.6,1.5,6.7,2.8c0.5,0.6,1.1,1.5,2,1.9
		c0.4-0.5,1.4-1.1,1.3-1.7c-0.8-3-1.7-6.1-2.6-9.1c-2.8-0.2-5.3,0.1-7.9-0.1c-4.7-0.1-9.3,0.8-13.1,3.1c-2.5,2-4.4,4.9-5.5,7.9
		c-0.7,2.8-0.5,6.2,0.9,8.8c2.7,5.7,9.3,7.8,14.9,9.3c3.7,1.3,7.9,1.9,10.8,5.2c1.9,1.9,1.7,5.2,1.2,7.7c-0.7,3.4-4.1,5-7,5.9
		l-2.5,0.1c-4.7,0-8.4-3.1-11.5-6.2c-0.6,0.4-1.2,0.9-1.5,1.4c1.2,3.8,2.5,7.4,3.9,11.1l0.4,0.4c5.7-1.6,11.5,0.2,17.2-2.1
		c3.1-1,5.8-3.1,7.6-5.8c3.5-4.2,4.1-11.2,1.7-16.1C350.1,1066.1,344.7,1063.5,339.3,1062.1L339.3,1062.1L339.3,1062.1z
		 M309.4,1085.4c-1.5,1.9-3,3.5-4.8,5.4c-2.1,1.4-4.4,3-7,4.3c-2.8,0.8-5.3,2.2-8.3,2.6c-1.2-3.1-1.7-6.2-2.5-9.3l0.1-0.4
		c-0.8-2.2-0.8-4.5-1.7-6.8c-0.5-0.8,0.7-0.8,1.1-1.1c4.5-1,10.1-1.4,13.5,2.3c0.6,0.6,1.1-0.4,1.6-0.7c-1.2-5.4-2.8-10.8-4.2-16.2
		c-0.3-0.3-1.1-0.6-1.7-0.5c-0.7,3.2-3.7,5.5-6.3,7.2c-1.9,0.8-4.1,1.7-6.1,2.3c-0.8-0.2-0.3-1.1-0.8-1.6c-1-4.2-1.9-8-3.2-12
		c0.1-1.7,2.1-1.6,3.4-2c5.5-1.9,12.4-2.1,17.6,0.8c1,0.6,0.7-0.8,1.6-1c-1.2-3.2-2.8-6.4-4.4-9.3c-10.6,2.1-21,4.8-31.4,7.3
		c-0.6,0.3-1.9,0.1-1.9,1c-0.4,1.5,2.1,1.2,2.5,2.5c1.8,1.1,2.8,3.3,3.6,5.3c1,2.1,1.5,4.4,2.4,6.6c0.9,4.6,2.2,9.2,3.5,13.7
		c0.6,3.5,1.7,7.2,1.8,10.8c-0.1,1.2,0.2,2-0.2,3.2c-0.1,2.4-0.9,4.4-2.4,6.3c0.1,0.7,0.8,1.2,1.2,1.4c10.6-2.7,21.4-5.6,32.1-8.1
		c0.7-0.3,1.9-0.1,2.2-0.9c-0.1-4.1-0.1-8.5-0.2-12.5C310.3,1085.7,309.9,1085.4,309.4,1085.4L309.4,1085.4L309.4,1085.4z
		 M526.9,1065c1.1-6-0.6-12.2-4.9-16.4c-2.6-2.1-5.4-3.7-8.8-4.2l-0.7-0.2c-5.8-0.6-11.1,1.5-14.8,5.7c-0.9,1-1.6,2-2,3.2
		c-2.5,4.7-2.7,10.6,0.4,15c3.6,4.9,10.2,7.1,16,5.8c-1.4,2.5-4.1,4.6-6,6.9c-5,4.5-10.6,7.9-16.9,9.5c-1.3,0.1-2.5,0.7-3.7,0.1
		c0,0.7,0.2,1.3,0.6,1.9c4.2,1.1,8.6,1.9,12.9,2.8c2.4,0.1,4.3-1.8,6.5-2.8c6-3.6,11.7-8.7,15.7-14.3
		C523.5,1074.1,525.9,1069.7,526.9,1065L526.9,1065L526.9,1065z M516,1064.8c-0.5,0.4-1.2,1.1-1.6,1.6c-1.9,1.2-4.8,1.6-6.9,0.6
		c-1.2-0.4-2.1-1.2-3.2-2.1c0.1-0.1,0.1-0.1,0.1-0.3c-0.1-0.4-0.3,0-0.4-0.1c-0.7-1.6-1.6-3.3-1.1-5.2c0.2-2.3,1.3-4.8,3.1-6.2
		c2-1.7,5.3-2.4,7.8-1.2c1.2,0.5,2.2,1.2,2.9,2.3c0.3,0.6,0.4,1.3,0.8,1.8C518.3,1058.9,517.6,1062.3,516,1064.8L516,1064.8
		L516,1064.8z M565.2,1076.4c1.2-2.1,1.8-4.4,2.1-6.7c0.2-3.3-0.4-6.4-2.2-8.9c-0.4-0.7-1.1-1.4-1.4-2.1c-0.6-0.6-1.3-1.2-1.7-1.8
		c-5.2-4.5-13.8-4.9-19.9-2c-0.8,0.2-1.5,1-2.4,1c-1,1-2.6,1.9-3.7,3c-0.8,1-1.8,1.6-2.4,2.6c2.3,3.1,4.8,6,7.4,8.7
		c0.7,0.1,1.4,0,1.9-0.4c-0.2-1,0.1-1.9,0.3-2.8c0.8-2.8,2.9-5.9,6.1-6.4c2.3-0.5,4.5,0.2,6.1,1.8c0.1,0.8,1.1,0.7,1.2,1.5
		c2.1,4.6,0.1,9.9-3.3,13.5c-8,8.2-18.3,14.3-28.8,18.3l-0.1-0.2c-1.5,0.9-3.5,1.2-5.2,2c0.5,0.6,0.1,1.6,0.6,1.9
		c12.7,3,25.5,6.2,38.2,9.4c2.6-3.2,4.6-6.4,6.8-9.7l0.1-0.8c-0.5-0.1-0.3-1-0.9-0.8c-2.1,1.2-4.3,1.4-6.4,1.7
		c-4,0.3-7.6-0.3-11.3-1c-1.6-0.4-3.4-0.3-4.8-1.3c-0.1-0.3,0-0.5,0.3-0.7C551.2,1091.9,559.9,1085.6,565.2,1076.4L565.2,1076.4
		L565.2,1076.4z M412.1,1055.7c-2.3-0.5-4.9,0.1-6.3,2.1c-1.1,1.5-1.7,3.9-0.7,5.7c0.9,1.9,2.8,3.6,5.2,3.4c2.2-0.1,4.3-1.5,5.3-3.6
		c0.1-1.8,1-4.2-0.5-5.6C414.3,1056.7,413.2,1056.1,412.1,1055.7L412.1,1055.7L412.1,1055.7z M479.7,1040.4c-1-0.5-1.9-1.2-2.9-1.7
		c-4.8-2.9-11.4-1.7-15.6,1.6c-4,3.4-6,8.6-4.3,13.7c0.6,2.8,3,4.8,4.9,6.9c-0.8,0.5-1.7,0.8-2.5,1.2c-1.3,1.3-2.8,1.5-4,2.9
		c-4.6,4-6.3,10.2-4.3,15.8c1,3.4,4,6.5,7.2,8.2c3.9,1.6,9.1,2.5,13.3,0.9c5.5-1.7,9.6-7,10.4-12.6c0.8-5.1-1.7-10.6-6.2-13.8
		c-0.3-0.2-0.8-0.1-1-0.6c4.5-1.7,8.7-6.1,9.3-10.8C484.9,1047.6,483.1,1043.4,479.7,1040.4L479.7,1040.4L479.7,1040.4z
		 M473.2,1076.9c-0.3,2.8-2.5,5.7-5.2,6.6c-2.5,1-5-0.1-7.1-1.2c-0.9-0.9-1.7-1.9-1.9-3.2c-1.1-2.4-0.5-5.5,0.6-7.9
		c1.2-2.8,4.1-4.9,7.2-4.9c2.3,0.3,4.9,1.2,5.8,3.6C473.2,1072.2,474.1,1074.4,473.2,1076.9L473.2,1076.9L473.2,1076.9z
		 M474.1,1056.1c-1.5,1.4-3.7,1.8-5.6,1.5c-1-0.3-2.2-0.7-2.8-1.5c-1.3-0.9-1.5-2.4-2-3.8c0-2.5,0.4-5.3,2.5-6.9
		c1.5-1.3,3.6-1.9,5.7-1.4c1.8,0.6,3.3,2.1,4.2,3.8C476.8,1050.7,476.7,1054,474.1,1056.1L474.1,1056.1z M386.2,1034.6
		c-10.1,1-20.1,2.1-29.9,3.7c-0.4,4-0.7,8-0.8,12.1c0.4,0.5,1.2,0.8,1.8,1c0.5-0.8,0.9-1.6,1.3-2.4c2.6-4.7,8.1-6.3,13.1-6.6
		c0.8,4.4,1.1,9.3,1.5,13.6c0.4,7.6,2.1,15.5,1,23.2c-0.8,2.6-1.3,5.7-4,7.3c0.3,0.5,0.5,1,0.9,1.4c6.4-0.6,12.9-1.2,19.3-1.9
		c-1.3-2.2-4.3-4.8-4.6-8.2c-0.4-1.8-0.8-3.9-0.9-5.9l-0.3-0.6c-1-9.7-1.7-19.3-2.5-29c0.4-0.4-0.4-0.8,0.1-1
		c3.5-0.7,6.9,0.4,10,1.3l2.7,1.8c0.4,1,1.7,1.4,2.2,2.4c0.7,0.9,1.4-0.1,2.1-0.6l-3.6-12C392.5,1034.1,389.3,1034.6,386.2,1034.6
		L386.2,1034.6L386.2,1034.6z"/>
	<path class="st4" d="M479.2,968.3c-1.7-0.9-2.8-2.5-3.9-4.3c-8.3-14.6-8.8-34.6-11.6-54.3c3.8,2.7,10.5,6.5,16.8,3.9
		c-11.4-9-20.1-24.2-16.8-45.2c-11.5-10.5-25.9-21.7-33.1-36.6c-2.5-5.1-5.1-11.8-3-18.1c5.8,17.3,15.7,28.4,28.4,40
		c13.6,12.4,29.5,25.3,27.1,52.5c3.5-1.8,4-7.1,4.3-11.2c2.6-34.5-23.7-47.6-40.5-63.3c-5.4-5-10.9-11.2-12.5-18.5
		c5.5,3.6,10.9,10.1,18.5,14.6c12.1,7.3,28.2,9.6,40.1,2.6c3.4-2,8.1-4.4,8.6-8.2c-12.6,0.5-22.1-1.3-31-3.9
		c-6-1.7-12.7-3.6-15.9-7.8c10.3-0.9,18.8-3.6,21.5-12.1c-6.7,0.2-15.8,1.5-20.2-1.7c12.1-2.1,24.3-4.1,27.1-15.5
		c-8.8,0.2-17.7,4.9-26.7,2.1c11.5-4.3,26.6-5,28.9-18.5c-8.9,0.4-19.1,7.8-28.9,6c11.7-5.8,29.5-7.8,29.3-24.1
		c-7,0.8-15.3,8.4-22.8,7.3c32.1-19.5,64-44.6,85.2-77.5c9.1-14.2,26.1-42,9.5-58.6c-0.4,0-0.9,0-1.3,0c0,0.5-0.5,0.6-0.4,1.3
		c-2.1,22.9-10.8,44-21.1,60.3c-10.1,15.9-22.3,29.8-36.2,41.3c-14.1,11.8-30.9,21.2-44.8,32.7c-7.7,6.4-11.7,13-15.5,23.3
		c-3.7,10-8,19.1-15.1,23.7c-2.3,1.4-6,4.1-9.5,2.2c3-3.4,6.3-4.6,8.2-6.9c3.9-4.7,6.1-13,8.6-21.1c2.4-7.7,5.3-14.8,9-21.1
		c13.5-22.6,42.5-38.6,60.7-59.4c9.2-10.5,19.5-23.4,20.7-39.6c0.9-12.9-4.3-18.3-13.8-20.7c0.6,4.3,3.7,8.3,3,15.5
		c-1.4,14.2-12.9,30-21.1,40c-9,11-20,20.7-31,30.1c-10.2,8.8-23,18.7-29.7,31.4c-3.2,6-5.9,15.9-7.8,22.8
		c-1.1,4.4-3.3,21.4-9.5,21.1c-3.6-0.2-5.2-8.1-5.2-13.8c0.4-29.1,27.6-42,37-61.1c0.8-1.7,1.9-5.3,2.1-7.8c1-9.9-4.2-13.5-8.6-17.7
		c12.5,1.7,28.9,0.8,28-12.1c-2.1,0.7-3.3,3-6,3.9c-18.1,5.9-49.1-21.9-62.4-5.6c-1.6,0.8,0.9,3.4-0.4,3.9c-3.3,0-6.7-0.1-9.5,0.4
		c-0.8-2.5-1.8-4.7-2.6-7.3c-1.7,0.7-4.4,0.5-6,1.3c1.5,1.8,2.8,3.8,3,6.9c-6.8,1.8-13.1,4.2-14.2,11.6c4.4-1.5,10.1-3.9,15.1-3.4
		c0,3.2-0.6,5.7-1.7,7.8c-1.2,1.4-6-0.8-6.4,1.3c-0.4,3.2,3.7,2,4.3,4.3c-1.3,2.6-2.8,4.9-4.7,6.9c-6.2-7.5-13.9-0.4-20.7,1.3
		c-1.7,0.4-2.9-0.2-4.3,0.8c5.3,9.3,15.3,0.2,23.3-0.4c-2.4,5.1-13.9,6.8-15.9,12.9c-1.5,4.5,0.6,9.9,6.9,9.9
		c-1.5-5.6,5.8-7.8,7.3-12.1c0.5-1.4-0.5-3.4,0-4.7c0.8-2.2,3.4-1.8,4.7-3.4c1.5,11.8,20.7,11.2,21.1-1.3c-2.8,1.1-3.8,3.3-6.4,3
		c-3.3-0.4-5.8-7.1-12.1-4.7c2.7-2.7,4.2-6.8,6.9-9.5c10.2-1.4,25.8-6.2,29.7,4.7c0.9,2.5,0.8,6.8-0.4,9.9c-2.9,7.4-12.3,14-19,19.4
		c-20.3,16.3-46.7,34.1-49.1,66.7c-2.1,29.5,13.5,46.6,31.4,57.3c17.1,10.2,36.3,14.8,59,18.5c3.9,8.5,5.2,22.9,1.3,32.3
		c4.7-0.9,7.3-6.2,10.4-7.3c2.2,17.1,6.1,32.3,11.6,45.6c1.8,4.4,5.2,8.5,5.2,13.4c-8.4,2.6-25.7-10.7-28,2.1
		c-7.8-1.9-13.3,5.6-8.2,9.9c2.5-2.9,5.4-5.6,11.2-5.2c-3.8,2.1-7,10.6,0.9,10.8c0.5-1.2,1.1-2.8,2.2-3.9c6.8-7,37.4-6.2,49.9-3.5
		c2.8,0.6,4.9,4.2,6.5,4.7c2.4-2,6.1-3.7,5.2-8.2C501.6,965.8,486.2,971.9,479.2,968.3L479.2,968.3L479.2,968.3z M385.4,701.7
		c0.9-2.2,1-5.3,1.7-7.8c3.8,0,7.7-0.2,9.9,1.3C396.9,701.2,389.9,700.3,385.4,701.7L385.4,701.7L385.4,701.7z M403.9,690.1
		c0-1.1,0-2.3,0-3.4c5.1,0.3,9.6,1.3,13.8,2.6C414,690.5,407,693.4,403.9,690.1L403.9,690.1L403.9,690.1z M523.6,714.7
		c9.6-6.4,19-15.3,28.4-25.4c9.8-10.5,24.5-24.9,18.1-43.5c-0.6,0-0.6-0.6-1.3-0.4c-9.1,25.1-23.1,44.7-39.6,61.6
		C527.1,709.1,523.6,711,523.6,714.7L523.6,714.7L523.6,714.7z M459.9,737.5c-3.6,3.2-8.5,6.1-9.9,11.2c4.7-0.6,8.1-4.8,12.1-7.7
		c20.8-15.6,40.7-28.3,56.4-49.1c7.9-10.5,21.1-29.8,8.6-42.6c-0.3,0-0.6,0-0.9,0c0,0.4,0,0.9,0,1.3c0.3,14-6.1,25.1-12.9,34.9
		C498.5,706.7,478.3,721.1,459.9,737.5L459.9,737.5L459.9,737.5z M489.6,743.9c2,4,1.5,10.6-0.9,13.8c24.7-13.9,49.1-30,65.4-52.1
		c5.4-7.4,11.9-15.8,12.5-26.3c-0.3,0-0.6,0-0.8,0C544.7,705.2,519.4,726.8,489.6,743.9L489.6,743.9L489.6,743.9z M489.6,762
		c2.1,6-2.1,11-2.6,14.2c20.7-8.7,39.8-21.3,53.4-37.4c4.3-5.2,10.7-11.6,9-19.8C532.3,736.1,513,751.2,489.6,762L489.6,762
		L489.6,762z M487,779.7c0.3,3,0,6.1-1.3,8.6c-1.3,2.7-5,4.1-3.9,6c13.1-3.2,24.7-8.9,34.5-15.9c9.3-6.7,19.4-15.1,22.4-28
		c-0.3,0-0.6,0-0.9,0C523.4,762.8,506.9,772.9,487,779.7L487,779.7L487,779.7z M480.5,798.2c0.6,9.1-5.6,11.3-10.3,15.1
		c13.6-0.8,25.2-5.8,34.4-11.6c9.1-5.7,18.8-12.4,22.8-23.2c-0.3,0-0.6,0-0.9,0C513.6,787.4,499.4,795.1,480.5,798.2L480.5,798.2
		L480.5,798.2z M511.6,805.5c0-0.7-0.3-1.1-0.9-1.3c-9.3,5.3-19.3,10-32.3,11.6c4.7,1.7,17.5,4.1,23.7,1.7
		C507,815.6,508.3,808.4,511.6,805.5L511.6,805.5L511.6,805.5z M455.6,832.2c-0.4,0-0.9,0-1.3,0c0.1,0.5-0.1,1.2,0.4,1.3
		c11.3,10.1,27.1,19.6,37.9,33.6c13.5,17.4,24.4,43,15.9,69.7c4.8-4.1,8.2-10.6,10.7-16.8c2.7-6.6,4.7-14.6,4.8-23.2
		C524.3,853.8,486,844.3,455.6,832.2L455.6,832.2L455.6,832.2z M417.7,908.4c4,2.3,6.5,6.1,12.5,6.4c-4.5-8-7.9-17-8.2-29.3
		c-10-1.6-18.1-5.2-26.2-8.6c-0.8,12.8-3.7,23.3-7.8,32.7c7,0,11.2-5.1,15.1-6.9c-4.5,16.4-13.6,34.1-22.4,48.7
		c-2.2,3.7-6.3,12.4-10.3,13.8c-7.7,2.7-15.9-7-24.5-1.3c-0.7,0.9,0,3.2-0.9,3.9c-7.1-2.7-16.2,4-9.9,9.5c3-2.9,7.3-6.8,13.3-5.2
		c-4.9,1.4-9.6,11.4-0.4,11.6c0.7-1.4,0.8-3.2,1.7-4.3c12.1-5.8,38.1-5.8,51.7-1.3c1.4,0.5,0.7,3,2.1,3.4c3.3-1.5,5.8-5.5,4.7-9.1
		c-2.2-7.5-17.5-2.5-23.2-5.6c0.8-5.3,4.9-9,7.7-12.9C402.6,940.5,414.8,928.3,417.7,908.4L417.7,908.4L417.7,908.4z M375,807.2
		c-1.8-20.5,8.5-37,21.1-46.9c0.5-0.1,0.8,0.1,0.9,0.4c-5.9,11.7-12.6,21.7-11.6,39.6c1.1,19.2,10.7,34.5,22,44.3
		c3.8,3.3,9,5.2,11.6,9.5C397.4,847.5,377.3,832.9,375,807.2L375,807.2L375,807.2z"/>
	<path class="st0" d="M68.9,315.2c-0.1,0.5,0.1,1.1,0.5,1.4c4.8,0,9.3,0.3,13.7,0c0.3-0.5,0.7-1,0.6-1.5c-1.6-0.5-2.7-2-3.2-3.5
		c-0.2-1.2-0.4-2.3-0.5-3.4c-0.1-1.5-0.2-2.9-0.2-4.5c-0.1-2.3,0-4.6-0.1-6.9c1.1-2.6,2.6-5.2,4-7.8c1.8-3.2,3.9-7.3,6.1-10.1
		c0-0.3,2.6-2.6,2.9-2.9c1-0.8,2.1-1.4,3.4-1.9c0-0.2-0.1-0.4-0.1-0.5l0,0c-0.1-0.2-0.3-0.4-0.4-0.6c-4.4-0.1-8.5-0.1-12.9,0
		c-0.5,0.3-0.5,0.8-0.8,1.3c1.1,1.1,1.5,2.2,1.6,3.3c0.1,1.9-4.3,11-5.7,12.5c-1.2-1.9-2.3-3.8-3.4-5.8c-0.8-1.5-2.5-4.4-2.6-6.1
		c0-0.6,0.1-1.2,0.3-1.8c0.4-1.2,1.7-2.1,2.8-2.5c0-0.4-0.1-0.7-0.4-1c-6-0.3-11.8,0.1-17.6-0.1c-0.5,0.5-0.6,1.1-0.8,1.7
		c1.8,0.5,3.2,1.3,4.5,2.3c2.4,2,4,4.7,5.7,7.6c0.1,0,6.1,10.6,6.6,11.6v3.6c0,0.8,0,1.6,0,2.4c0,1.4,0,2.8-0.1,4.2
		c-0.1,1.1-0.2,2.1-0.5,3.2c-0.1,0.5-0.3,1.1-0.5,1.6C71.4,312.6,70.2,314.2,68.9,315.2L68.9,315.2L68.9,315.2z M554.9,273.7
		c-0.6,0-0.9,1.1-0.6,1.3c0.6,0.5,1.6,0.9,2.2,1.5c0.7,0.8,1.1,1.8,1.2,2.9c0.1,1,0.2,6.9,0.2,12.9c0,6.4-0.1,12.9-0.1,12.9
		c0,2-0.4,5.2-1.5,7.4c-0.4,0.8-0.8,1.4-1.3,1.9c-0.7,0.6-1.6,0.6-1.5,0.7c0.3,0.6,0.4,1.7,0.9,1.7c0.4,0,3.3-0.1,6.4,0
		c3.7,0.1,7.4,0.2,7.2,0.3c-0.3,0.1,0.2,0.2,0.6-0.4c0.2-0.2,0.8-1,0.5-1.3c-0.4-0.3-1.5-0.4-2.5-1.7c-0.7-1-1.1-2.2-1.3-3.4
		c-0.2-1.7-0.1-3.4-0.2-5.1c-0.1-4.7-0.2-10.1-0.2-10.1l17.1,22h11.4c0,0,0.1,0.2,0.6-0.7c0-0.1,0.3-0.4,0.2-0.5
		c-0.8-0.5-1.6-0.9-2.5-1.4c-0.5-0.2-0.9-0.5-1.3-0.9c-3.5-2.9-7.2-7.1-10-10.6c-4.3-5.4-8.4-11.3-8.4-11.3c0.2-0.4,3.5-3.9,6.6-7.2
		c3-3.2,6.7-6.2,6.7-6.2c1.9-1.7,3.8-2.9,6.4-3.3c0.1,0-0.7-1.1-1.1-1.2c-0.6-0.2-2.9-0.1-5.1-0.1c-3.6,0-7.7,0-9,0
		c0,0-1,0.6-0.5,1.4c0.3,0.4,0.8,0.8,0.5,2.1c-0.4,1.6-2.1,4-4.2,6.5c-2.5,3-7,7.6-7,7.8l0.3-9.9c0-1.3,1.2-4.1,2.8-5.7
		c0.4-0.4,0.9-0.7,1.4-0.9c0.2-0.1,0-0.5,0-0.7c-0.1-0.4-0.3-0.6-0.4-0.6c-2.6-0.1-7.4-0.2-11.2-0.1
		C556.8,273.6,555.4,273.7,554.9,273.7L554.9,273.7L554.9,273.7z M600.8,316.2l0.5,1.3l14.4,0c0.5,0.1,0.7-1.1,0.6-1.2
		c-0.5-0.3-1.2-0.6-1.8-1.1c-0.8-0.7-1.2-2.2-1.2-3.2c0-0.9,0.3-1.6,0.6-2.7c0.4-1.3,0.5-1.4,0.5-1.4l17.4,0.1l0.9,2.8
		c0,0,0.1,0.5,0.2,1c0.1,0.7,0,1.5-0.4,2.3c-0.3,0.5-1.3,1.4-1.8,1.7c-0.2,0.2-0.6,0.1-0.7,0.3c-0.2,0.2,0.7,1.5,0.8,1.5h6.9h9.1
		c0,0,0.4-0.3,0.6-0.7c0.1-0.2,0.4-0.6,0.1-0.7c-0.5-0.1-1-0.3-1.4-0.6c-0.9-0.6-1.4-1-1.7-1.4c-0.9-0.9-1.8-2.3-2.4-3.4
		c-0.7-1.4-1.4-3.1-1.9-4.3c-1.3-2.9-3.2-7.3-5-11.7c-2.1-5-4.1-10.1-5.8-14.1c-1.6-3.8-2.8-6.5-2.8-6.5s-4.1-0.5-4.3,0
		c-0.1,0.3-3.2,7.8-6.3,15.4c-2.4,5.8-6,16.3-9.6,21.7C605.4,312.6,602.5,316,600.8,316.2L600.8,316.2L600.8,316.2z M623.3,284.7
		l-7.1,18.4l14.3,0.1L623.3,284.7L623.3,284.7z M475.6,315.9l0.5,1.3l14.4,0c0.5,0.1,0.7-1.1,0.6-1.1c-0.5-0.3-1.2-0.7-1.8-1.1
		c-0.8-0.7-1.2-2.2-1.2-3.3c0-0.9,0.3-1.6,0.6-2.7c0.3-1.3,0.5-1.4,0.5-1.4l17.4,0.1l1,2.8c0,0,0.1,0.5,0.2,1c0,0.7,0,1.5-0.4,2.2
		c-0.3,0.6-1.3,1.4-1.8,1.7c-0.2,0.1-0.6,0.1-0.7,0.3c-0.2,0.2,0.7,1.4,0.8,1.4h6.9h9.1c0,0,0.4-0.3,0.6-0.7
		c0.1-0.2,0.4-0.7,0.1-0.7c-0.5,0-0.9-0.3-1.4-0.6c-0.9-0.7-1.4-1-1.8-1.5c-0.8-0.9-1.8-2.2-2.4-3.4c-0.7-1.4-1.4-3.1-1.9-4.3
		c-1.3-3-3.2-7.3-5-11.7c-2.1-5-4.2-10.2-5.8-14.1c-1.6-3.8-2.8-6.5-2.8-6.5s-4.1-0.5-4.3,0c-0.1,0.3-3.2,7.8-6.3,15.4
		c-2.4,5.8-5.9,16.3-9.6,21.7C480.2,312.3,477.3,315.6,475.6,315.9L475.6,315.9L475.6,315.9z M498,284.4l-7.1,18.4l14.3,0.1
		L498,284.4L498,284.4z M445.8,273.3l-7.7,0l-6-0.1c-0.3,0-0.6,0.1-0.9,0.2c-0.7,0.3-1.5,0.9-1.2,1.4c0,0.1,0.1,0.1,0.2,0.2
		c1.2,0.4,2.5,1.4,3.5,2.7c1.9,2.4,2.8,6.6,3.7,9.6c1.2,3.9,2.9,9.2,4.5,14.2c2.6,7.9,5,15.1,5,15.1l1.7,0.1l1.7-0.2l3.2-10.1
		l4.8-14.4l7.8,24.7h4.2l4.7-14.1l4.9-14.1l1.7-4.9c0,0,0.3-0.8,0.8-2c0.9-2.1,2.5-4.8,4.1-5.9c0.8-0.5,1.5-0.6,1.6-0.9
		c0,0,0-0.1,0-0.2c0-0.3-1-0.8-1.5-1c-1.2-0.4-2.8-0.2-4.1-0.2c-3.7,0-8.9,0.1-8.9,0.1l-0.7,1.2c0,0,1.2,0.3,2.1,1.4
		c1,1.2,1.3,2.6,1,4.1c-1,5.7-6.9,22.6-6.9,22.6l-9.5-29.3l-1,0.1l-9.5,29.2l-5.4-19.6c0,0-0.9-3.1,0.2-5.4c0.2-0.5,0.5-1,0.9-1.4
		c0.2-0.3,2-1.4,2-1.4C446.8,274,445.8,273.3,445.8,273.3L445.8,273.3L445.8,273.3z M393.8,273.6c0,0-0.3,0.3-0.5,0.6
		c-0.2,0.3-0.3,0.6-0.2,0.8c0.4,0.5,1,0.7,1.4,1.1c0.6,0.7,1.2,2.6,1.4,3.5c0.2,1,0.2,2.1,0.2,3.4c0,2.3,0.1,5.8,0.1,9.3
		c0,2.5,0,5.1-0.1,7.3c-0.1,3.2,0.1,6.7-0.7,10.1c-0.3,1.2-0.5,2.5-1.1,3.6c-0.2,0.5-1,1.6-1.6,2.1c-0.1,0.1-0.3,0.1-0.4,0.2
		c-0.1,0.3,0.3,0.7,0.4,1c0.1,0.2,0.2,0.3,0.3,0.3c1.1,0,3.2,0,5.1,0c2.6,0,5,0,6.7,0c0,0,0.3,0.1,0.6,0.1c0.2-0.1,0.4-0.3,0.4-0.8
		c0-0.3-0.4-0.4-0.5-0.5c-1.2-1.2-1.7-2-1.9-3c-0.2-0.7-0.2-1.5-0.2-2.6c-0.1-1.9-0.2-4.5-0.1-6.7c0-3.1,0.1-5.7,0.1-5.7
		s0.3,0,0.7,0.3c0.2,0.2,0.5,0.9,0.7,1.3c0.5,0.9,2,3.9,3.7,6.7c0.3,0.5,2.1,3.3,3.9,5.5c1.5,1.9,3.1,3.3,3.3,3.5
		c0.9,0.6,2.6,2.1,4.7,2.7c3,0.8,6.5,0.5,6.8,0.2c0.7-0.8,0.7-1,0.5-1.3c-0.4-0.4-1.6-0.5-2.9-1.1c-0.8-0.4-1.5-1.1-2.3-2
		c-0.9-1-2.1-2.3-3-3.5c-0.7-0.9-3.7-5.4-5.8-9c-0.1-0.2-1.9-3.6-2.4-4.7c-0.1-0.2-0.2-0.3-0.1-0.3c0.5-0.2,1.5-0.6,2.6-1.2
		c1.5-0.8,3.1-2,4.2-3.5c0.8-1.2,1.4-2.2,1.6-3.3c0.2-0.9,0.3-2.5,0.1-4.1c-0.1-1.5-0.6-2.9-1.5-4.1c-0.9-1.4-2.3-2.7-3.7-3.6
		c-1.9-1.1-5.3-2-8-2.2c-0.6,0-1.2,0-1.7,0C401.2,273.8,397.2,273.6,393.8,273.6L393.8,273.6L393.8,273.6z M403.3,278.6l-0.1,14.9
		c0,0,1.4,0.1,3.3-0.5c3.4-1.2,6.1-3.6,6.1-7.1c0-3.3-1.9-6.1-5.2-7C406.1,278.5,404.6,278.5,403.3,278.6L403.3,278.6L403.3,278.6z
		 M335.2,273.4l-13.7-0.1c0,0-1.1-0.1-1.9,0.2c-0.3,0.2-1,0.6-0.7,0.8c0.5,0.4,1,0.8,1.4,1.2c0.8,0.9,1.6,1.8,2.3,2.8
		c1.1,1.5,2.6,4.3,3.2,6c0.9,2.6,2.4,6.4,3.8,10.2c3.9,10.4,8.4,22.4,8.4,22.4h5.1l4.3-11.3l4.1-11.2l2.7-6.9c1-2.6,2.1-5.7,3.6-8.3
		c0.8-1.2,1.6-2.4,2.6-3.3c0.5-0.4,1-0.8,1.5-1c0.2-0.2,0-0.7,0-1c-0.1-0.3-0.2-0.5-0.5-0.5c-0.6,0.1-3.2,0-5.6-0.1
		c-3.3,0-6.7,0-7.1,0.2c-0.3,0.1-0.3,0.3-0.5,0.9c0,0,1.1,1.3,1.3,1.6c0.3,0.5,0.5,1,0.6,1.6c0.2,0.9,0.4,1.9,0.2,2.7
		c-0.4,2.3-8.9,27.8-8.9,27.8l-7.7-23.8c0,0-1.3-7.6,1.8-9.8C338.9,272.4,335.2,273.4,335.2,273.4L335.2,273.4L335.2,273.4z
		 M387.5,273.6l-11.8,0l-10.7,0c0,0-1.1,1.1-0.7,1.4c0.2,0.2,1.1,0.7,1.9,2.1c0.5,1,0.8,2.6,1,4.3c0.2,2.1,0.1,4.3,0.1,5.7
		c0,4.7-0.2,10.9-0.2,15.4c0,2.9,0.1,4.9-0.3,7.2c-0.3,1.7-1,3.8-2.3,5c-0.6,0.6-1.3,1-1.3,1.1c0,0.2,0.1,0.6,0.2,0.7
		c0.1,0.2,0.3,0.5,0.5,0.6c0,0,2.3,0,2.3,0c1.8,0,4.5,0,7.3,0c6.6,0,14.2,0,14.2,0l3.3-9.1c-0.1-0.2-0.5-0.5-0.8-0.7
		c-0.2-0.1-0.4-0.1-0.4,0c-0.2,0.3-0.8,0.8-1.6,1.3c-2.9,1.9-5.4,2.5-8.8,3.1c-0.4,0.1-5.2,0.8-5.2,0.4c0-0.6,0-3.9-0.1-7.2
		c-0.1-4.6,0-8.2,0-8.2s2.2-0.1,4.4,0.6c2.2,0.7,3.3,1.1,4.8,3c0.2,0.2,0.5,0,0.8-0.2c0.3-0.2,0.6-0.5,0.6-0.5l-0.1-11.7
		c0,0-0.4-0.3-0.7-0.4c-0.2,0-0.3,0-0.4,0.2c-0.2,0.7-1,1.5-2,2.2c-1.1,0.7-2.3,1.4-3,1.6c-1.3,0.4-2.5,0.7-4.2,1c0,0-0.1,0-0.1,0
		c0,0,0-0.3,0-0.8c0-2,0-4.1,0-6.2c0-1.4,0-2.8,0.1-4.1c0-0.9,0.1-1.8,0.1-2.7c0,0,0.5-0.1,1.4-0.1c1.9,0,5.2,0.3,7.5,1.1
		c1.4,0.5,1.7,0.8,3,1.5c0.3,0.2,0.7,0.4,1,0.5c0.4,0.1,1.2-0.1,1.3-0.5L387.5,273.6L387.5,273.6z M784.7,274.8l-11.8,0l-10.7,0
		c0,0-1.1,1.1-0.7,1.5c0.2,0.2,1.1,0.7,1.8,2c0.5,1,0.8,2.6,1,4.3c0.2,2.1,0.2,4.3,0.2,5.7c0,4.7-0.2,11-0.2,15.4
		c0,2.9,0.1,4.9-0.3,7.2c-0.3,1.7-1,3.8-2.3,5c-0.6,0.6-1.3,1-1.3,1.1c0,0.2,0.1,0.5,0.2,0.7c0.1,0.3,0.3,0.5,0.6,0.6
		c0,0,2.3,0,2.3,0c1.8,0,4.5,0,7.4,0c6.6,0,14.2,0.1,14.2,0.1l3.3-9.1c-0.1-0.2-0.5-0.5-0.8-0.7c-0.2-0.1-0.4-0.1-0.4,0
		c-0.2,0.3-0.8,0.7-1.6,1.3c-2.9,1.9-5.4,2.5-8.8,3.2c-0.4,0.1-5.1,0.7-5.1,0.4c0-0.6,0-3.9-0.1-7.2c-0.1-4.6,0-8.3,0-8.3
		s2.2-0.1,4.4,0.6c2.3,0.7,3.2,1.1,4.8,2.9c0.1,0.2,0.5,0,0.8-0.2c0.3-0.2,0.6-0.5,0.6-0.5l-0.1-11.7c0,0-0.4-0.3-0.7-0.4
		c-0.2,0-0.3,0-0.4,0.2c-0.2,0.7-1,1.5-2,2.2c-1.1,0.8-2.3,1.4-3,1.6c-1.3,0.4-2.5,0.7-4.2,1c0,0-0.1,0-0.1,0c0,0,0-0.3,0-0.8
		c0-2.1,0-4.2,0-6.2c0-1.4,0.1-2.8,0.1-4.1c0-0.9,0.1-1.8,0.1-2.7c0,0,0.5,0,1.4-0.1c1.9,0,5.2,0.3,7.5,1.1c1.4,0.4,1.7,0.8,3,1.5
		c0.3,0.2,0.7,0.4,1,0.5c0.4,0.1,1.2-0.1,1.3-0.5L784.7,274.8L784.7,274.8z M315.5,273.1l-11.8,0l-10.7,0c0,0-1.1,1.1-0.7,1.4
		c0.2,0.2,1.1,0.7,1.8,2c0.5,1,0.8,2.6,1,4.3c0.2,2.1,0.2,4.3,0.2,5.7c0,4.7-0.2,10.9-0.2,15.4c0,2.9,0.1,4.9-0.3,7.2
		c-0.3,1.7-1,3.8-2.3,5c-0.6,0.6-1.3,1-1.3,1.1c0,0.2,0.1,0.5,0.2,0.7c0.1,0.3,0.3,0.5,0.6,0.6c0,0,2.3,0,2.3,0c1.8,0,4.5,0,7.3,0
		c6.6,0,14.2,0,14.2,0l3.2-9.1c-0.1-0.2-0.5-0.5-0.8-0.7c-0.2-0.1-0.4-0.1-0.4,0c-0.2,0.3-0.8,0.8-1.6,1.3c-2.9,1.9-5.4,2.4-8.8,3.1
		c-0.4,0.1-5.2,0.7-5.2,0.4c0-0.6,0-3.9-0.1-7.2c-0.1-4.6,0-8.3,0-8.3c0,0,2.2,0,4.4,0.6c2.2,0.7,3.2,1.2,4.8,3
		c0.1,0.2,0.5,0,0.8-0.2c0.3-0.2,0.6-0.5,0.6-0.5l-0.1-11.7c0,0-0.4-0.3-0.7-0.4c-0.2-0.1-0.3,0-0.4,0.2c-0.2,0.7-1,1.5-1.9,2.2
		c-1,0.7-2.3,1.4-3,1.6c-1.3,0.4-2.5,0.7-4.2,1c0,0-0.1,0-0.1,0c0,0,0-0.3,0-0.7c0-2.1,0-4.2,0-6.2c0-1.4,0.1-2.8,0.1-4.1
		c0-0.9,0-1.8,0.1-2.7c0,0,0.5,0,1.4-0.1c1.9,0,5.2,0.3,7.5,1.1c1.5,0.4,1.7,0.8,3,1.5c0.3,0.2,0.7,0.4,1,0.5
		c0.4,0.1,1.2-0.1,1.3-0.5L315.5,273.1L315.5,273.1z M728.1,273.8l-8.3-0.2l-3.9,0.1c0,0,1,1.4,1.8,3c0.3,0.6,0.6,1.2,0.8,1.7
		c0.4,1,0.8,2,1,3.1c0.1,0.5,0.2,1,0.2,1.5c0.1,1.2,0,2.4,0,3.9c0,0.4,0,2.2,0,4.4c0,1.8,0,4.1,0,6.2c0,1.8,0,3.5-0.1,5
		c0,0.8,0,2.7-0.2,4.8c-0.1,1.4-0.3,2.8-0.8,4.2c-0.4,1.1-0.8,2.2-1.5,3.1c-0.3,0.4-0.5,0.7-0.9,1c-0.1,0.1-0.4,0.3-0.5,0.4
		c0,0.1,0,0.2,0,0.3c0,0.5,0.5,1.1,0.5,1.1h12.1c0.1-0.1,0.3-0.5,0.4-0.8c0.1-0.3,0.2-0.5,0-0.6c-0.5-0.3-0.9-0.5-1.2-0.8
		c-0.5-0.4-1-1.1-1.3-1.8c-0.7-1.4-0.7-2.9-0.9-4.4c-0.1-1.2-0.2-2.4-0.2-3.5c0-0.6,0-1.3,0-1.8c0.1-3.8,0-7.4,0-11.1
		c0-2,0.1-4.4,0.1-6.3c0,0,0.6,0.4,1.7,2c1.1,1.5,2.5,3.7,4.1,6.2c0.7,1,1.6,2.3,2.4,3.4c1.3,1.9,2.8,4,4.1,5.9
		c0.6,0.9,3,4.2,5.1,7.4c0.6,0.9,1.2,1.8,1.6,2.7c0.3,0.7,0.5,1.3,0.7,1.9c0.2,0.4,0.3,0.9,0.5,1.4c0,0.1,1,0,2,0c2.5,0,6.6,0,7.2,0
		c0.2-0.4,0.6-1,0.6-1.4c0-0.1-0.1-0.1-0.1-0.1c-0.4-0.6-0.9-1-1.3-1.5c-0.1-0.2-0.2-0.4-0.3-0.6c-0.6-1.4-0.8-4-0.9-6.1
		c0-0.8-0.1-1.6-0.1-2.2c-0.1-1.1,0-2.2,0-3.4c0-2.4,0.1-4.8,0.2-7.3c0.1-3.6,0.2-7.3,0.2-10.7c0,0,0.1-2.2,0.4-4.1
		c0.2-1.2,0.6-2.1,1.3-2.8c0.4-0.5,0.9-0.9,1.4-1.4c0.2-0.2,0.5-0.3,0.8-0.5c0.1,0,0.1,0,0.1,0c0-0.1-0.7-1.2-0.8-1.4h-11.5
		c0,0-1.1,0.9-0.7,1.2c0.5,0.2,2.6,1.4,3,2.9c0.4,1.5,0.5,4.9,0.5,5.9c0,1-0.1,21.4-0.1,21.4c-3.5-5.1-17.7-23.8-18.8-28.6
		C728.3,276.4,728.1,273.8,728.1,273.8L728.1,273.8L728.1,273.8z M260.7,273.3l-8.3-0.2l-3.9,0.1c0,0,1,1.4,1.8,3
		c0.3,0.6,0.6,1.2,0.8,1.7c0.4,1,0.8,2,1,3.1c0.1,0.5,0.2,1,0.2,1.5c0.1,1.2,0,2.4,0,3.9c0,0.4,0,2.2,0,4.4c0,1.7,0,4.1,0,6.1
		c0,1.8-0.1,3.5-0.1,5c0,0.8,0,2.7-0.2,4.8c-0.1,1.4-0.3,2.8-0.8,4.2c-0.3,1.1-0.9,2.2-1.6,3.1c-0.3,0.4-0.5,0.7-0.9,1
		c-0.1,0.1-0.4,0.3-0.5,0.4c0,0.1-0.1,0.2,0,0.3c0.1,0.5,0.5,1.1,0.5,1.1h12.1c0.1-0.1,0.3-0.5,0.4-0.8c0.1-0.3,0.2-0.5,0.1-0.6
		c-0.5-0.3-0.9-0.5-1.2-0.8c-0.5-0.4-0.9-1-1.3-1.7c-0.7-1.4-0.7-2.9-0.9-4.5c-0.1-1.2-0.2-2.4-0.2-3.5c0-0.6,0-1.3,0-1.8
		c0.1-3.8,0-7.4,0-11c0-2,0-4.4,0.1-6.3c0,0,0.6,0.4,1.7,2c1.1,1.5,2.5,3.7,4.1,6.2c0.7,1,1.6,2.3,2.4,3.4c1.3,2,2.8,4,4.1,5.9
		c0.6,0.9,3,4.2,5.1,7.4c0.6,1,1.2,1.9,1.6,2.8c0.3,0.7,0.5,1.3,0.7,1.8c0.2,0.5,0.3,0.9,0.5,1.5c0,0.1,1,0,2,0c2.5,0,6.6,0,7.2,0.1
		c0.2-0.4,0.7-1,0.6-1.4c0,0,0-0.1-0.1-0.1c-0.4-0.6-0.9-0.9-1.3-1.5c-0.1-0.2-0.2-0.4-0.4-0.6c-0.6-1.4-0.8-4-0.9-6.2
		c0-0.8-0.1-1.6-0.1-2.2c-0.1-1.1,0-2.2,0-3.4c0-2.3,0.1-4.8,0.1-7.3c0.1-3.6,0.2-7.3,0.2-10.7c0,0,0.1-2.2,0.4-4
		c0.2-1.2,0.7-2.1,1.3-2.9c0.4-0.5,0.9-0.9,1.4-1.4c0.2-0.2,0.4-0.3,0.8-0.5c0,0,0.1,0,0.1,0c0-0.1-0.6-1.2-0.8-1.4h-11.5
		c0,0-1.1,0.9-0.7,1.2c0.5,0.2,2.6,1.4,3,2.9c0.4,1.5,0.5,4.9,0.5,5.9c0,1-0.1,21.4-0.1,21.4c-3.5-5.1-17.7-23.8-18.9-28.7
		C261,275.9,260.7,273.3,260.7,273.3L260.7,273.3L260.7,273.3z M666.6,273.4h-13.8c0,0-0.3,0.3-0.4,0.7c-0.1,0.2-0.3,0.6-0.1,0.6
		c0.2,0,0.5,0.2,0.9,0.4c0.5,0.3,1,1,1.4,1.7c0.4,0.7,0.7,1.4,0.9,2c0.3,0.9,0.3,1.9,0.3,3.1c0.1,2.9,0.1,7.9,0.1,11.9
		c0,4.5,0.3,11.2-0.3,15.6c-0.2,1.1-0.4,2.2-0.6,2.7c-0.2,0.4-0.4,0.8-0.5,1.1c-0.5,0.8-1.1,1.3-1.5,1.7c-0.4,0.3-0.8,0.5-0.9,0.7
		c-0.1,0.1,0.1,0.4,0.1,0.6c0.1,0.5,0.3,0.8,0.3,0.8l8,0.2l14.9,0l3.3-9.5c-0.1-0.1-0.3-0.4-0.5-0.5c-0.2-0.1-0.4-0.2-0.5-0.1
		c-0.3,0.4-0.8,0.9-1.5,1.4c-1.7,1.4-4.3,2.4-6.4,2.9c-2,0.5-3.9,0.7-5.1,0.8c-0.8,0-1.3,0.1-1.3,0c-0.3-1-0.2-18.3-0.2-20.6
		c0-2.4,0-5.1,0.1-7.6c0-1.3,0-2.5,0.2-3.7c0.1-1,0.6-2.2,1-3.1c0.5-0.9,1.4-1.8,2.5-2.5c0.2-0.1,0-0.4,0-0.6
		C666.7,273.6,666.6,273.4,666.6,273.4L666.6,273.4L666.6,273.4z M224.7,273.1h-13.8c0,0-0.3,0.3-0.4,0.7c-0.1,0.2-0.3,0.6-0.1,0.6
		c0.2,0.1,0.5,0.2,0.9,0.4c0.5,0.3,1,1,1.4,1.7c0.4,0.7,0.7,1.4,0.9,2c0.3,1,0.3,1.9,0.3,3.1c0.1,3,0.1,7.9,0.1,11.9
		c0,4.5,0.3,11.2-0.3,15.5c-0.2,1.1-0.4,2.2-0.6,2.7c-0.2,0.4-0.4,0.8-0.5,1.1c-0.5,0.8-1.1,1.3-1.5,1.7c-0.4,0.3-0.8,0.5-0.9,0.7
		c-0.1,0.1,0.1,0.4,0.1,0.6c0.1,0.5,0.3,0.8,0.3,0.8l8,0.2l14.9,0l3.3-9.5c-0.1-0.1-0.3-0.4-0.5-0.6c-0.2-0.1-0.4-0.2-0.5-0.1
		c-0.3,0.4-0.8,0.9-1.4,1.4c-1.7,1.5-4.3,2.4-6.4,2.9c-2,0.5-3.9,0.7-5.1,0.8c-0.8,0.1-1.3,0.1-1.3,0c-0.3-1-0.2-18.3-0.2-20.6
		c0-2.4,0-5.1,0.1-7.6c0-1.3,0-2.5,0.2-3.7c0.1-1.1,0.6-2.3,1.1-3.1c0.5-0.9,1.4-1.8,2.5-2.5c0.2-0.1,0-0.4,0-0.6
		C224.9,273.3,224.7,273.1,224.7,273.1L224.7,273.1L224.7,273.1z M541,273.2l-13.8,0c0,0-0.3,0.3-0.4,0.7c-0.1,0.2-0.3,0.6-0.1,0.6
		c0.2,0.1,0.6,0.2,0.9,0.4c0.5,0.3,1,1,1.4,1.7c0.4,0.7,0.7,1.4,0.9,2c0.3,0.9,0.3,1.9,0.3,3.1c0.1,3,0.1,7.9,0.1,11.9
		c0,4.6,0.3,11.2-0.3,15.6c-0.2,1.1-0.4,2.2-0.6,2.7c-0.2,0.4-0.4,0.7-0.6,1.1c-0.5,0.8-1,1.3-1.5,1.7c-0.4,0.3-0.8,0.5-0.9,0.7
		c-0.1,0.1,0.1,0.4,0.1,0.6c0.1,0.5,0.3,0.8,0.3,0.8l8,0.2l14.9,0l3.3-9.5c-0.1-0.1-0.3-0.4-0.5-0.6c-0.2-0.1-0.4-0.2-0.5-0.1
		c-0.3,0.4-0.8,0.9-1.4,1.4c-1.7,1.4-4.3,2.4-6.4,2.9c-2,0.5-3.9,0.7-5.1,0.8c-0.8,0.1-1.3,0.1-1.3,0c-0.3-1-0.2-18.3-0.2-20.6
		c0-2.4,0.1-5.1,0.1-7.6c0-1.3,0-2.5,0.2-3.7c0.1-1,0.6-2.3,1.1-3.1c0.5-0.9,1.4-1.8,2.5-2.5c0.2-0.1,0.1-0.4,0-0.6
		C541.2,273.4,541,273.2,541,273.2L541,273.2L541,273.2z M197.1,273.1h-13.8c0,0-0.3,0.3-0.4,0.7c-0.1,0.2-0.3,0.6-0.1,0.6
		c0.2,0.1,0.5,0.2,0.9,0.4c0.5,0.3,1,1,1.4,1.7c0.4,0.7,0.7,1.4,0.9,2c0.3,1,0.3,1.9,0.3,3.1c0.1,3,0.1,7.9,0.1,11.9
		c0,4.5,0.3,11.2-0.3,15.5c-0.2,1.1-0.4,2.2-0.6,2.7c-0.2,0.4-0.4,0.8-0.6,1.1c-0.5,0.8-1,1.3-1.5,1.7c-0.4,0.3-0.8,0.5-0.9,0.7
		c-0.1,0.1,0.1,0.4,0.1,0.6c0.1,0.5,0.3,0.8,0.3,0.8l7.9,0.2l14.9,0l3.3-9.5c-0.1-0.1-0.3-0.4-0.5-0.6c-0.2-0.1-0.4-0.2-0.5-0.1
		c-0.3,0.4-0.8,0.9-1.5,1.4c-1.7,1.5-4.3,2.4-6.4,2.9c-2,0.5-3.9,0.7-5.1,0.8c-0.8,0.1-1.3,0.1-1.3,0c-0.3-1-0.2-18.3-0.2-20.6
		c0-2.4,0.1-5.1,0.1-7.6c0-1.3,0-2.5,0.2-3.7c0.1-1.1,0.6-2.3,1.1-3.1c0.5-0.9,1.4-1.8,2.5-2.5c0.2-0.1,0.1-0.4,0-0.6
		C197.3,273.3,197.1,273.1,197.1,273.1L197.1,273.1L197.1,273.1z M179.8,273.1l-6.5-0.1c0,0-0.3,0.5-0.4,1.2c0,0.3,0,0.7,0.1,1.1
		c0,1-0.4,3.7-0.8,4.8c-0.4,1.1-0.8,2.2-1.3,2.9c-0.5,0.7-0.9,1-1.2,1.7c0,0,0.8,1.2,1.1,1c2.4-1.2,4.2-2.7,5.6-4.9
		C177.7,278.8,178.8,276.2,179.8,273.1L179.8,273.1L179.8,273.1z M145.6,273l-9.4-0.1l-5.7,0.1l-0.8,1.2c0.6,0.1,1.2,0.5,1.7,1
		c0.5,0.4,1,1,1.2,1.4c0.5,0.8,0.7,2,0.9,3.3c0.2,1.3,0.3,2.6,0.3,3.6c0.1,2.4-0.1,5.6-0.2,8.7c0,2.9,0,5.7,0,7.9c0,0.9,0,1.7,0,2.3
		c0,1.6,0,3.3,0.1,4.8c0.3,3.5,2.5,7.2,5.5,8.9c2,1.2,5.1,1.4,7.4,1.2c2.8-0.3,5.1-1.3,7-2.3c1.5-0.8,2.8-1.6,3.5-2.3
		c0,0,1.1-1.2,1.1-0.7c0,0.4-0.1,4.5,0.1,4.5l7.6,0l2.8,0l0.6-1.2c-0.1,0.2-1.2-0.6-1.9-1.2c-0.8-0.8-1.4-2.2-1.5-3.3
		c-0.4-2.4-0.4-9.5-0.3-15.7c0-3.2,0.1-6.5,0.2-9.7c0-1.2,0-2.8,0.1-4.3c0.1-1.2,0.3-2.2,0.6-3.2c0.4-1.1,1-2,2-3
		c0.2-0.2,1.3-0.8,1.3-0.8c-0.1-0.3-0.2-0.6-0.4-0.7c-0.3-0.2-0.6-0.3-0.9-0.4c-0.2,0-0.4,0-0.4,0l-6.1,0.1l-6.4-0.1
		c0,0-0.4,0.4-0.5,0.9c0,0-0.2,0.8-0.2,0.8c0.1,0.2,0.4,0.1,0.7,0.4c0.1,0.1,0.6,0.4,0.7,0.6c0.4,0.4,0.7,0.9,1,1.5
		c0.4,0.8,0.7,1.9,0.7,3.5c0.1,3.9,0.1,24.5,0.1,24.5s-5.9,6.4-10.9,6.3c-4.9-0.1-5.5-2.6-6.1-6.4c-0.6-3.8,0.3-22.2,0.3-22.2
		c0.4-3,0.6-5,1.9-6.6c0.6-0.7,1.3-1.3,2.4-1.9c0.1,0-0.3-0.9-0.3-1C145.6,273,145.6,273,145.6,273L145.6,273L145.6,273z M685,276.5
		c-2,2.1-3.9,5.1-5.4,9.6c-3.7,11.1,2.3,29.2,13.1,31.1c13.8,2.3,21.2-8.7,21.2-20.2c0-6.5-1.8-14.5-5.9-19.4
		C702.2,270.8,691.5,269.9,685,276.5L685,276.5L685,276.5z M695.4,276.7c5.9,0.1,9.2,7.4,10.5,14.7c1.3,7.5,0.7,22-10,21.3
		c-5.5-0.3-8.4-7.5-9.6-14.7c-0.8-4.4-0.8-8.8-0.4-11.4C686.7,281.6,689.8,276.6,695.4,276.7L695.4,276.7L695.4,276.7z M99.4,276.3
		c-2,2.1-3.9,5.1-5.4,9.6c-3.7,11.1,2.3,29.2,13.1,31.1c13.8,2.3,21.2-8.7,21.2-20.2c0-6.5-1.8-14.4-6-19.3
		C116.6,270.5,105.9,269.6,99.4,276.3L99.4,276.3L99.4,276.3z M109.8,276.5c5.9,0.1,9.2,7.4,10.5,14.7c1.3,7.5,0.7,22-10,21.4
		c-5.5-0.3-8.4-7.6-9.6-14.6c-0.7-4.4-0.8-8.8-0.4-11.4C101.1,281.4,104.2,276.3,109.8,276.5L109.8,276.5L109.8,276.5z"/>
	<g>
		<linearGradient id="SVGID_8_" gradientUnits="userSpaceOnUse" x1="799.2996" y1="639.4366" x2="811.876" y2="639.4366">
			<stop  offset="0" style="stop-color:#FFCF89"/>
			<stop  offset="0.8427" style="stop-color:#FFF45A"/>
		</linearGradient>
		<path class="st9" d="M799.3,647.2c0,0,0.7,3.1,3.5,8c2.9,4.9,3.7,8.5,3.7,8.5l3.4-7.8l2-18.4l-6.5-22.2l-6.1,6.4V647.2
			L799.3,647.2z"/>
		<linearGradient id="SVGID_9_" gradientUnits="userSpaceOnUse" x1="746.0189" y1="770.5146" x2="807.7509" y2="770.5146">
			<stop  offset="0" style="stop-color:#FFCF89"/>
			<stop  offset="0.8427" style="stop-color:#FFF45A"/>
		</linearGradient>
		<path class="st10" d="M786.3,822.9c0,0,11.3,0.1,15.1-0.9c3.8-1.1,6.3-25.3,6.3-25.3L797,758.3l-18.4-40.2l-12.1,21.8l-15.1,20.9
			L746,784l4.9,21.9l7.3,16.5c0,0,10-0.5,13.5-0.5C775.2,822,786.3,822.9,786.3,822.9L786.3,822.9L786.3,822.9z"/>
		<path class="st4" d="M755.5,595.4c0.1,9.4,3.1,14.4,3.7,23.8c0.1,1.5,0.4,2.4,0.2,3.8c0.2,0.2,0.5,0.5,0.7,0.2
			c0.8-1.6,1.7-2.3,2.6-3.9c1.1-1.9,1.6-3,2.3-5.1c0.7-2,0.9-3.3,1.3-5.4c0.6-3.2,0.9-6,0.7-8.4c0,0-0.1,0-0.1,0
			c0.6-3.2-0.1-7.4,0.1-11.1c0.3-4.6-0.1-8.7,1.3-14c0.9-3.5,1.7-5.4,3.2-8.6c0.5-1,1.9-2.8,1.5-3.1c-0.6-0.7-1.9,0.3-2.5,0.7
			c-10.8,6.1-15,16.9-15.2,29.9C755.5,594.7,755.5,594.9,755.5,595.4L755.5,595.4L755.5,595.4z"/>
		<path class="st4" d="M809.8,587.5c-9.7,7.7-14.1,17.9-15.5,31.5c-0.6,6.4-0.3,10.2,1.1,16.4c0.3,1.5,0.6,2.4,1,3.9
			c0.9,3.1,1.4,5.5,2.7,7.8c0.3,0.5,0.7,0.7,0.7,0.1c-0.1-5.1-0.6-9.4,0.4-15.3c0.8-4.6,2-7.8,3.4-11.4c0.2,0.2,0.5,0.6,0.8,1.2
			c2,5.1,3.2,9.5,3.9,15.8c1.2,9.9,0.5,17.5-1.9,25.5c-0.1,0.8,0.5,1.1,1.3,0.3c4.7-5.5,7.3-11,9.1-19c1.7-7.6,1.5-12.4,0.1-20.1
			c-1.6-8.5-4.9-12.7-5.4-21.3c-0.4-6.2-0.4-10.7,1.2-15.8c0.1-0.4,0-0.5-0.4-0.7C811.4,586.2,810.1,587.3,809.8,587.5L809.8,587.5
			L809.8,587.5z"/>
		<path class="st4" d="M775.6,614.9c-16.5,17.6-15.9,35-19.1,58.9c-0.5,3.9-0.5,6.8-1.1,10.1c-4.3-4.1-9.6-6.9-15.8-6.4
			c-0.1,0.5,0.2,0.9,0.5,1.4c5.8,9.5,5.8,22.1,2.6,32.8c-1.5,6-3.9,11.6-6,17.3c-1.5,3.9-3.2,7.6-4.4,11.5
			c-3.2,8.7-4.2,18.5-4.6,27.9c0,12.8,2.7,26.3,10.5,37c1.9,2.9,4.1,5.5,6.3,8.3c3.2,2.7,6,5.5,10,7.2c1.7,0.8,3.6,2,5.4,1.8
			c-3.2-6.9-7.3-14.5-8.1-22.5c-0.6-5.2-1.3-9.8-0.6-15c0.6-11,5.1-21.1,11-30.4c5.8-7.2,11-14.7,14.4-22.9
			c2.4,10.1,5.9,20.3,11.9,28.9c1.6,3.3,4.1,5.9,5.5,9.2c4.7,7.7,8.4,15.7,10.2,24.7c1.3,9.5,0.4,19.1-4.5,26.9
			c-0.1,0.4,0.4,0.3,0.6,0.5l0.3-0.2l0.2,0.3c8.8-1.3,16.1-7.6,21.9-14.5c10.3-13.4,13.4-30.2,12.3-47c0.1-6.6-0.4-13.1,0.1-19.6
			c0.7-8.6,2-17.1,5.4-24.8c0-0.3-0.3-0.6-0.6-0.6c-4.6,1-8.7,3.3-12.6,6.2c-4,3.1-7.4,6.4-10.2,10.4c0.4-19.4-6.9-38.3-14.9-55.9
			c-3.2-7.2-6.6-14.2-9.8-21.2c-6.5-13.9-11.6-28.4-11.4-44.4c0-0.5,0.2-0.7,0.2-1.2C778.8,610.6,777.7,612.7,775.6,614.9
			L775.6,614.9L775.6,614.9z"/>
		<linearGradient id="SVGID_10_" gradientUnits="userSpaceOnUse" x1="737.343" y1="728.989" x2="824.639" y2="728.989">
			<stop  offset="0" style="stop-color:#FFCF89"/>
			<stop  offset="0.8427" style="stop-color:#FFF45A"/>
		</linearGradient>
		<path class="st11" d="M774.3,649.3c-3.1,17.4-6.5,35-11.9,51.4c-2.2,8-5.5,15.7-8.8,23.4c-4.3,10.5-9.4,20.3-13.2,31.4
			c-4.5,13.4-3.8,29,1.3,42.3c1.6,3.3,3,6.6,5.1,9.5c0.1-1.9-0.9-3.4-1.4-5.6c-3.5-16.3-2.6-26.8,2.5-42.6c1.9-5.8,3.4-8.8,6.2-14.3
			c2.6-5.2,4.3-8.1,7.5-12.9c0.5-0.8,0.8-1.2,1.3-2c1.8-2.6,2.9-4.1,4.4-6.9c1.8-3.2,2.6-5.1,3.9-8.4c3-7.6,4.9-13.3,4.7-20.3
			c0.1-0.3,0.6-0.2,0.8-0.1c5.8,5.9,8.7,13.4,10.8,21c1.3,6.2,3,12.3,4.6,18.5c2.9,9.7,7.5,18.9,11.9,28
			c6.5,14.2,10.4,30.6,7.4,46.9c0.1-0.1,0.1-0.3,0.2-0.4c0.1,0,0.3,0,0.4,0c3.4-3.9,6-8.3,7.8-12.9c2.2-5.2,3.3-10.8,4.1-16.6
			c1.5-11.1,0.2-22.4-2.2-33.4c-2.7,1.9-4.4,4.6-6.4,6.9c-1.2,1.6-1.8,3.4-3,4.9c-0.3,0-0.6,0-0.8-0.3c-0.9-14.4-5.6-26.9-10.4-39.7
			c-2.5-5.6-4.7-11.7-7.6-17.3c-2.8-6.4-6-12.1-8.9-18.2C780.2,671.3,776,660.4,774.3,649.3L774.3,649.3L774.3,649.3z"/>
		<path class="st4" d="M775.1,759.2c-11.8,10-15.7,26.6-13.8,41.4c1.1,4.8,2.3,9.2,4.4,13.6c1.6,3.4,3.6,6.2,6.8,8.3
			c0.2-0.5,1-0.8,0.4-1.4c-2-4.1-2.8-9-3.3-13.7c0.1-6.9,1.5-13.3,5.3-18.6c0.4-0.6,0.8-1.1,1.4-1.4c0.8,5,3.9,9.5,6,14.1
			c1.1,2.6,2.3,5.1,2.9,7.9c0.9,3,0.5,6.6,0.4,9.7c-0.5,1.1-0.6,2.2-0.6,3.2c1.7,0.3,2.5-1.4,3.8-2.7c1.3-1.3,1.9-2.2,2.8-3.9
			c3.2-5.5,3.2-9.8,2.6-16.2c-0.2-2.4-0.5-3.8-1.1-6.1c-1.7-6.8-4.4-10.1-8-16.1c-3.6-6.1-7.2-8.5-8.6-15.1
			c-0.3-1.3-0.5-3.4-0.5-3.4C775.4,758.3,775.3,759,775.1,759.2L775.1,759.2L775.1,759.2z"/>
	</g>
	<linearGradient id="SVGID_11_" gradientUnits="userSpaceOnUse" x1="33.5964" y1="864.6917" x2="810.8259" y2="864.6917">
		<stop  offset="0" style="stop-color:#005B54"/>
		<stop  offset="6.607613e-02" style="stop-color:#006B61"/>
		<stop  offset="0.2023" style="stop-color:#008976"/>
		<stop  offset="0.3257" style="stop-color:#009E83"/>
		<stop  offset="0.431" style="stop-color:#00AB8A"/>
		<stop  offset="0.5056" style="stop-color:#00B18E"/>
		<stop  offset="0.6042" style="stop-color:#00AD8C"/>
		<stop  offset="0.6934" style="stop-color:#00A587"/>
		<stop  offset="0.779" style="stop-color:#009980"/>
		<stop  offset="0.8623" style="stop-color:#008774"/>
		<stop  offset="0.9433" style="stop-color:#006F63"/>
		<stop  offset="1" style="stop-color:#005B54"/>
	</linearGradient>
	<path class="st12" d="M790.6,848.8c-8.3-0.6-18.8-0.7-27.1,0c-3.3-8.3-9.6-13.6-17.6-17.2c2.6-3,8-3.3,12.9-4.3
		c12.7-2.6,28.3-2.4,40.5,0c4.3,0.8,8.9,1.2,11.6,3.9C801.9,834.9,795.5,841.1,790.6,848.8L790.6,848.8L790.6,848.8z M53.8,848.8
		c8.3-0.6,18.8-0.7,27.1,0c3.3-8.3,9.6-13.6,17.6-17.2c-2.6-3-8-3.3-12.9-4.3c-12.7-2.6-28.3-2.4-40.5,0c-4.4,0.8-8.9,1.2-11.6,3.9
		C42.5,834.9,48.9,841.1,53.8,848.8L53.8,848.8L53.8,848.8z M99.5,875.5c-0.8-8.4-10.5-8.2-19.8-8.6c0-3.9,0-7.8,0-11.6
		c-8.6,0-17.2,0-25.8,0c-0.3,4,0.5,9.1-0.4,12.5c-8.1-1.3-17.8-0.4-19.4,6c-2.7,11,9.3,13.6,19.8,12.5c0,5.9,0,11.8,0,17.6
		c9.4,0.2,17.9-0.4,25.4-2.1c1-4.4,0.1-10.5,0.4-15.5C90.8,887.3,100.3,884.4,99.5,875.5L99.5,875.5L99.5,875.5z M744.9,875.5
		c0.8-8.4,10.5-8.2,19.8-8.6c0-3.9,0-7.8,0-11.6c8.6,0,17.2,0,25.8,0c0.3,4-0.5,9.1,0.4,12.5c8.1-1.3,17.8-0.4,19.4,6
		c2.7,11-9.3,13.6-19.8,12.5c0,5.9,0,11.8,0,17.6c-9.4,0.2-17.9-0.4-25.4-2.1c-1-4.4-0.1-10.5-0.4-15.5
		C753.6,887.3,744.1,884.4,744.9,875.5L744.9,875.5L744.9,875.5z"/>
	<path class="st13" d="M719.5,1071.1c0,3.7-0.9,7.1-2.8,10.3c-1.9,3.2-4.4,5.7-7.6,7.5c-3.2,1.8-6.6,2.8-10.3,2.8
		c-3.7,0-7.1-0.9-10.3-2.8c-3.2-1.8-5.7-4.4-7.6-7.5c-1.8-3.2-2.8-6.6-2.8-10.3c0-3.7,0.9-7.1,2.8-10.3c1.9-3.2,4.4-5.7,7.6-7.5
		c3.2-1.8,6.6-2.8,10.3-2.8c3.7,0,7.1,0.9,10.3,2.8c3.2,1.8,5.7,4.4,7.6,7.5C718.5,1064,719.5,1067.5,719.5,1071.1L719.5,1071.1z
		 M715.5,1071.1c0-4.6-1.6-8.5-4.9-11.8c-3.3-3.2-7.2-4.9-11.8-4.9c-4.6,0-8.5,1.6-11.8,4.9c-3.3,3.3-4.9,7.2-4.9,11.8
		c0,4.6,1.6,8.5,4.9,11.8c3.3,3.2,7.2,4.9,11.8,4.9c4.6,0,8.5-1.6,11.8-4.9C713.9,1079.7,715.5,1075.7,715.5,1071.1L715.5,1071.1z
		 M689.5,1060.1h9.9c2.8,0,4.8,0.6,6.1,1.7c1.3,1.1,1.9,2.6,1.9,4.5c0,1.5-0.5,2.8-1.4,3.8c-0.9,1.1-2.5,1.9-4.5,2.4
		c0.8,0.3,1.5,0.7,1.9,1c0.6,0.5,1.1,1.3,1.7,2.2c0,0.1,1.2,2.2,3.6,6.4H702c-2.1-4.2-3.5-6.7-4.2-7.5c-0.7-0.8-1.5-1.2-2.2-1.2
		c-0.2,0-0.4,0-0.7,0.1v8.7h-5.5V1060.1L689.5,1060.1z M694.9,1069.5h2.4c1.6,0,2.7-0.3,3.3-0.8c0.6-0.5,1-1.2,1-2
		c0-0.8-0.3-1.5-0.9-2c-0.6-0.5-1.7-0.8-3.2-0.8h-2.6V1069.5L694.9,1069.5z"/>
</g>
</svg>
