<?xml version="1.0" encoding="utf-8"?>
<!-- Generator: Adobe Illustrator 21.1.0, SVG Export Plug-In . SVG Version: 6.00 Build 0)  -->
<svg version="1.1" id="Слой_1" xmlns="http://www.w3.org/2000/svg" xmlns:xlink="http://www.w3.org/1999/xlink" x="0px" y="0px"
	 viewBox="0 0 477.9 486.1" style="enable-background:new 0 0 477.9 486.1;" xml:space="preserve">
<style type="text/css">
	.st0{fill:#FFF22D;}
	.st1{clip-path:url(#SVGID_2_);fill:#F8DC2F;}
	.st2{clip-path:url(#SVGID_4_);fill:#F9DE2F;}
	.st3{clip-path:url(#SVGID_6_);fill:#FAE02F;}
	.st4{fill:#FFF22D;stroke:#000000;stroke-width:1.52;stroke-miterlimit:3.864;}
	.st5{fill:#C23227;}
	.st6{fill:none;stroke:#000000;stroke-width:1.52;stroke-miterlimit:3.864;}
	.st7{clip-path:url(#SVGID_8_);fill:#FFF22D;}
	.st8{clip-path:url(#SVGID_10_);fill:#C23227;}
	.st9{clip-path:url(#SVGID_12_);fill:#C13227;}
	.st10{clip-path:url(#SVGID_14_);fill:#C13427;}
	.st11{clip-path:url(#SVGID_16_);fill:#C13727;}
	.st12{clip-path:url(#SVGID_18_);fill:#C23927;}
	.st13{clip-path:url(#SVGID_20_);fill:#C23C27;}
	.st14{clip-path:url(#SVGID_22_);fill:#C33E28;}
	.st15{fill:none;stroke:#FDE62F;stroke-width:0.152;stroke-miterlimit:3.864;}
	.st16{fill:#FFFFFF;}
</style>
<g>
	<path d="M262.7,466.4c-1.9,5.7-8.1,19.7-23.1,19.7c-17,0-22.9-18.4-23.2-19.2l-0.5-1.8c0,0,14.7,1.2,22.7,1.2
		c8.1,0,21.8-0.8,24.1-1.2V466.4L262.7,466.4z"/>
	<path d="M307.4,457.3l3.5,0.5c-4.2,10.9-11.6,23-26.4,23c-14.2,0-21.3-8.2-24.3-13.8l-2.5-1.5C257.8,465.5,282.4,464.7,307.4,457.3
		z M172.5,457.3l-3.5,0.5c4.2,10.9,11.6,23,26.4,23c14.2,0,21.9-8.7,25.1-13.8l1.7-1.5C222.1,465.5,197.5,464.7,172.5,457.3z"/>
	<g>
		<path id="a" class="st0" d="M251.6,467.5c-2.3,3.3-3.8,3.2-6.6,3.2c-1.4,0-3.5,1.2-3.4,3.2c0,1.6,1.4,3,3.6,3c5,0,8.9-7,9.9-10
			c0,0,3-0.1,3.8-0.2c0,0-5.3,15.9-19.1,15.9s-19.5-15.7-19.5-15.7s11.6,0.7,18.3,0.7S249.6,467.6,251.6,467.5L251.6,467.5z"/>
	</g>
	<g>
		<path id="b" class="st0" d="M305.5,460.6c-9,2.4-15.4,4.4-30.6,6.2c0,0,0.5,1.6,3.8,1.4c1.3-0.1,1.4-0.4,1.9-0.5
			c0.9-0.2,2.4,0.8,2.2,2.5c-0.1,1.1-1.1,2.6-4.5,2.6s-7.3-2.7-9.2-5.3c0,0-2,0.5-4.1,0.6c0,0,6.4,9,19.2,9
			C298.2,477.1,303.3,464.6,305.5,460.6L305.5,460.6z"/>
	</g>
	<g>
		<g>
			<defs>
				<path id="SVGID_1_" d="M305.5,460.6c-9,2.4-15.4,4.4-30.6,6.2c0,0,0.5,1.6,3.8,1.4c1.3-0.1,1.4-0.4,1.9-0.5
					c0.9-0.2,2.4,0.8,2.2,2.5c-0.1,1.1-1.1,2.6-4.5,2.6s-7.3-2.7-9.2-5.3c0,0-2,0.5-4.1,0.6c0,0,6.4,9,19.2,9
					C298.2,477.1,303.3,464.6,305.5,460.6L305.5,460.6z"/>
			</defs>
			<clipPath id="SVGID_2_">
				<use xlink:href="#SVGID_1_"  style="overflow:visible;"/>
			</clipPath>
			<circle class="st1" cx="285.7" cy="469.4" r="10.4"/>
		</g>
	</g>
	<g>
		<g>
			<defs>
				<path id="SVGID_3_" d="M305.5,460.6c-9,2.4-15.4,4.4-30.6,6.2c0,0,0.5,1.6,3.8,1.4c1.3-0.1,1.4-0.4,1.9-0.5
					c0.9-0.2,2.4,0.8,2.2,2.5c-0.1,1.1-1.1,2.6-4.5,2.6s-7.3-2.7-9.2-5.3c0,0-2,0.5-4.1,0.6c0,0,6.4,9,19.2,9
					C298.2,477.1,303.3,464.6,305.5,460.6L305.5,460.6z"/>
			</defs>
			<clipPath id="SVGID_4_">
				<use xlink:href="#SVGID_3_"  style="overflow:visible;"/>
			</clipPath>
			<circle class="st2" cx="285.7" cy="469.4" r="10.3"/>
		</g>
	</g>
	<g>
		<g>
			<defs>
				<path id="SVGID_5_" d="M305.5,460.6c-9,2.4-15.4,4.4-30.6,6.2c0,0,0.5,1.6,3.8,1.4c1.3-0.1,1.4-0.4,1.9-0.5
					c0.9-0.2,2.4,0.8,2.2,2.5c-0.1,1.1-1.1,2.6-4.5,2.6s-7.3-2.7-9.2-5.3c0,0-2,0.5-4.1,0.6c0,0,6.4,9,19.2,9
					C298.2,477.1,303.3,464.6,305.5,460.6L305.5,460.6z"/>
			</defs>
			<clipPath id="SVGID_6_">
				<use xlink:href="#SVGID_5_"  style="overflow:visible;"/>
			</clipPath>
			<circle class="st3" cx="285.7" cy="469.4" r="10.1"/>
		</g>
	</g>
	<g>
		<path id="d" class="st0" d="M174.3,460.6c9,2.4,15.4,4.4,30.6,6.2c0,0-0.5,1.6-3.8,1.4c-1.3-0.1-1.4-0.4-1.9-0.5
			c-0.9-0.2-2.4,0.8-2.2,2.5c0.1,1.1,1.1,2.6,4.5,2.6s7.3-2.7,9.2-5.3c0,0,2,0.5,4.1,0.6c0,0-6.4,9-19.2,9
			C181.7,477.1,176.5,464.6,174.3,460.6z"/>
	</g>
	<path class="st4" d="M238.5,386.2c48.2,0,101.6-29.6,139.1-72.3c4-4.6,10.9-13.4,27.2-13.4c16.3,0,38,14.9,35.4,41.9
		c-1.9,19.7-30,64.2-78.3,91.6c-48.2,27.4-92.6,33.3-123.5,33.3s-75.3-5.9-123.5-33.3s-76.4-71.8-78.3-91.6
		c-2.6-27,19.1-41.9,35.4-41.9s23.2,8.7,27.2,13.4C136.9,356.6,190.3,386.2,238.5,386.2L238.5,386.2z"/>
	<g>
		<path id="e" class="st5" d="M94,318.2l-0.6-0.6c-3.8-4.4-9.1-10.4-21.7-10.4c-7.3,0-15.6,3.9-21.1,10c-4.1,4.5-8.8,12.5-7.6,24.6
			c1.6,16.6,27.9,59.7,74.9,86.4c37.9,21.5,78.3,32.4,120.2,32.4s82.3-10.9,120.2-32.4c47-26.7,73.3-69.8,74.9-86.4
			c1.1-12.2-3.5-20.1-7.6-24.6c-5.5-6.1-13.8-10-21.1-10c-12.6,0-17.8,6-21.7,10.4l-0.6,0.6c-40.4,46-95.6,74.5-144.1,74.5
			S134.4,364.2,94,318.2L94,318.2z"/>
	</g>
	<circle class="st4" cx="435.3" cy="264" r="41.9"/>
	<circle class="st4" cx="42.6" cy="264" r="41.9"/>
	<path d="M446.7,151.3l0.2-11.2c3.4,2.6,9.9,2.7,13.8-1.4c1.8-1.9,2.7-4.7,2.6-7.7c-0.2-3.3-1.7-6.8-4.2-9.2
		c-14.1-13.7-26.6-27.5-26.6-27.5c-1.3-2-3.3-3.5-4.5-4c-1.8-0.8-7.9-3.6-12.5,3.5c-4.2,6.4-3.6,15.5-2.8,18.8l13.2,18
		C430.5,136.3,443.2,148.5,446.7,151.3z M164.7,34.7c16.6-5.6,31.8-10.2,52.3-12"/>
	<path d="M164.7,34.7c16.6-5.6,31.8-10.2,52.3-12l3.1-1.8c-11.4-8.9-22.8-15-34.1-15c-7.1,0-21.5,4.8-24.8,30.2L164.7,34.7
		L164.7,34.7z M312.3,34.7c-16.6-5.6-31.8-10.2-52.3-12l-3.1-1.8c11.4-9,22.8-15.1,34.1-15.1c7.1,0,21.5,4.8,24.8,30.2L312.3,34.7
		L312.3,34.7z M224.9,20.2c3.4-0.2,11.2-0.3,14.3-0.3s11.7,0.4,13.6,0.6"/>
	<path d="M219.7,21.9C228.1,5.8,235.8,0,240,0c5.3,0,11.5,8.4,16.4,19.3l1,2.4l-4.2-0.4c-2.9-0.5-10.9-0.6-14-0.6s-9.9,0-14,0.3
		L219.7,21.9L219.7,21.9z"/>
	<path class="st0" d="M203.4,401.5l-7.5,27.9l-14-33.7l-8.7-2.3l-10.6,39.5l9.4,2.5l7.5-28.2l14.2,34l8.5,2.3l10.6-39.5L203.4,401.5
		z M225.2,405.9l10.7,0.6l-2.1,40.8l-10.7-0.6L225.2,405.9z M245.5,406.1l0.8,5.4l11.5-1.6l4.9,35.1l10.6-1.5l-4.9-35.1l11.3-1.6
		l-0.8-5.4L245.5,406.1z M356.3,389.5c5.2,9.1,4.2,15.7-3.9,20.4l-3.8,2.2l-15-26l4.1-2.4C347.3,378.1,352.7,383.1,356.3,389.5
		L356.3,389.5z M335.4,378.7l-13.9,8l20.5,35.5l13.8-7.9c14.3-8.3,15.6-20.7,10-30.7C359.1,371.7,347.9,371.5,335.4,378.7z
		 M309.4,429l-4.1-12.6l12.1-3.9l-1.7-5.2l-12.1,3.9l-3.5-10.7l12.4-4l-1.7-5.2l-22.7,7.4l12.6,38.9l25.1-8.1l-1.7-5.2L309.4,429z
		 M153.9,384l-12.1,21.8c-3.7,6.6-7.4,10.8-13.6,7.2c-6.1-3.4-4.7-8.4-1-15.2l12.1-21.9l-9.8-5.4l-12.8,23.1
		c-7.1,12.8,1.8,20.6,8.8,24.4c7.4,4.1,18.2,7.2,25.3-5.5l12.9-23.2L153.9,384L153.9,384z"/>
	<g>
		<path id="g" class="st0" d="M146.9,143.8v191.5l91.6,58.9l91.6-58.9l0.1-191.2c-2.9-2.6-9-8.3-13.8-11.2H160.2
			C156.2,135.6,148.3,142.3,146.9,143.8L146.9,143.8z"/>
	</g>
	<g>
		<path id="g_1_" class="st6" d="M146.9,143.8v191.5l91.6,58.9l91.6-58.9l0.1-191.2c-2.9-2.6-9-8.3-13.8-11.2H160.2
			C156.2,135.6,148.3,142.3,146.9,143.8L146.9,143.8z"/>
	</g>
	<g>
		<path id="h" class="st5" d="M245,225.7c-0.6-0.3-2.9,1.6-4,3.2c-1,1.6-1.3,3.8,0.1,4.6c1.5,0.8,3.3-0.2,3.8-2.8
			C245.2,229.1,245.7,226,245,225.7z M227.4,230.6c0.4,2.6,2.3,3.6,3.8,2.8s1.2-2.9,0.1-4.6c-1-1.6-3.2-3.5-3.8-3.2
			C226.8,226,227.2,229.1,227.4,230.6z M236.6,256.1c3.1-5.1,4.4-10.3,4.4-10.3h-8.8C232.2,245.8,233.6,251.1,236.6,256.1z
			 M238.2,218.1l7.1-12.4l5.5,12.4h9.2c-5.5,5.2-7.8,13.1-7.8,18.3v5.7c0,2.4-1.2,6.4-1.2,6.4s8,6.1,9.2,7.1
			c0.5,0.4,1.1,0.7,0.7,1.7c-0.6,1.8-6,4.2-6.6,4.7c-1.2,1-1.5,1.7-1.2,2.8c0.3,1,1.4,1.2,3.4,0.5c2.1-0.7,6.4-2.9,10.1-4.5
			c3.6-1.6,8.5-1.2,8.5-1.2v-6.9h-13.7v-22.2l-2.4-3.9l6.1-10.8l6.1,10.8l-2.4,3.8V242h7v-11.6l-2.4-3.8l6.1-10.8l6.1,10.8l-2.4,3.8
			V242h7v-11.6l-2.4-3.8l6.1-10.8l6.1,10.8l-2.4,3.8l0.1,22.2h-13.8v10.2c3.1,2.9,6.1,9.6,6.1,13.6s-2.6,5.7-2.6,5.7
			c0.9,3.1,0.7,4.4,0.3,7.3c-0.4,2.9-4,7.5-4,7.5v52.9c0,3.6-8.3,3.3-8.3,0.2v-51.8c-4.7-5.2-17.5-9.2-17.5-9.2
			c-4.7,4.7-7.6,12.8-7.6,12.8c2.1,1.4,5.2,0,6.4-1.4c1.2-1.4,3.6-1.7,5-0.9c1.4,0.9,1.7,1.2,1.2,3.3c-0.5,2.1-1.4,5.5-1.4,8
			c0,2.4,2.8,1.9,4.9,2.1c4.2,0.3,4.9,5,4.5,7.6c-0.3,2.6-1.6,8.2-1.6,11.6c0,3.5,0.2,6.9,0.5,8.8s1,4,0.9,6.4
			c-0.2,3.3-2.3,3.8-4.3,1.7c-2.1-2.1-31-32.9-31-32.9c-1.9,6.2,6.1,17,8.7,20.3c2.6,3.3,2.4,5.7,0.2,8c-2.3,2.3-6.6,3.5-7.5,5.6
			s2.1,8.3,8.2,16.1c6.1,7.8-6.9,13-14.7,14.6s-7.8-3.8-7.3-6.8c0.5-2.9,0.5-4.7,0.3-7.3c-0.2-2.6-2.6-6.2-5.9-10.6
			c-3.3-4.3-3.3-8.3-1.9-18.4c1.4-10.1,1-16.5,1-16.5s-3.5,0.2-8.5,0s-9.2-3.1-9.5-15.2s-0.6-41.1-1.4-44.1c-0.8-3-4-3.6-5.4-3.9
			s-1.5-2.4-0.1-3.1c3.6-1.8,8-6.2,6.3-9c-1.6-2.8-8-2.2-12.3-0.1c-4.3,2.1-8.8,6.6-9.9,7.9c-1.2,1.3-2.1,1.3-2-0.1
			c0.1-1.4-0.8-8-1.4-10.3c-0.6-2.3-2.7-6.7-3.4-7.9s0-1.6,1.2-1.2c1.2,0.5,3.7,1.5,6.1,2.2c2.4,0.7,4.7-0.5,5.9-2.8
			s3.4-7.3,4.5-9.5c1.2-2.2,3-1.7,4.5-1.4s2.9,1.3,4.3,1.9s2.5,0.5,3-0.2s1-0.9,1.9-2.7c0.8-1.7,1.8-0.9,2-0.2
			c4.1,24.9,14.9,26,14.9,26c-1.6,4.2-5.4,10.8-6.4,12.4c-0.9,1.6-1.3,3.8-1.5,5.5s0.6,18.1,1.7,24.2c1.2,6,4.9,3.7,6,1.9
			c1.2-1.9,4.7-9.5,4.7-9.5s0.9-2.1,0.9-3.8c0-1.7-3-5.6-3.7-6.7c-0.7-1.2-3.2-3.5-3.2-9.2c0-5.8,5.2-9.8,7.1-11.3
			c1.8-1.5,1.8-3.6,1.6-4.9c-0.8-4.5-5.5-13.9-7.9-17.5c-2.3-3.6-6.8-10.4-6.8-10.4h9.4l6-12.5l6.6,12.5L238.2,218.1L238.2,218.1z
			 M275.1,281.1V274c0,0-1.9-2.9-6.6-2.9s-7.5,1.4-7.5,2.6C261,275.6,265.2,281.1,275.1,281.1L275.1,281.1z"/>
	</g>
	<g>
		<path id="i" class="st5" d="M154.1,191.5H323V203H154.1V191.5z"/>
	</g>
	<g>
		<path id="j" class="st5" d="M154.1,139.7H323v45.9H154.1V139.7z"/>
	</g>
	<path class="st0" d="M289.8,187v-7.8h-12.3v-5.1h10v-22.2h-9.2l-3.1-6.1l-3.1,6.1h-9.2v22.2h10v5.1h-24v-5.1h10v-22.2h-9.2
		l-3.1-6.1l-3.1,6.1h-9.2v22.2h10v5.1h-24.5v-5.1h10v-22.2h-9.2l-3.1-6.1l-3.1,6.1h-9.2v22.2h10v5.1l-19.4,0.1l-19.3-4.5l3.9,12.3
		L289.8,187z"/>
	<path class="st0" d="M183.2,173.7l12.9,3.2l6.9-19.5v-4.9L183.2,173.7z"/>
	<g>
		<path id="k" class="st0" d="M214.4,21.5c-20.1,1.8-32.4,6-48.7,11.5c1.2-7,2.8-11.2,5.7-15.3c-0.2,3.6,2.7,7.5,8.6,7.5
			c5.9,0,9.2-3.4,9.2-5.4s-1.2-5-4.4-5s-3.9,2.3-3.6,3.2c0.2,0.9-0.5,1.1-1.4,1.4c-0.9,0.2-3.4-1.1-2.5-4.3c1-3.5,5.2-5.4,10.2-5.4
			C187.5,9.6,199.3,9.1,214.4,21.5L214.4,21.5z"/>
	</g>
	<g>
		<path id="l" class="st0" d="M311.5,33.1c-16.3-5.5-29.2-9.7-49.2-11.5c9.2-6.4,17.9-11.9,27.3-11.9c5,0,9.2,1.9,10.2,5.4
			c0.9,3.2-1.6,4.5-2.5,4.3s-1.6-0.5-1.4-1.4s-0.5-3.2-3.6-3.2s-4.4,2.9-4.4,5s3.3,5.4,9.2,5.4c5.9,0,8.9-3.9,8.6-7.5
			C308.5,21.9,310.3,26.1,311.5,33.1L311.5,33.1z"/>
	</g>
	<g>
		<g>
			<defs>
				<path id="SVGID_7_" d="M226.8,17.7c-0.5,0.9-1,1.5-1.6,2.5c3.3-0.2,11-0.3,14-0.3c3.1,0,11.5,0.4,13.4,0.5
					c-3-6.9-8.6-16.5-12.6-16.5c-0.8,0-2.5-0.4-5.7,3.3c0,0-0.5,1.6,1.6,1.3c2.6-0.4,3.6,2.3,3.4,3.6c-0.5,3.1-4.1,6.1-7.7,6.1
					C227.9,18.3,226.8,17.7,226.8,17.7L226.8,17.7z"/>
			</defs>
			<clipPath id="SVGID_8_">
				<use xlink:href="#SVGID_7_"  style="overflow:visible;"/>
			</clipPath>
			<path class="st7" d="M226.8,17.7c-0.5,0.9-1,1.5-1.6,2.5c3.3-0.2,11-0.3,14-0.3c3.1,0,11.5,0.4,13.4,0.5
				c-3-6.9-8.6-16.5-12.6-16.5c-0.8,0-2.5-0.4-5.7,3.3c0,0-0.5,1.6,1.6,1.3c2.6-0.4,3.6,2.3,3.4,3.6c-0.5,3.1-4.1,6.1-7.7,6.1
				C227.9,18.3,226.8,17.7,226.8,17.7L226.8,17.7z"/>
		</g>
	</g>
	<path d="M52.1,130.6l13.2-18c0.8-3.3,1.4-12.4-2.8-18.8c-4.7-7.1-10.8-4.3-12.5-3.5c-1.1,0.5-3.2,2-4.5,4c0,0-12.7,14-26.7,27.8
		c-2,1.9-4.2,5.5-4.3,8.9c-0.2,3,1,5.9,2.7,7.8c3.8,4.1,10.5,3.9,13.9,1.3l0.2,11.2C34.9,148.5,47.6,136.3,52.1,130.6z"/>
	<path class="st4" d="M238.5,104.4c75.4,0,118.3,70.8,127.6,83.2c16.6,22.2,37,40.2,60.6,34.2c34.7-8.8,32.8-60.2,32.8-60.2
		c-8.3-6-22.6-13.6-48.6-50.4c-25.4-36.1-83-89.6-172.5-89.6S91.4,75.1,66,111.2c-26,36.8-40.2,44.4-48.6,50.4
		c0,0-1.9,51.4,32.8,60.2c23.6,6,43.9-12,60.6-34.2C120.2,175.1,163.1,104.4,238.5,104.4L238.5,104.4z"/>
	<g>
		<path id="o" class="st5" d="M238.5,97.7c72.7,0,115.9,61.6,130.1,81.9c1.1,1.6,2.1,3.1,2.8,4c19.2,25.6,36.8,36,53.6,31.8
			c24.4-6.2,27.3-39.7,27.7-49.8v-0.4l-0.3-0.2c-8.6-5.9-22.9-15.8-46.9-49.9c-14.4-20.4-68.8-86.8-167-86.8s-152.7,66.4-167,86.8
			c-23.9,33.8-38.8,44.2-46.9,49.7l-0.3,0.2v0.4c0.3,10.2,3.4,43.8,27.6,50c16.8,4.3,34.4-6.1,53.6-31.8c0.7-0.9,1.7-2.4,2.8-4
			C122.6,159.3,165.8,97.7,238.5,97.7L238.5,97.7z"/>
	</g>
	<path class="st0" d="M82.2,126.1l-7.6,9l14.2,29.4l-30.5-10l-6.5,7.8l31.3,26.3l4.7-5.6l-22.1-18.6l29.7,9.6l3.1-3.7L84.4,142
		l22.2,18.7l6.9-8.2L82.2,126.1z M121.8,119.9l-7.1,7.6l-7.3-14L121.8,119.9z M105.2,101.4l-7,7.5l19.6,39l4.8-5.1l-5.3-10.3
		l9.5-10.2l10.7,4.5l7.9-8.5L105.2,101.4L105.2,101.4z M153.1,64.3l15.3,24.5L134.2,76l-7.6,4.8l21.7,34.7l8.3-5.2l-15.4-24.7
		l34.5,12.8l7.4-4.6l-21.7-34.7L153.1,64.3z M282.5,84.4l4.3-12.5l12,4.1l1.8-5.2l-12-4.1l3.7-10.7l12.4,4.3l1.8-5.1l-22.6-7.8
		l-13.3,38.7l24.9,8.6l1.8-5.2L282.5,84.4z M352.5,81.8l-3.7,4l8.6,7.7l-23.7,26.4l8,7.2l23.7-26.4l8.5,7.6l3.6-4L352.5,81.8z
		 M364.2,143.2l10.1-8.5l8.2,9.8l4.2-3.5l-8.2-9.8l8.6-7.2l8.4,10l4.2-3.5l-15.4-18.3L353,138.5l16.9,20.2l4.2-3.5L364.2,143.2z
		 M411.6,153.7c2.9,3.2,2.9,6.9-0.4,9.9c-3.3,2.9-7.4,2.3-10.5-1.2l-1.8-2l10.3-9.3L411.6,153.7z M406.1,173.8
		c0.1,0.1,6.3,3.2,13.2-3c5.8-5.2,3.8-12.3-2.2-19L406,139.4l-30.4,27.4l7.2,8l12.1-10.9l3.6,3.9l-7.7,17.2l9.1,7.3L406.1,173.8
		L406.1,173.8z M252.3,44L252,60.7l-16-0.3l0.3-16.7l-10.7-0.2l-0.7,40.9l10.7,0.2l0.3-18.7l16.1,0.3l-0.3,18.7l10.8,0.2l0.7-40.9
		L252.3,44z M310.5,104.8c7.6,4.6,16,3.8,19.8-2.6c2.8-4.5,2.9-8.2-0.5-14.9c-0.9-1.9-2-3.3-2.8-5c-1.5-2.8-2.9-5.1-1.6-7.3
		c1.4-2.3,4.7-2.5,7.7-0.7c3.2,1.9,4.4,5,5.1,7.2l5-2.1c-1.5-4-3.8-7.7-8.8-10.7c-8.7-5.3-15.9-3.9-18.8,1.1c-3,5-2.1,9.1,0.1,13.3
		c0,0,1.4,2.5,2.3,4.1c1.9,3.3,4.2,7.5,2.6,10.1c-2,3.3-5.4,4-8.6,1.9c-4.2-2.7-5.2-5.7-6.1-8.8l-5.4,2.3
		C301.6,96.8,304.4,101.1,310.5,104.8L310.5,104.8z M199.1,46.1c-13.4,2.8-22.2,12.7-19.3,26c1.6,7.2,8.1,20.5,28.4,16.2
		c5.6-1.1,8.7-3.4,11.7-6.2l-3.7-4.3c-1.4,1.6-3.5,3.8-8.1,4.8c-9.8,2.1-15.7-5.9-17.1-12.8c-2.2-10.2,3.8-17.2,10.5-18.6
		c4.7-1,7.7,0.2,9.5,1h0.1l1.2-5.2C208.9,45.7,205.1,44.9,199.1,46.1L199.1,46.1z"/>
	<g>
		<g>
			<path id="q" class="st0" d="M415.9,114.2c-0.6-2.4-1.4-12.8,2.6-18.2c3.6-5,6.9-3.3,8.7-2.5c0.8,0.4,3.2,1.9,3.7,5
				c0.3,1.6-0.3,4.1-1.5,5.9c-2.5,3.2-8.2,5.4-8.2,5.4s7.3,14.2,22.6,28.3v9.6C422.7,127.2,415.9,114.2,415.9,114.2L415.9,114.2z"/>
		</g>
	</g>
	<g>
		<g>
			<path id="r" class="st0" d="M426.4,111.2c2.1,3.6,7.4,12.4,20.6,24.8c2.2,2.1,7.7,3.8,10.8,0.3c1.2-1.3,1.9-3.2,1.8-5.5
				c-0.1-2.5-1.7-5.5-3.2-6.8c-2.6-2.3-14-13.7-22.2-22.8c-0.2,1.6-1.6,4.4-1.6,4.4C431.5,107.2,430.1,109.4,426.4,111.2z"/>
		</g>
		<g>
			<g>
				<defs>
					<path id="SVGID_9_" d="M426.4,111.2c2.1,3.6,7.4,12.4,20.6,24.8c2.2,2.1,7.7,3.8,10.8,0.3c1.2-1.3,1.9-3.2,1.8-5.5
						c-0.1-2.5-1.7-5.5-3.2-6.8c-2.6-2.3-14-13.7-22.2-22.8c-0.2,1.6-1.6,4.4-1.6,4.4C431.5,107.2,430.1,109.4,426.4,111.2z"/>
				</defs>
				<clipPath id="SVGID_10_">
					<use xlink:href="#SVGID_9_"  style="overflow:visible;"/>
				</clipPath>
				<path class="st8" d="M450.4,143.8c-6.9-5.1-10.6-8.4-16.4-14.8c-5.7-6.2-8.6-10-13-17.2l2.6-1.6c4.4,6.8,7.2,10.5,12.7,16.5
					c6,6.6,9.8,10,16.9,15.3L450.4,143.8L450.4,143.8z"/>
			</g>
		</g>
		<g>
			<g>
				<defs>
					<path id="SVGID_11_" d="M426.4,111.2c2.1,3.6,7.4,12.4,20.6,24.8c2.2,2.1,7.7,3.8,10.8,0.3c1.2-1.3,1.9-3.2,1.8-5.5
						c-0.1-2.5-1.7-5.5-3.2-6.8c-2.6-2.3-14-13.7-22.2-22.8c-0.2,1.6-1.6,4.4-1.6,4.4C431.5,107.2,430.1,109.4,426.4,111.2z"/>
				</defs>
				<clipPath id="SVGID_12_">
					<use xlink:href="#SVGID_11_"  style="overflow:visible;"/>
				</clipPath>
				<path class="st9" d="M453.3,141.9l-2.8,1.8c-6.9-5.1-10.6-8.5-16.4-14.8c-5.7-6.2-8.6-10-13-17.2l2.6-1.6
					c4.4,6.8,7.2,10.5,12.7,16.5C442.4,133.2,446.2,136.6,453.3,141.9L453.3,141.9z"/>
			</g>
		</g>
		<g>
			<g>
				<defs>
					<path id="SVGID_13_" d="M426.4,111.2c2.1,3.6,7.4,12.4,20.6,24.8c2.2,2.1,7.7,3.8,10.8,0.3c1.2-1.3,1.9-3.2,1.8-5.5
						c-0.1-2.5-1.7-5.5-3.2-6.8c-2.6-2.3-14-13.7-22.2-22.8c-0.2,1.6-1.6,4.4-1.6,4.4C431.5,107.2,430.1,109.4,426.4,111.2z"/>
				</defs>
				<clipPath id="SVGID_14_">
					<use xlink:href="#SVGID_13_"  style="overflow:visible;"/>
				</clipPath>
				<path class="st10" d="M453.4,141.8l-2.8,1.8c-6.9-5.2-10.6-8.5-16.4-14.8c-5.7-6.2-8.6-10-13-17.2l2.6-1.6
					c4.4,6.8,7.2,10.5,12.7,16.5C442.5,133.1,446.3,136.5,453.4,141.8L453.4,141.8z"/>
			</g>
		</g>
		<g>
			<g>
				<defs>
					<path id="SVGID_15_" d="M426.4,111.2c2.1,3.6,7.4,12.4,20.6,24.8c2.2,2.1,7.7,3.8,10.8,0.3c1.2-1.3,1.9-3.2,1.8-5.5
						c-0.1-2.5-1.7-5.5-3.2-6.8c-2.6-2.3-14-13.7-22.2-22.8c-0.2,1.6-1.6,4.4-1.6,4.4C431.5,107.2,430.1,109.4,426.4,111.2z"/>
				</defs>
				<clipPath id="SVGID_16_">
					<use xlink:href="#SVGID_15_"  style="overflow:visible;"/>
				</clipPath>
				<path class="st11" d="M453.5,141.8l-2.8,1.8c-6.9-5.2-10.6-8.5-16.4-14.8c-5.7-6.2-8.6-10-13-17.2l2.6-1.6
					c4.4,6.8,7.3,10.5,12.7,16.5C442.6,133,446.4,136.4,453.5,141.8z"/>
			</g>
		</g>
		<g>
			<g>
				<defs>
					<path id="SVGID_17_" d="M426.4,111.2c2.1,3.6,7.4,12.4,20.6,24.8c2.2,2.1,7.7,3.8,10.8,0.3c1.2-1.3,1.9-3.2,1.8-5.5
						c-0.1-2.5-1.7-5.5-3.2-6.8c-2.6-2.3-14-13.7-22.2-22.8c-0.2,1.6-1.6,4.4-1.6,4.4C431.5,107.2,430.1,109.4,426.4,111.2z"/>
				</defs>
				<clipPath id="SVGID_18_">
					<use xlink:href="#SVGID_17_"  style="overflow:visible;"/>
				</clipPath>
				<path class="st12" d="M453.6,141.7l-2.8,1.8c-6.9-5.2-10.6-8.5-16.4-14.9c-5.7-6.2-8.6-10-13-17.1l2.6-1.6
					c4.4,6.8,7.3,10.5,12.8,16.5C442.7,132.9,446.5,136.3,453.6,141.7L453.6,141.7z"/>
			</g>
		</g>
		<g>
			<g>
				<defs>
					<path id="SVGID_19_" d="M426.4,111.2c2.1,3.6,7.4,12.4,20.6,24.8c2.2,2.1,7.7,3.8,10.8,0.3c1.2-1.3,1.9-3.2,1.8-5.5
						c-0.1-2.5-1.7-5.5-3.2-6.8c-2.6-2.3-14-13.7-22.2-22.8c-0.2,1.6-1.6,4.4-1.6,4.4C431.5,107.2,430.1,109.4,426.4,111.2z"/>
				</defs>
				<clipPath id="SVGID_20_">
					<use xlink:href="#SVGID_19_"  style="overflow:visible;"/>
				</clipPath>
				<path class="st13" d="M453.7,141.6l-2.7,1.8c-6.9-5.2-10.6-8.5-16.4-14.9c-5.7-6.2-8.6-10-13-17.1l2.6-1.6
					c4.4,6.8,7.3,10.5,12.8,16.4C442.8,132.8,446.6,136.2,453.7,141.6z"/>
			</g>
		</g>
		<g>
			<g>
				<defs>
					<path id="SVGID_21_" d="M426.4,111.2c2.1,3.6,7.4,12.4,20.6,24.8c2.2,2.1,7.7,3.8,10.8,0.3c1.2-1.3,1.9-3.2,1.8-5.5
						c-0.1-2.5-1.7-5.5-3.2-6.8c-2.6-2.3-14-13.7-22.2-22.8c-0.2,1.6-1.6,4.4-1.6,4.4C431.5,107.2,430.1,109.4,426.4,111.2z"/>
				</defs>
				<clipPath id="SVGID_22_">
					<use xlink:href="#SVGID_21_"  style="overflow:visible;"/>
				</clipPath>
				<path class="st14" d="M453.7,141.5l-2.7,1.8c-6.9-5.2-10.6-8.5-16.4-14.9c-5.7-6.2-8.6-10-13.1-17.1l2.6-1.6
					c4.4,6.8,7.3,10.5,12.8,16.4C442.9,132.7,446.7,136.1,453.7,141.5L453.7,141.5z"/>
			</g>
		</g>
	</g>
	<g>
		<g>
			<path id="t" class="st0" d="M34.3,146.9l-0.1-9.1c15.4-14.1,22.6-28.3,22.6-28.3s-5.7-2.1-8.2-5.4c-1.3-1.8-1.8-4.2-1.5-5.9
				c0.5-3.1,2.9-4.6,3.7-5c1.8-0.8,5.1-2.5,8.7,2.5c3.9,5.5,2.9,15.8,2.3,18.2C62,114.1,54.8,126.6,34.3,146.9z"/>
		</g>
	</g>
	<g>
		<g>
			<path id="u" class="st0" d="M51.4,111.2c-2.1,3.6-7.4,12.4-20.6,24.8c-2.2,2.1-7.7,3.8-10.8,0.3c-1.2-1.3-1.9-3.2-1.8-5.5
				c0.1-2.5,1.7-5.5,3.2-6.8c2.6-2.3,14-13.7,22.2-22.8c0.2,1.6,1.6,4.4,1.6,4.4C46.3,107.2,47.7,109.4,51.4,111.2z"/>
		</g>
	</g>
	<circle class="st5" cx="42.7" cy="264.4" r="34.1"/>
	<path class="st0" d="M61,239.7c0.6,0.5,2.1,1.7,2.1,1.7c3,2.6,5.6,5.7,7.2,9.4c1.9,4.7-4.1,11.6-5.8,13.3
		c-7.9,7.4-12.9,7.3-15.7,7.7c-2.8,0.4-4.6-1.4-4.6-3.5c0.2-6.3,4.6-16.9,5.9-18.9c0.8-1.3,2.2-2.1,2.2-2.1c2.9-0.8,5.8-2.1,7.2-3.8
		C61,241.9,61,239.7,61,239.7L61,239.7z M32.5,235.2c3.2-1.1,6.6-1.6,10-1.7c5.3,0,10.4,1,14.7,3.7c1.1,0.7,1.4,1.6,1.4,2.8
		c0,4-6.3,5.4-10.5,5.4s-9.4-1.7-13-2.8c-3.7-1.1-4.5-3.3-4.5-4.2C30.7,237.5,31.4,235.6,32.5,235.2L32.5,235.2z M19.1,284.3
		c-4.3-4.2-7.4-11.9-7.4-19.9c0-3.1,0.5-6.1,1.3-9c0,0,0.7-1.3,1.4-0.2c0.5,0.8,1.2,1.6,1.8,2.7s3.9,3.6,3.6,5.6
		c-1.2,7.5-0.1,17.6,0.2,19.2C20.5,284.4,19.9,285.2,19.1,284.3z M19.9,258.5c-1.5-0.8-3.3-4.7-3.9-5.9c-0.4-0.8-0.4-3.1,0.2-4.2
		c2.5-4.4,6.1-8.5,10.7-10.6c0.5-0.2,1.4-0.3,1.4,1c0,0.7,0.4,1.9,0.4,2.6c0,0.7,0.3,2.2-0.6,3.4s-5.1,8.4-6.1,12.5
		C21.6,258.3,21.4,259.3,19.9,258.5z M43.2,295.2c-0.2,0-0.4,0-0.7,0c-5.7,0-11.9-2.2-15.6-4.2c-3.8-2.1-5.2-11.9-5.2-16.8
		c0-16.1,6.6-25.7,7.7-27.6c1.1-1.9,3.4-2.1,5.2-1.6s2.4,0.8,4.5,1.4c1.1,0.3,3.3,0.8,4.9,1.1c1.6,0.4,3.4,0.7,2.3,3.8
		c-1.1,3-4.6,10.4-5,19.2c-0.4,7.9,0.7,15.7,2.5,20.6C45,294.1,45,295.3,43.2,295.2z M51.3,294c-1.8,0.6-2.6-0.7-3.4-1.6
		c-3.2-3.6-4-13.3-4-14.6c0-1.3,0.5-2.7,1.4-2.7c7.7-0.2,13.2-2.4,18.2-6.6c5-4.1,7.2-8.8,7.7-9.7c0.5-0.9,1.4-0.8,1.7,0.6
		c0.2,1.1,0.6,3,0.6,5.1C73.4,278.4,64,289.9,51.3,294L51.3,294z"/>
	<circle class="st5" cx="435.6" cy="264.4" r="34.1"/>
	<path class="st0" d="M418.9,243.6c1.5,1.7,4.3,2.9,7.2,3.8c0,0,1.4,0.8,2.2,2.1c1.2,2,5.7,12.6,5.9,18.9c0.1,2.1-1.7,3.9-4.6,3.5
		c-2.8-0.4-7.8-0.3-15.7-7.7c-1.8-1.6-7.8-8.6-5.8-13.3c1.5-3.7,4.2-6.8,7.2-9.4c0,0,1.5-1.2,2.1-1.7
		C417.3,239.7,417.4,241.9,418.9,243.6L418.9,243.6z M447.7,238.4c0,0.9-0.8,3.1-4.5,4.2c-3.7,1.1-8.8,2.8-13,2.8
		s-10.5-1.4-10.5-5.4c0-1.2,0.3-2.1,1.4-2.8c4.3-2.7,9.4-3.7,14.7-3.7c3.5,0,6.9,0.6,10,1.7C447,235.6,447.7,237.5,447.7,238.4
		L447.7,238.4z M458.2,282.7c0.4-1.6,1.4-11.7,0.2-19.2c-0.3-2,3-4.5,3.6-5.6s1.3-1.9,1.8-2.7c0.7-1.1,1.4,0.2,1.4,0.2
		c0.9,2.9,1.3,5.9,1.3,9c0,8-3.1,15.7-7.4,19.9C458.4,285.2,457.9,284.4,458.2,282.7z M456.5,257.4c-1-4.1-5.2-11.4-6.1-12.5
		c-0.9-1.2-0.6-2.7-0.6-3.4s0.4-1.9,0.4-2.6c0-1.3,0.8-1.3,1.3-1c4.6,2.1,8.2,6.2,10.7,10.6c0.6,1,0.6,3.3,0.2,4.2
		c-0.6,1.2-2.4,5-3.9,5.9C457,259.3,456.7,258.3,456.5,257.4z M434.5,291c1.8-4.8,2.8-12.7,2.5-20.6c-0.4-8.7-3.9-16.1-5-19.2
		c-1.1-3.1,0.7-3.4,2.3-3.8c1.6-0.4,3.8-0.8,4.9-1.1c2-0.6,2.7-1,4.5-1.4c1.8-0.5,4.1-0.2,5.2,1.6c1.1,1.9,7.7,11.5,7.7,27.6
		c0,5-1.4,14.7-5.2,16.8c-3.7,2.1-9.9,4.2-15.6,4.2c-0.2,0-0.4,0-0.7,0C433.4,295.3,433.4,294.1,434.5,291z M404.9,264.4
		c0-2.1,0.4-4,0.6-5.1c0.2-1.3,1.2-1.5,1.7-0.6s2.6,5.6,7.7,9.7c5,4.1,10.5,6.4,18.2,6.6c0.9,0,1.4,1.4,1.4,2.7c0,1.3-0.8,11-4,14.6
		c-0.8,0.9-1.6,2.2-3.4,1.6C414.4,289.9,404.9,278.4,404.9,264.4L404.9,264.4z"/>
	<circle class="st15" cx="436" cy="264.2" r="34.1"/>
</g>
<polygon class="st16" points="-326,-159 -373,-22 -326,-22 -373,89.1 -277,-50 -325,-50 -270,-159 "/>
</svg>
