<svg xmlns="http://www.w3.org/2000/svg" viewBox="0 0 350 245.3"><defs><style>.cls-1{fill:#c8102e;}.cls-2{fill:#c5b783;}.cls-3{fill:#fff;}</style></defs><g id="Слой_2" data-name="Слой 2"><g id="Слой_1-2" data-name="Слой 1"><path class="cls-1" d="M175,43.1,0,144.2,175,245.3,350,144.2Z"/><path class="cls-2" d="M168.4,13.5l-13.1-1.3L149.8,0l-5.3,12.1-13.2,1.3,9.8,8.8-2.7,13,11.4-6.7,11.5,6.7-2.8-13Z"/><path class="cls-2" d="M269,13.5l-13.1-1.3L250.4,0l-5.3,12.1-13.2,1.3,9.9,8.8-2.8,13,11.4-6.7,11.5,6.7-2.8-13Z"/><path class="cls-2" d="M218.7,13.5l-13.2-1.3L200.2,0l-5.4,12.1-13.1,1.3,9.8,8.8-2.8,13,11.5-6.7,11.4,6.7-2.8-13Z"/><path class="cls-2" d="M118.1,13.5l-13.2-1.3L99.6,0,94.2,12.1,81,13.5l9.8,8.8L88,35.3l11.5-6.7,11.4,6.7-2.8-13Z"/><path class="cls-3" d="M219.4,169.9c-10.9,14.5-28.4,21.9-44.4,21.9-27.5,0-55.1-16.5-55.1-48.6,0-23.8,20.9-46.3,55.1-46.3,11,0,21.7,3.5,27.6,6.1l9.4-5.4V119l-7.3,4.2a36.51,36.51,0,1,0-29.8,57.6,44.44,44.44,0,0,0,34.7-16.5Zm108.8-25.7L175,232.6,21.9,144.2,175,55.8ZM175,220l131.2-75.8L262.4,119l-65.6,37.9v7.6a29.8,29.8,0,0,1-23.1,9.5l4.7-3.4-8.2-9.1-11.9,2.6,2,6.1A30,30,0,0,1,145.1,144l4.3,4.8,8.2-9.1L153.9,128l-5.3,2.3a29.45,29.45,0,0,1,19.8-15.2l6.6,3.8,6.6-3.8a30,30,0,0,1,20.8,17.1l16.4-9.4V93.7L175,68.4,43.8,144.2l43.8,25.2L114.3,154a52.44,52.44,0,0,0,25.8,35.6l-8.8,5.1Z"/><path class="cls-1" d="M196.9,131.6V124l11.1,5s1.1.8,2.9,8.6c.8,7.5.3,11,.3,11l-7.7,4.4s2.9-6,0-17.6C198.5,132.4,196.9,131.6,196.9,131.6Z"/><path class="cls-1" d="M166.9,140.6l9.7-10.7,13,5.7L188.2,150l-14,2.9Z"/></g></g></svg>