<?xml version="1.0" encoding="utf-8"?>
<!-- Generator: Adobe Illustrator 21.1.0, SVG Export Plug-In . SVG Version: 6.00 Build 0)  -->
<svg version="1.1" id="Слой_1" xmlns="http://www.w3.org/2000/svg" xmlns:xlink="http://www.w3.org/1999/xlink" x="0px" y="0px"
	 viewBox="0 0 284 82.5" style="enable-background:new 0 0 284 82.5;" xml:space="preserve">
<style type="text/css">
	.st0{fill:#FFFFFF;}
</style>
<g>
	<path class="st0" d="M27.9,34.5h-8l4.8-27.7H12.8L8,34.5H0L5.9,0.5h27.9L27.9,34.5z"/>
	<path class="st0" d="M46,35c-3.5-0.1-6.4-1.2-8.5-3.5c-2.1-2.3-3.3-5.3-3.6-9.1c-0.2-1.9,0-4.1,0.4-6.6c0.5-2.5,1.3-4.9,2.4-7
		c1.2-2.1,2.6-3.9,4.3-5.3c2.9-2.4,6.2-3.5,10-3.5c2.3,0,4.4,0.6,6.1,1.6c1.7,1,3.1,2.5,4.2,4.4c1,1.9,1.7,4.1,1.8,6.6
		c0.1,1.7,0,3.7-0.3,5.9c-0.3,2.2-1,4.3-1.8,6.3c-0.9,2-2.1,3.8-3.5,5.3c-1.4,1.5-3.1,2.7-5,3.6C50.6,34.6,48.4,35.1,46,35z
		 M55.1,12.5c-0.2-3.9-1.7-5.9-4.5-6.1c-2.2-0.1-4,0.8-5.5,2.6c-1.5,1.9-2.4,4.6-2.9,8.3c-0.3,2.2-0.4,4-0.3,5.2
		c0.2,4,1.7,6,4.6,6.1c1.9,0.1,3.5-0.6,4.9-2c1.4-1.5,2.4-3.6,3-6.4C55,17.4,55.2,14.9,55.1,12.5z"/>
	<path class="st0" d="M92.4,39.4h-7.6l0.8-4.9h-18l-0.8,4.9h-7.6l1.5-11.2l2,0c2.9-1.7,5.1-5,6.4-10.1l4.3-17.7h22.6l-4.8,27.8h3.6
		L92.4,39.4z M72.1,28.3l11.2-0.1L87,6.8h-7l-2.6,11C76.2,22.3,74.4,25.8,72.1,28.3z"/>
	<path class="st0" d="M128.2,39.4h-7.6l0.8-4.9h-18l-0.8,4.9h-7.6l1.5-11.2l2,0c2.9-1.7,5.1-5,6.4-10.1l4.3-17.7h22.6L127,28.2h3.6
		L128.2,39.4z M107.8,28.3l11.2-0.1l3.7-21.4h-7l-2.6,11C111.9,22.3,110.2,25.8,107.8,28.3z"/>
	<path class="st0" d="M154.9,20.1h-12.5l-1.4,8.1h14.8l-1.1,6.3h-22.8l5.9-34.1h22.9l-1.1,6.3h-14.8l-1.3,7.2h12.5L154.9,20.1z"/>
	<path class="st0" d="M168.1,23l-2,11.6h-8L164,0.5l12.2,0c3.8,0,6.8,1.1,9,3.2c2.2,2.1,3.1,4.8,2.9,8.2c-0.2,2.3-0.9,4.3-2.2,6
		c-1.3,1.7-3,3-5.1,3.9c-2.1,0.9-4.5,1.3-7.1,1.3L168.1,23z M169.2,16.6l4.8,0c2,0,3.6-0.7,4.7-2c1.1-1.3,1.5-2.8,1.3-4.7
		c-0.1-1-0.5-1.7-1.1-2.3s-1.4-0.9-2.4-0.9l-5.6,0L169.2,16.6z"/>
	<path class="st0" d="M216.7,21.2h-4.2l-2.3,13.3h-8l2.3-13.3h-3.9L192,34.5h-10.3l13.5-19l-6.9-15.1l9.8,0l4.4,13.4h3.4l2.3-13.4h8
		l-2.3,13.4h3l8.8-13.4h10.5l-12.4,15.8l6.5,18.3h-9.7L216.7,21.2z"/>
	<path class="st0" d="M258,0.5h8.2l-5.9,34.1h-8l3.7-21l-15.3,21h-8.2l5.9-34.1h8l-3.7,21L258,0.5z"/>
	<g>
		<path class="st0" d="M44,70.3c-0.2,2.4-1,4.5-2.4,6.4c-1.4,1.9-3.2,3.3-5.4,4.3c-2.2,1-4.6,1.5-7.2,1.4c-3.6-0.1-6.4-1.2-8.4-3.4
			c-2-2.2-3.2-5.2-3.3-9c-0.1-2.5,0.1-5.3,0.8-8.3c0.7-3,1.8-5.6,3.4-7.8c1.6-2.2,3.4-3.9,5.5-5c2.1-1.1,4.5-1.6,7-1.6
			c3.7,0.1,6.7,1.2,8.8,3.3c2.2,2.2,3.3,5.2,3.5,9l-8,0c0-2.1-0.3-3.6-1.1-4.4c-0.8-0.9-2-1.4-3.7-1.4c-4.2-0.1-6.8,3.1-7.7,9.8
			c-0.4,3-0.6,5.2-0.6,6.5c-0.1,3.8,1.3,5.8,4.3,5.9c1.9,0.1,3.4-0.4,4.5-1.4c1.1-1,1.8-2.4,2.2-4.2L44,70.3z"/>
		<path class="st0" d="M45.1,81.9L51,47.8l10.8,0c4.3,0,7.5,0.8,9.6,2.4c2.1,1.6,3.1,3.9,2.9,6.8c-0.2,3.6-2.2,6.1-5.9,7.6
			c1.3,0.5,2.4,1.3,3.1,2.5c0.7,1.2,1.1,2.7,0.9,4.4c-0.2,3.3-1.5,5.8-3.9,7.6c-2.4,1.8-5.6,2.7-9.8,2.7H45.1z M55.6,67.4l-1.4,8.1
			l4.8,0c1.5,0,2.7-0.4,3.7-1.1c1-0.7,1.6-1.7,1.8-3c0.4-2.6-0.6-4-3-4.1L55.6,67.4z M56.5,62l3.8,0c3.5-0.1,5.4-1.4,5.9-4
			c0.4-2.6-1-3.9-4-3.9l-4.3,0L56.5,62z"/>
		<path class="st0" d="M87.8,82.4c-3.5-0.1-6.4-1.2-8.5-3.5c-2.1-2.3-3.3-5.3-3.6-9.1c-0.2-1.9,0-4.1,0.4-6.6c0.5-2.5,1.3-4.9,2.4-7
			c1.2-2.1,2.6-3.9,4.3-5.3c2.9-2.4,6.2-3.5,10-3.5c2.3,0,4.4,0.6,6.1,1.6c1.7,1,3.1,2.5,4.2,4.4c1,1.9,1.7,4.1,1.8,6.6
			c0.1,1.7,0,3.7-0.3,5.9c-0.3,2.2-1,4.3-1.8,6.3c-0.9,2-2.1,3.8-3.5,5.3c-1.4,1.5-3.1,2.7-5,3.6C92.3,82,90.2,82.4,87.8,82.4z
			 M96.9,59.9c-0.2-3.9-1.7-5.9-4.5-6.1c-2.2-0.1-4,0.8-5.5,2.6c-1.5,1.9-2.4,4.6-2.9,8.3c-0.3,2.2-0.4,4-0.3,5.2
			c0.2,4,1.7,6,4.6,6.1c1.9,0.1,3.5-0.6,4.9-2c1.4-1.5,2.4-3.6,3-6.4S97,62.2,96.9,59.9z"/>
		<polygon class="st0" points="130,47.8 138.3,47.8 132.4,81.9 124.3,81.9 128,60.9 112.7,81.9 104.5,81.9 110.4,47.8 118.4,47.8 
			114.8,68.9 		"/>
		<path class="st0" d="M163.4,68.4h-3.9l-2.4,13.5h-8l5.9-34.1h8L160.8,61h2.8l8.6-13.2h10.1l-12.1,16.1l7,18h-9.2L163.4,68.4z"/>
		<path class="st0" d="M213.3,47.8l-5.9,34.1h-8l4.8-27.8h-7.3l-3.1,14.1c-1.1,4.7-2.7,8.2-4.9,10.3c-2.1,2.1-4.8,3.3-8.1,3.3h-2.9
			l0.9-6.3l0.8,0c1.9-0.2,3.4-1.1,4.6-2.8c1.2-1.7,2.1-4.4,2.7-8l0.4-2.4l2.9-14.5H213.3z"/>
		<path class="st0" d="M227.5,62.6l-0.1,0.3l8.1-15h8.8l-15.8,27.1c-1.5,2.6-3,4.6-4.8,5.8c-1.7,1.2-3.7,1.8-5.9,1.8l-2.7,0l0.5-6.5
			l1.5,0.1c1.2,0,2.1-0.2,2.9-0.7c0.8-0.5,1.5-1.3,2.1-2.5l0.7-1.2l-7.7-24l8,0L227.5,62.6z"/>
		<path class="st0" d="M267.8,54.2h-14.3l-0.9,5.4l3.7,0c2.4,0.1,4.5,0.5,6.3,1.5c1.8,0.9,3.2,2.2,4.2,3.8c0.9,1.6,1.3,3.5,1.2,5.6
			c-0.2,3.5-1.8,6.3-4.5,8.4c-2.8,2.1-6.2,3.1-10.3,3.1h-12.5l5.9-34.1h22.4L267.8,54.2z M251.4,65.9l-1.7,9.7l3.7,0
			c1.7,0,3.1-0.5,4.3-1.4c1.2-1,1.9-2.2,2.2-3.8c0.2-1.3-0.1-2.4-0.8-3.2c-0.7-0.8-1.8-1.2-3.2-1.3L251.4,65.9z"/>
		<path class="st0" d="M270.3,78.5c0-1.1,0.4-2.1,1.2-2.9c0.8-0.8,1.8-1.2,3.1-1.2c1.2,0,2.2,0.4,3,1.1c0.8,0.7,1.2,1.6,1.2,2.7
			c0,1.2-0.4,2.1-1.2,2.9c-0.8,0.8-1.8,1.2-3.1,1.2c-1.2,0-2.2-0.4-3-1.1C270.8,80.5,270.4,79.6,270.3,78.5z M279,71.1h-6.2
			l3.1-23.3h8.2L279,71.1z"/>
		<path class="st0" d="M128.3,42.2c0,2.3-1.8,4.1-4.1,4.1s-4.1-1.8-4.1-4.1H128.3z"/>
	</g>
</g>
</svg>
