<?xml version="1.0" encoding="utf-8"?>
<!-- Generator: Adobe Illustrator 21.1.0, SVG Export Plug-In . SVG Version: 6.00 Build 0)  -->
<svg version="1.1" id="Layer_1" xmlns="http://www.w3.org/2000/svg" xmlns:xlink="http://www.w3.org/1999/xlink" x="0px" y="0px"
	 viewBox="0 0 459 512" style="enable-background:new 0 0 459 512;" xml:space="preserve">
<style type="text/css">
	.st0{fill:#fcf2ff;}
</style>
<g>
	<path class="st0" d="M220.7,70.6C98.8,70.6,0,169.4,0,291.3S98.8,512,220.7,512s220.7-98.8,220.7-220.7
		C441.4,169.4,342.6,70.6,220.7,70.6z M220.7,476.7c-102.2,0-185.4-83.2-185.4-185.4s83.2-185.4,185.4-185.4s185.4,83.2,185.4,185.4
		S322.9,476.7,220.7,476.7z"/>
	<g>
		<path class="st0" d="M273.1,35.3H168.2c-5.2,0-9.3-4.2-9.3-9.3V9.3c0-5.2,4.2-9.3,9.3-9.3h104.9c5.2,0,9.3,4.2,9.3,9.3V26
			C282.5,31.1,278.3,35.3,273.1,35.3"/>
		<path class="st0" d="M427.1,135.8l-35.3-35.3c-7.3-7.3-7.3-19.2,0-26.5l0,0c7.3-7.3,19.2-7.3,26.5,0l35.3,35.3
			c7.3,7.3,7.3,19.2,0,26.5l0,0C446.2,143.1,434.4,143.1,427.1,135.8"/>
	</g>
	<g>
		<path class="st0" d="M220.7,70.6c9,0,17.8,0.6,26.5,1.6V35.3h-53v36.9C202.9,71.2,211.7,70.6,220.7,70.6"/>
		<path class="st0" d="M397.2,158.9l26.5-26.5l-30.9-30.9l-25.2,25.2C378.5,136.4,388.5,147.2,397.2,158.9"/>
	</g>
	<g>
		<path class="st0" d="M220.7,273.7c-9.7,0-17.5,7.9-17.5,17.5s7.9,17.5,17.5,17.5c9.7,0,17.5-7.9,17.5-17.5
			S230.4,273.7,220.7,273.7 M220.7,326.4c-19.4,0-35.2-15.8-35.2-35.2c0-19.4,15.8-35.2,35.2-35.2c19.4,0,35.2,15.8,35.2,35.2
			C255.9,310.6,240.1,326.4,220.7,326.4"/>
		<path class="st0" d="M220.7,273.7c-4.9,0-8.8-4-8.8-8.8v-88.3c0-4.9,4-8.8,8.8-8.8c4.9,0,8.8,4,8.8,8.8v88.3
			C229.5,269.7,225.6,273.7,220.7,273.7"/>
	</g>
	<g>
		<path class="st0" d="M345.2,154.3L320.6,179c-3.4,3.4-3.4,9,0,12.5c1.7,1.7,4,2.6,6.2,2.6c2.3,0,4.5-0.9,6.2-2.6l24.6-24.6
			C353.7,162.5,349.5,158.3,345.2,154.3"/>
		<path class="st0" d="M405.6,282.5h-34.9c-4.9,0-8.8,4-8.8,8.8c0,4.9,3.9,8.8,8.8,8.8h34.9c0.1-2.9,0.5-5.8,0.5-8.8
			S405.8,285.4,405.6,282.5"/>
		<path class="st0" d="M357.7,415.8L333,391.2c-3.4-3.4-9-3.4-12.5,0c-3.4,3.5-3.4,9,0,12.5l24.6,24.6
			C349.5,424.3,353.7,420.2,357.7,415.8"/>
		<path class="st0" d="M220.7,105.9c-3,0-5.9,0.3-8.8,0.4v34.9c0,4.9,4,8.8,8.8,8.8c4.9,0,8.8-4,8.8-8.8v-34.9
			C226.6,106.2,223.7,105.9,220.7,105.9"/>
		<path class="st0" d="M220.7,432.6c-4.9,0-8.8,4-8.8,8.8v34.9c2.9,0.1,5.8,0.5,8.8,0.5s5.9-0.3,8.8-0.5v-34.9
			C229.5,436.5,225.6,432.6,220.7,432.6"/>
		<path class="st0" d="M108.3,391.2l-24.6,24.6c4,4.4,8.1,8.5,12.5,12.5l24.6-24.6c3.5-3.5,3.5-9,0-12.5
			C117.4,387.7,111.8,387.7,108.3,391.2"/>
		<path class="st0" d="M35.8,300.1h34.9c4.9,0,8.8-4,8.8-8.8c0-4.9-3.9-8.8-8.8-8.8H35.8c-0.1,2.9-0.4,5.8-0.4,8.8
			S35.6,297.2,35.8,300.1"/>
		<path class="st0" d="M83.7,166.8l24.6,24.6c1.7,1.7,4,2.6,6.2,2.6s4.5-0.9,6.2-2.6c3.4-3.5,3.4-9,0-12.5l-24.6-24.6
			C91.8,158.3,87.7,162.5,83.7,166.8"/>
	</g>
</g>
</svg>
