<?xml version="1.0" encoding="utf-8"?>
<!-- Generator: Adobe Illustrator 21.1.0, SVG Export Plug-In . SVG Version: 6.00 Build 0)  -->
<svg version="1.1" id="zenit" xmlns="http://www.w3.org/2000/svg" xmlns:xlink="http://www.w3.org/1999/xlink" x="0px" y="0px"
	 viewBox="0 0 259.2 184.1" style="enable-background:new 0 0 259.2 184.1;" xml:space="preserve">
<style type="text/css">
	.st0{fill:#00AFEF;}
	.st1{fill:#D2A85A;}
</style>
<g>
	<g>
	</g>
	<g>
		<path class="st0" d="M105.4,76.1h10.5l-5.3,18.1l8.2-2.1l4.7-16h9.8l-8,27.3L138.4,86l2.9-9.8h9.4l-5.6,19.3
			c-0.2,0.7-1.4,4.8-0.5,4.8c1.1,0,3.5-4.5,6.3-9.5c3-5.5,5.7-11.4,6.9-14.6h9.6l-4.7,16.4l12.2-16.4h84.3L56,163l4-13.7L219.7,84
			h-31.1l-3.1,10.2l-10,3.2l4-13.3h-4.9L160.8,102l-8.7,2.9c0.5-4.3,1.2-8.7,2.2-12.9l-4,7.5c-3.2,5.9-5.9,10.5-10.7,10.5
			c-3.5,0-5.1-3.3-5.1-7.6c0-1.5,0.2-3.2,0.6-4.8l-13,17.3l-10.8,3.5l5.4-18.8l-8.2,2.1l-5.6,19.7l-11.7,3.9l5.3-18.1l-11.8,15.1
			c-5,6.4-10.2,9.9-14.3,9.9c-8,0-9-13.1-8.3-18.4c-4.3,2-5.8,2.7-7.3,3.5c1.9,28.1-26.7,66.8-44.8,66.8c-5.6,0-10-4.3-10-14.2
			c0-14.5,10.9-35.7,40.2-52.3c-0.8-5.7-2.8-10.5-6.3-13.6v-0.6c9.9-7.6,17.4-16.2,17.4-23.9c0-3.5-2.7-4.9-5.6-4.9
			c-5.5,0-12.8,6.8-16.7,12.5h-2l3.2-11c7.5-9.9,19.4-13.5,26-13.5c6.7,0,12.3,2.6,12.3,10.5c0,9.5-8.2,19.3-20.4,26.7
			c2.8,3.2,4.7,6.8,5.7,10.8c2.9-1.5,6-3,9.2-4.6c3.5-17.2,15.8-30.4,26.7-30.4c5.5,0,8,3.3,8,7.7c0,10.3-9.5,18.3-22.8,25.3
			c-0.4,2.4-0.4,3.7-0.4,5.2c0,4.7,1,6.9,2.8,6.9c1.2,0,2.6-1.1,4.2-2.9l18-21.3L105.4,76.1z M13.7,166.6c0,2.2,0.7,5.9,3.3,5.9
			c10.1,0,22.8-26.8,23.4-47.6C22.7,136.9,13.7,154.3,13.7,166.6L13.7,166.6z M86.6,85.4c0-1.6-0.6-2.7-1.6-2.7
			c-2.7,0-6.7,8.5-8.9,18.4C83.5,96.3,86.6,90.2,86.6,85.4z"/>
		<path class="st0" d="M226.4,143.8l0.4-3.5h8.4v-4.7h-12.6l-1.4,12.9c1.5-0.6,3.2-0.7,4.4-0.7c3.2,0,5.1,1.5,5.1,3.4
			c0,1.5-1.4,3-4,3c-2,0-4.1-0.8-5.9-2.2l-0.7,5.1c1.7,1.1,4.2,2.1,6.9,2.1c6,0,9.4-3.6,9.4-8.2
			C236.5,145.6,231.3,142.8,226.4,143.8z"/>
		<path class="st0" d="M218.1,142.5c0-3.9-3.1-7.4-8.5-7.4c-5.2,0-8.6,3.2-8.6,8.5v0.1h5.6v-0.2c0-2.4,1.2-3.7,3.1-3.7
			c1.7,0,2.7,1.1,2.7,2.8c0,1.1-0.6,2.2-1.8,3.7l-10.4,12.3h17.7v-4.9h-7.1l4.2-4.6C217,146.8,218.1,145,218.1,142.5z"/>
		<polygon class="st0" points="168.9,140.9 173.9,140.9 173.9,158.6 179.6,158.6 179.6,135.7 171.6,135.7 		"/>
		<path class="st0" d="M190.7,135.2c-5.5,0-8.9,3.7-8.9,8.5c0,4.3,3.3,7.3,7.1,7.3c0.9,0,1.3,0,2.1-0.2l-5.3,7.9h6.4l3.2-4.9
			c2.5-3.8,4.1-6.8,4.1-10.2C199.5,138.6,196.3,135.2,190.7,135.2z M190.7,146.9c-2,0-3.5-1.4-3.5-3.6c0-1.9,1.4-3.6,3.5-3.6
			c2.2,0,3.6,1.6,3.6,3.6C194.2,145.5,192.8,146.9,190.7,146.9z"/>
	</g>
	<polygon class="st1" points="143.1,0 150.5,22.7 174.4,22.7 155,36.8 162.4,59.5 143.1,45.5 123.8,59.5 131.1,36.8 111.8,22.7 
		135.7,22.7 	"/>
</g>
</svg>
